<svg width="100" height="100" viewBox="0 0 100 100" fill="none" xmlns="http://www.w3.org/2000/svg">
<path d="M41.534 49.5286C40.4611 49.5241 39.4338 49.0939 38.6778 48.3326C37.9218 47.5712 37.4989 46.541 37.5019 45.4681V43.3866C36.6231 43.6067 35.8434 44.1152 35.2877 44.8307C34.732 45.5462 34.4323 46.4274 34.4366 47.3334V54.2147C34.4366 54.7435 34.5407 55.267 34.7431 55.7555C34.9454 56.2441 35.242 56.6879 35.6159 57.0618C35.9898 57.4357 36.4336 57.7323 36.9221 57.9346C37.4107 58.137 37.9342 58.2411 38.463 58.2411C38.9917 58.2411 39.5153 58.137 40.0038 57.9346C40.4923 57.7323 40.9362 57.4357 41.3101 57.0618C41.684 56.6879 41.9806 56.2441 42.1829 55.7555C42.3853 55.267 42.4894 54.7435 42.4894 54.2147V49.4092C42.1782 49.4939 41.8565 49.5341 41.534 49.5286ZM67.5067 49.5286C66.9757 49.5264 66.4503 49.4196 65.9606 49.2143C65.4709 49.009 65.0264 48.7093 64.6525 48.3322C64.2786 47.9552 63.9826 47.5082 63.7815 47.0167C63.5804 46.5253 63.478 45.9991 63.4802 45.4681V43.3866C62.5961 43.602 61.8099 44.1082 61.2478 44.8239C60.6858 45.5396 60.3804 46.4234 60.3808 47.3334V54.2147C60.3808 55.2826 60.805 56.3067 61.5601 57.0618C62.3152 57.8169 63.3394 58.2411 64.4072 58.2411C65.4751 58.2411 66.4992 57.8169 67.2543 57.0618C68.0094 56.3067 68.4336 55.2826 68.4336 54.2147V49.4092C68.132 49.4932 67.8198 49.5335 67.5067 49.5286ZM42.842 66.402C42.842 69.3991 46.6807 71.8274 51.4237 71.8274C56.1667 71.8274 60.0282 69.3991 60.0282 66.402H42.842Z" fill="url(#paint0_linear_2776_2539)"/>
<path d="M27.2596 89.9862C27.0481 89.9859 26.8371 89.9688 26.6283 89.935C25.8731 89.8006 25.1801 89.4296 24.6495 88.8755C24.1189 88.3214 23.7783 87.613 23.6768 86.8526C23.6598 86.6217 23.6598 86.3898 23.6768 86.1588C23.745 84.9531 22.3858 83.2072 21.4474 82.1779C16.9704 77.2959 13.7977 71.3632 12.2231 64.9291C12.0466 64.1968 11.7165 63.5104 11.2547 62.9153C10.7929 62.3201 10.21 61.8299 9.54448 61.4771C8.40951 60.87 7.47308 59.9493 6.84684 58.8247C6.2206 57.7002 5.93098 56.4193 6.0125 55.1347C6.09402 53.8502 6.54325 52.6161 7.30662 51.5798C8.06999 50.5435 9.1153 49.7485 10.3179 49.2898C10.7535 49.1096 11.1374 48.8241 11.4352 48.4588C11.733 48.0935 11.9354 47.6598 12.024 47.1969C13.6652 39.8297 17.387 33.0885 22.7473 27.7747C28.1075 22.4608 34.8808 18.7976 42.262 17.2206C42.4326 17.8883 42.3369 18.5962 41.9952 19.1948C41.6535 19.7933 41.0925 20.2355 40.4308 20.4281C32.7691 22.59 26.0218 27.1919 21.2124 33.5357C16.403 39.8795 13.794 47.6188 13.7813 55.5796C13.7813 56.3758 13.7813 57.1379 13.8553 57.8999C13.8553 58.0592 13.8553 58.1729 13.8553 58.2867C13.8553 58.6279 13.9064 58.9975 13.9519 59.3558C13.9974 59.7141 14.0145 60.0212 14.06 60.3681V60.4534C14.0573 60.4875 14.0573 60.5217 14.06 60.5558C14.151 61.2723 14.2647 61.9605 14.3898 62.6259C15.6478 69.1559 18.6687 75.2173 23.1251 80.1533C24.0976 81.2395 25.8833 82.7466 27.2084 82.7466C27.6851 82.7458 28.1572 82.8392 28.5978 83.0212C29.0383 83.2033 29.4386 83.4706 29.7757 83.8076C30.1128 84.1447 30.38 84.545 30.5621 84.9855C30.7441 85.4261 30.8375 85.8982 30.8367 86.3749C30.8424 86.4791 30.8424 86.5835 30.8367 86.6877C30.7973 87.1625 30.6639 87.6247 30.4442 88.0474C30.2245 88.4702 29.923 88.845 29.5571 89.1502C28.9016 89.6929 28.0765 89.9887 27.2255 89.9862H27.2596Z" fill="url(#paint1_linear_2776_2539)"/>
<path d="M88.0872 62.461C87.8936 62.4564 87.7033 62.4097 87.5295 62.3243C87.3557 62.2389 87.2025 62.1167 87.0806 61.9662C86.9411 61.8032 86.8375 61.6125 86.7768 61.4067C86.716 61.2009 86.6994 60.9846 86.728 60.7719C86.7311 60.736 86.7311 60.6998 86.728 60.6639C86.7849 60.2772 86.8304 59.9075 86.8645 59.5265C86.8986 59.1454 86.9441 58.8213 86.9669 58.4573V58.082C87.018 57.3825 87.0408 56.6261 87.0465 55.7787C87.0808 47.8164 84.5165 40.0603 79.7429 33.6876C74.9693 27.3149 68.2469 22.6735 60.5961 20.4679C59.9375 20.2708 59.3814 19.8254 59.045 19.2259C58.7086 18.6263 58.6184 17.9196 58.7933 17.2548C66.1624 18.8742 72.9116 22.5754 78.2386 27.9186C83.5656 33.2617 87.2464 40.0221 88.8436 47.396C88.9305 47.861 89.132 48.2969 89.43 48.6644C89.7279 49.0318 90.1127 49.3191 90.5497 49.5002C91.8165 49.9821 92.9059 50.8394 93.6722 51.9573C94.4386 53.0753 94.8452 54.4006 94.8377 55.756C94.8336 57.2792 94.3135 58.7561 93.3623 59.9459C92.4111 61.1357 91.0849 61.9681 89.5999 62.3074C89.1238 62.4127 88.6374 62.4642 88.1498 62.461H88.0872Z" fill="url(#paint2_linear_2776_2539)"/>
<path d="M50.4512 89.1217C57.1263 89.1285 63.6533 87.1552 69.2066 83.4515C74.76 79.7478 79.09 74.4802 81.6488 68.3151C84.2077 62.15 84.8804 55.3644 83.5819 48.8168C82.2834 42.2693 79.072 36.254 74.354 31.532C69.636 26.8101 63.6234 23.5936 57.077 22.2896C50.5305 20.9855 43.7444 21.6525 37.5771 24.2062C31.4098 26.7598 26.1385 31.0854 22.4302 36.6356C18.7218 42.1858 16.743 48.7112 16.7441 55.3862C16.7419 59.8147 17.612 64.2002 19.3048 68.2923C20.9976 72.3845 23.4799 76.1031 26.61 79.2358C29.74 82.3685 33.4566 84.8539 37.5473 86.5502C41.638 88.2464 46.0227 89.1202 50.4512 89.1217ZM50.4512 30.2609C55.421 30.2587 60.2798 31.7304 64.4132 34.4898C68.5465 37.2492 71.7686 41.1725 73.6721 45.7633C75.5755 50.3542 76.0747 55.4064 75.1065 60.281C74.1383 65.1556 71.7462 69.6335 68.2329 73.1485C64.7195 76.6635 60.2426 79.0576 55.3685 80.028C50.4943 80.9983 45.4419 80.5014 40.8501 78.6001C36.2584 76.6988 32.3337 73.4784 29.5724 69.3463C26.8111 65.2142 25.3373 60.3561 25.3373 55.3862C25.3358 52.0873 25.9842 48.8203 27.2457 45.7721C28.5071 42.7238 30.3567 39.9539 32.6889 37.6207C35.0211 35.2874 37.7902 33.4365 40.8379 32.1737C43.8856 30.9109 47.1522 30.2609 50.4512 30.2609Z" fill="#00A14B"/>
<path d="M74.7681 78.7713C80.9622 72.3208 84.3411 63.6745 84.1619 54.7334C83.9827 45.7923 80.2602 37.2884 73.8127 31.0912C83.8105 40.7307 81.4617 59.3728 68.5579 72.7885C63.9127 77.4695 57.6133 80.1366 51.0191 80.2142C44.4248 80.2918 38.0645 77.7737 33.3104 73.2033C28.5564 68.6328 25.7898 62.3765 25.6077 55.7843C25.4256 49.1922 27.8426 42.7927 32.3372 37.9668C19.439 51.3825 17.0845 70.0531 27.0823 79.6755C32.1794 84.5755 38.6866 87.7511 45.6855 88.7541C52.6844 89.7572 59.8215 88.537 66.0897 85.2659L73.0165 87.9331C73.2313 88.0157 73.4635 88.0429 73.6916 88.0122C73.9198 87.9815 74.1365 87.8938 74.3218 87.7572C74.5071 87.6206 74.655 87.4396 74.7519 87.2308C74.8488 87.022 74.8915 86.7922 74.8762 86.5625L74.37 79.1694C74.5008 79.0272 74.6373 78.9021 74.7681 78.7713Z" fill="url(#paint3_linear_2776_2539)"/>
<path d="M73.8132 31.0913C68.6734 26.1275 62.0859 22.9304 55.0062 21.9636C54.3159 21.8725 53.6766 21.5512 53.1915 21.0517C52.7065 20.5522 52.4041 19.9037 52.3333 19.211L52.1854 17.6869C52.1774 17.5624 52.2039 17.438 52.2622 17.3276C52.3204 17.2172 52.408 17.1251 52.5153 17.0613C53.2155 16.6147 53.752 15.953 54.0442 15.1756C54.3364 14.3982 54.3686 13.547 54.136 12.7497C53.9034 11.9524 53.4184 11.2521 52.754 10.7538C52.0896 10.2556 51.2814 9.98621 50.4509 9.98621C49.6204 9.98621 48.8123 10.2556 48.1478 10.7538C47.4834 11.2521 46.9985 11.9524 46.7658 12.7497C46.5332 13.547 46.5654 14.3982 46.8576 15.1756C47.1498 15.953 47.6863 16.6147 48.3865 17.0613C48.4932 17.1239 48.5802 17.2152 48.6375 17.3248C48.6948 17.4344 48.7202 17.5579 48.7107 17.6812L48.5742 19.1201C48.5169 19.8305 48.2183 20.5 47.7279 21.0173C47.2376 21.5346 46.5849 21.8685 45.8785 21.9636C39.5975 22.8148 33.684 25.4203 28.817 29.481C23.9501 33.5416 20.3272 38.8926 18.3644 44.9194C16.4015 50.9463 16.1784 57.4046 17.7206 63.5525C19.2628 69.7005 22.5078 75.2888 27.0829 79.6756C17.0851 70.0531 19.4395 51.3826 32.3377 37.9669C36.9829 33.2858 43.2823 30.6188 49.8765 30.5412C56.4707 30.4636 62.8311 32.9817 67.5852 37.5521C72.3392 42.1226 75.1058 48.3789 75.2878 54.971C75.4699 61.5632 73.0529 67.9627 68.5584 72.7886C81.4623 59.3729 83.811 40.7308 73.8132 31.0913Z" fill="url(#paint4_linear_2776_2539)"/>
<defs>
<linearGradient id="paint0_linear_2776_2539" x1="14.6628" y1="57.6042" x2="48.6883" y2="57.6042" gradientUnits="userSpaceOnUse">
<stop stop-color="#5AB361"/>
<stop offset="1" stop-color="#008C46"/>
</linearGradient>
<linearGradient id="paint1_linear_2776_2539" x1="6.00146" y1="53.6005" x2="42.3359" y2="53.6005" gradientUnits="userSpaceOnUse">
<stop stop-color="#30D158"/>
<stop offset="1" stop-color="#009B51"/>
</linearGradient>
<linearGradient id="paint2_linear_2776_2539" x1="58.7364" y1="39.8607" x2="94.8661" y2="39.8607" gradientUnits="userSpaceOnUse">
<stop stop-color="#30D158"/>
<stop offset="1" stop-color="#009B51"/>
</linearGradient>
<linearGradient id="paint3_linear_2776_2539" x1="81.9622" y1="39.6217" x2="32.5817" y2="79.6983" gradientUnits="userSpaceOnUse">
<stop stop-color="#72BE44"/>
<stop offset="1" stop-color="#00A14B"/>
</linearGradient>
<linearGradient id="paint4_linear_2776_2539" x1="16.7268" y1="44.8482" x2="80.0121" y2="44.8482" gradientUnits="userSpaceOnUse">
<stop stop-color="#72BE44"/>
<stop offset="1" stop-color="#00A14B"/>
</linearGradient>
</defs>
</svg>
