<svg width="32" height="32" viewBox="0 0 32 32" fill="none" xmlns="http://www.w3.org/2000/svg">
<path d="M27.4001 26.1H18.7001C18.4001 25.3 17.8001 24.7 17.0001 24.4V22.5C22.4001 22.3 25.2001 20.6 25.2001 19.9V15.5C22.9001 16.7 19.4001 17.3 16.0001 17.3C12.6001 17.3 9.0001 16.7 6.8001 15.5V19.9C6.8001 20.6 9.7001 22.3 15.0001 22.5V24.4C14.2001 24.7 13.6001 25.3 13.3001 26.1H4.6001C4.0001 26.1 3.6001 26.5 3.6001 27.1C3.6001 27.7 4.0001 28.1 4.6001 28.1H13.3001C13.7001 29.2 14.8001 30 16.0001 30C17.2001 30 18.3001 29.2 18.7001 28.1H27.4001C28.0001 28.1 28.4001 27.7 28.4001 27.1C28.4001 26.5 27.9001 26.1 27.4001 26.1Z" fill="#00BEFF"/>
<path d="M16.0003 14.8C22.0003 14.8 25.2003 13 25.2003 12.2V7.80005C23.0003 9.00005 19.5003 9.70005 16.0003 9.70005C12.5003 9.70005 9.00029 9.00005 6.80029 7.80005V12.2C6.80029 13 10.0003 14.8 16.0003 14.8Z" fill="#00BEFF"/>
<path d="M16.0003 7.2C22.0003 7.2 25.2003 5.4 25.2003 4.6C25.2003 3.8 22.0003 2 16.0003 2C10.0003 2 6.80029 3.8 6.80029 4.6C6.80029 5.4 10.0003 7.2 16.0003 7.2Z" fill="#00BEFF"/>
</svg>
