<svg width="100" height="100" viewBox="0 0 100 100" fill="none" xmlns="http://www.w3.org/2000/svg">
<path d="M59.9609 25.9665C57.3086 23.3469 54.1657 21.276 50.7122 19.8724C47.2586 18.4688 43.5622 17.76 39.8344 17.7866C24.7178 17.8699 12.1679 29.9932 11.5712 45.0998C11.3398 50.7417 12.7976 56.3244 15.7578 61.133C15.9408 61.4282 16.027 61.7733 16.0043 62.1199C15.9816 62.4666 15.8511 62.7974 15.6312 63.0663C13.3438 65.9749 11.552 69.241 10.3279 72.7329V72.7662C10.225 73.0528 10.0457 73.3057 9.80923 73.4976C9.57279 73.6894 9.28833 73.8128 8.98671 73.8543C8.6851 73.8959 8.37787 73.8541 8.09836 73.7333C7.81885 73.6126 7.57775 73.4176 7.40123 73.1696C4.1877 68.6503 1.94894 63.5123 0.827098 58.0817C-0.294747 52.651 -0.275166 47.0465 0.884593 41.6238C2.04435 36.2012 4.31895 31.0789 7.56398 26.5822C10.809 22.0855 14.9536 18.3127 19.7345 15.5033C42.3643 11.2833 51.681 17.6266 59.9609 25.9665Z" fill="url(#paint0_linear_2776_2169)"/>
<path d="M80.0009 49.56C80.1056 58.0163 77.5162 66.2865 72.6076 73.1732C72.43 73.4184 72.1888 73.6106 71.9102 73.7291C71.6315 73.8476 71.3258 73.888 71.0259 73.8458C70.7261 73.8037 70.4433 73.6806 70.2081 73.4899C69.9729 73.2991 69.7941 73.0479 69.691 72.7632V72.7298C68.4662 69.2375 66.6732 65.9714 64.3843 63.0632C64.1639 62.7947 64.0328 62.4641 64.0095 62.1174C63.9862 61.7708 64.0718 61.4255 64.2543 61.1299C67.5797 55.7104 68.9939 49.3331 68.2713 43.0159C67.5487 36.6986 64.731 30.8055 60.2677 26.2768C60.1677 26.1735 60.0644 26.0668 59.961 25.9668C51.6811 17.6335 42.3645 11.3002 19.7446 15.5069C25.8398 11.9147 32.7829 10.0138 39.8578 10.0002C61.7244 9.92358 79.7676 27.6968 80.0009 49.56Z" fill="url(#paint1_linear_2776_2169)"/>
<path d="M51.224 78.78C51.224 80.9991 50.566 83.1683 49.3331 85.0134C48.1003 86.8586 46.348 88.2966 44.2978 89.1459C42.2476 89.9951 39.9917 90.2173 37.8152 89.7843C35.6388 89.3514 33.6396 88.2828 32.0704 86.7137C30.5013 85.1445 29.4327 83.1453 28.9998 80.9689C28.5669 78.7924 28.789 76.5365 29.6382 74.4863C30.4875 72.4361 31.9256 70.6838 33.7707 69.451C35.6158 68.2181 37.785 67.5601 40.0041 67.5601C42.9798 67.5601 45.8337 68.7422 47.9378 70.8463C50.042 72.9504 51.224 75.8043 51.224 78.78Z" fill="url(#paint2_linear_2776_2169)"/>
<path d="M66.7907 77.8495C66.4074 76.7528 65.9807 75.5595 65.504 74.2595C60.2074 59.8129 50.6275 59.3563 47.4608 58.2596C44.2942 57.163 44.8342 52.6297 44.8342 52.6297C49.1675 49.9963 50.1308 43.6297 50.1308 43.6297C50.1308 43.6297 51.1941 43.563 51.7574 40.1197C52.3274 36.6164 50.4075 36.5031 50.4075 36.5031C50.4075 33.8864 49.7175 24.0032 40.0075 24.0032C30.2976 24.0032 29.6076 33.8864 29.6076 36.5031C29.6076 36.5031 27.6876 36.6164 28.2543 40.1197C28.8209 43.563 29.8809 43.6297 29.8809 43.6297C29.8809 43.6297 30.8576 50.0097 35.1809 52.6297C35.1809 52.6297 35.7176 57.183 32.5476 58.2696C29.3776 59.3563 19.801 59.8129 14.5077 74.2695C14.031 75.5695 13.6044 76.7628 13.2177 77.8595C13.0704 78.2809 13.0529 78.7369 13.1676 79.1683C13.2823 79.5998 13.5239 79.9868 13.861 80.2795C16.2194 82.3219 18.8093 84.0806 21.5776 85.5194C21.9611 85.7186 22.394 85.8026 22.8241 85.7613C23.2542 85.72 23.6632 85.5552 24.0018 85.2868C24.3404 85.0183 24.5941 84.6576 24.7323 84.2482C24.8706 83.8389 24.8875 83.3982 24.781 82.9795C24.1398 80.637 24.0478 78.1782 24.5121 75.7944C24.9763 73.4106 25.9843 71.166 27.4575 69.2354C28.9308 67.3047 30.8297 65.7399 33.0064 64.6629C35.1831 63.5858 37.5789 63.0255 40.0075 63.0255C42.4361 63.0255 44.832 63.5858 47.0087 64.6629C49.1854 65.7399 51.0842 67.3047 52.5575 69.2354C54.0308 71.166 55.0388 73.4106 55.503 75.7944C55.9672 78.1782 55.8752 80.637 55.2341 82.9795C55.1266 83.3981 55.1426 83.8388 55.2803 84.2485C55.418 84.6582 55.6714 85.0192 56.0099 85.2878C56.3484 85.5565 56.7575 85.7214 57.1877 85.7625C57.6179 85.8036 58.0508 85.7192 58.4341 85.5194C61.2029 84.0814 63.7929 82.3227 66.1507 80.2795C66.4904 79.9865 66.7333 79.5975 66.8476 79.1638C66.9618 78.73 66.942 78.2718 66.7907 77.8495Z" fill="url(#paint3_linear_2776_2169)"/>
<path d="M36.8342 84.5796L32.7176 80.4629C32.5819 80.3279 32.4743 80.1674 32.4008 79.9906C32.3274 79.8139 32.2896 79.6244 32.2896 79.4329C32.2896 79.2415 32.3274 79.052 32.4008 78.8752C32.4743 78.6985 32.5819 78.538 32.7176 78.4029C32.8523 78.2674 33.0125 78.1598 33.189 78.0864C33.3655 78.013 33.5547 77.9752 33.7459 77.9752C33.937 77.9752 34.1263 78.013 34.3028 78.0864C34.4792 78.1598 34.6395 78.2674 34.7742 78.4029L37.5342 81.1596C37.5779 81.2035 37.6298 81.2384 37.687 81.2622C37.7442 81.286 37.8056 81.2983 37.8675 81.2983C37.9295 81.2983 37.9908 81.286 38.048 81.2622C38.1052 81.2384 38.1572 81.2035 38.2009 81.1596L45.2341 74.0996C45.3692 73.964 45.5297 73.8563 45.7064 73.7829C45.8832 73.7094 46.0727 73.6716 46.2641 73.6716C46.4556 73.6716 46.6451 73.7094 46.8218 73.7829C46.9986 73.8563 47.1591 73.964 47.2941 74.0996C47.5673 74.3728 47.7208 74.7433 47.7208 75.1296C47.7208 75.516 47.5673 75.8865 47.2941 76.1596L38.8942 84.5829C38.7589 84.7183 38.5982 84.8257 38.4214 84.8989C38.2445 84.9721 38.0549 85.0096 37.8635 85.0093C37.6721 85.0089 37.4826 84.9708 37.306 84.8971C37.1294 84.8234 36.969 84.7155 36.8342 84.5796Z" fill="white"/>
<defs>
<linearGradient id="paint0_linear_2776_2169" x1="11.2279" y1="68.2196" x2="33.4611" y2="26.4499" gradientUnits="userSpaceOnUse">
<stop stop-color="#41E58F"/>
<stop offset="1" stop-color="#17C389"/>
</linearGradient>
<linearGradient id="paint1_linear_2776_2169" x1="45.5045" y1="13.8702" x2="59.711" y2="66.6999" gradientUnits="userSpaceOnUse">
<stop stop-color="#41E58F"/>
<stop offset="1" stop-color="#17C389"/>
</linearGradient>
<linearGradient id="paint2_linear_2776_2169" x1="67.3673" y1="46.0402" x2="29.0775" y2="91.8532" gradientUnits="userSpaceOnUse">
<stop stop-color="#41E58F"/>
<stop offset="1" stop-color="#17C389"/>
</linearGradient>
<linearGradient id="paint3_linear_2776_2169" x1="62.1574" y1="38.3997" x2="22.2743" y2="86.1194" gradientUnits="userSpaceOnUse">
<stop stop-color="#41E58F"/>
<stop offset="1" stop-color="#17C389"/>
</linearGradient>
</defs>
</svg>
