<svg width="32" height="32" viewBox="0 0 32 32" fill="none" xmlns="http://www.w3.org/2000/svg">
<path opacity="0.2" fill-rule="evenodd" clip-rule="evenodd" d="M0 16C0 7.16344 7.16344 0 16 0C24.8366 0 32 7.16344 32 16C32 24.8366 24.8366 32 16 32C7.16344 32 0 24.8366 0 16Z" fill="white"/>
<path d="M17.8324 17.2503H19.9157L20.749 13.917H17.8324V12.2503C17.8324 11.392 17.8324 10.5837 19.499 10.5837H20.749V7.78366C20.4774 7.74783 19.4515 7.66699 18.3682 7.66699C16.1057 7.66699 14.499 9.04783 14.499 11.5837V13.917H11.999V17.2503H14.499V24.3337H17.8324V17.2503Z" fill="white"/>
</svg>
