<svg width="32" height="32" viewBox="0 0 32 32" fill="none" xmlns="http://www.w3.org/2000/svg">
<rect x="8" y="8" width="15.2" height="15.2" fill="#00BEFF"/>
<path d="M28.4 11.0667C28.5757 11.065 28.7436 10.994 28.8672 10.8692C28.9908 10.7444 29.0602 10.5758 29.0602 10.4001C29.0602 10.2244 28.9908 10.0558 28.8672 9.93093C28.7436 9.80609 28.5757 9.7351 28.4 9.7334H27.0666V8.40009H28.4C28.5768 8.40009 28.7464 8.32985 28.8714 8.20482C28.9964 8.07979 29.0667 7.91022 29.0667 7.7334C29.0667 7.55658 28.9964 7.38701 28.8714 7.26198C28.7464 7.13695 28.5768 7.06671 28.4 7.06671H27.0666V6.40009C27.066 5.86983 26.8551 5.36146 26.4802 4.98651C26.1052 4.61157 25.5968 4.40067 25.0666 4.40009H24.4V3.06671C24.4 2.8899 24.3297 2.72032 24.2047 2.59529C24.0797 2.47026 23.9101 2.40002 23.7333 2.40002C23.5565 2.40002 23.3869 2.47026 23.2619 2.59529C23.1368 2.72032 23.0666 2.8899 23.0666 3.06671V4.40009H21.7333V3.06671C21.7316 2.89102 21.6606 2.72311 21.5358 2.59947C21.4109 2.47584 21.2423 2.40648 21.0666 2.40648C20.8909 2.40648 20.7223 2.47584 20.5975 2.59947C20.4727 2.72311 20.4017 2.89102 20.4 3.06671V4.40009H19.0666V3.06671C19.0649 2.89102 18.9939 2.72311 18.8691 2.59947C18.7442 2.47584 18.5756 2.40648 18.3999 2.40648C18.2242 2.40648 18.0556 2.47584 17.9308 2.59947C17.806 2.72311 17.735 2.89102 17.7333 3.06671V4.40009H16.4V3.06671C16.4 2.8899 16.3297 2.72032 16.2047 2.59529C16.0797 2.47026 15.9101 2.40002 15.7333 2.40002C15.5565 2.40002 15.3869 2.47026 15.2619 2.59529C15.1368 2.72032 15.0666 2.8899 15.0666 3.06671V4.40009H13.7333V3.06671C13.7316 2.89102 13.6606 2.72311 13.5358 2.59947C13.4109 2.47584 13.2423 2.40648 13.0666 2.40648C12.8909 2.40648 12.7223 2.47584 12.5975 2.59947C12.4727 2.72311 12.4017 2.89102 12.4 3.06671V4.40009H11.0666V3.06671C11.0649 2.89102 10.9939 2.72311 10.8691 2.59947C10.7442 2.47584 10.5756 2.40648 10.3999 2.40648C10.2242 2.40648 10.0556 2.47584 9.9308 2.59947C9.80597 2.72311 9.73498 2.89102 9.73328 3.06671V4.40009H8.39997V3.06671C8.39997 2.8899 8.32973 2.72032 8.2047 2.59529C8.07967 2.47026 7.91009 2.40002 7.73328 2.40002C7.55646 2.40002 7.38689 2.47026 7.26186 2.59529C7.13683 2.72032 7.06659 2.8899 7.06659 3.06671V4.40009H6.39997C5.86971 4.40067 5.36134 4.61157 4.98639 4.98651C4.61144 5.36146 4.40054 5.86983 4.39997 6.40009V7.06671H3.06659C2.88977 7.06671 2.7202 7.13695 2.59517 7.26198C2.47014 7.38701 2.3999 7.55658 2.3999 7.7334C2.3999 7.91022 2.47014 8.07979 2.59517 8.20482C2.7202 8.32985 2.88977 8.40009 3.06659 8.40009H4.39997V9.7334H3.06659C2.8909 9.7351 2.72298 9.80609 2.59935 9.93093C2.47571 10.0558 2.40636 10.2244 2.40636 10.4001C2.40636 10.5758 2.47571 10.7444 2.59935 10.8692C2.72298 10.994 2.8909 11.065 3.06659 11.0667H4.39997V12.4001H3.06659C2.8909 12.4018 2.72298 12.4728 2.59935 12.5976C2.47571 12.7225 2.40636 12.891 2.40636 13.0667C2.40636 13.2424 2.47571 13.411 2.59935 13.5359C2.72298 13.6607 2.8909 13.7317 3.06659 13.7334H4.39997V15.0667H3.06659C2.88977 15.0667 2.7202 15.137 2.59517 15.262C2.47014 15.387 2.3999 15.5566 2.3999 15.7334C2.3999 15.9102 2.47014 16.0798 2.59517 16.2048C2.7202 16.3298 2.88977 16.4001 3.06659 16.4001H4.39997V17.7334H3.06659C2.8909 17.7351 2.72298 17.8061 2.59935 17.9309C2.47571 18.0558 2.40636 18.2244 2.40636 18.4001C2.40636 18.5758 2.47571 18.7444 2.59935 18.8692C2.72298 18.994 2.8909 19.065 3.06659 19.0667H4.39997V20.4001H3.06659C2.8909 20.4018 2.72298 20.4728 2.59935 20.5976C2.47571 20.7225 2.40636 20.891 2.40636 21.0667C2.40636 21.2424 2.47571 21.411 2.59935 21.5359C2.72298 21.6607 2.8909 21.7317 3.06659 21.7334H4.39997V23.0667H3.06659C2.88977 23.0667 2.7202 23.137 2.59517 23.262C2.47014 23.387 2.3999 23.5566 2.3999 23.7334C2.3999 23.9102 2.47014 24.0798 2.59517 24.2048C2.7202 24.3298 2.88977 24.4001 3.06659 24.4001H4.39997V25.0667C4.40054 25.597 4.61144 26.1053 4.98639 26.4803C5.36134 26.8552 5.86971 27.0661 6.39997 27.0667H7.06659V28.4001C7.06659 28.5769 7.13683 28.7465 7.26186 28.8715C7.38689 28.9965 7.55646 29.0668 7.73328 29.0668C7.91009 29.0668 8.07967 28.9965 8.2047 28.8715C8.32973 28.7465 8.39997 28.5769 8.39997 28.4001V27.0667H9.73328V28.4001C9.73498 28.5758 9.80597 28.7437 9.9308 28.8673C10.0556 28.991 10.2242 29.0603 10.3999 29.0603C10.5756 29.0603 10.7442 28.991 10.8691 28.8673C10.9939 28.7437 11.0649 28.5758 11.0666 28.4001V27.0667H12.4V28.4001C12.4017 28.5758 12.4727 28.7437 12.5975 28.8673C12.7223 28.991 12.8909 29.0603 13.0666 29.0603C13.2423 29.0603 13.4109 28.991 13.5358 28.8673C13.6606 28.7437 13.7316 28.5758 13.7333 28.4001V27.0667H15.0666V28.4001C15.0666 28.5769 15.1368 28.7465 15.2619 28.8715C15.3869 28.9965 15.5565 29.0668 15.7333 29.0668C15.9101 29.0668 16.0797 28.9965 16.2047 28.8715C16.3297 28.7465 16.4 28.5769 16.4 28.4001V27.0667H17.7333V28.4001C17.735 28.5758 17.806 28.7437 17.9308 28.8673C18.0556 28.991 18.2242 29.0603 18.3999 29.0603C18.5756 29.0603 18.7442 28.991 18.8691 28.8673C18.9939 28.7437 19.0649 28.5758 19.0666 28.4001V27.0667H20.4V28.4001C20.4017 28.5758 20.4727 28.7437 20.5975 28.8673C20.7223 28.991 20.8909 29.0603 21.0666 29.0603C21.2423 29.0603 21.4109 28.991 21.5358 28.8673C21.6606 28.7437 21.7316 28.5758 21.7333 28.4001V27.0667H23.0666V28.4001C23.0666 28.5769 23.1368 28.7465 23.2619 28.8715C23.3869 28.9965 23.5565 29.0668 23.7333 29.0668C23.9101 29.0668 24.0797 28.9965 24.2047 28.8715C24.3297 28.7465 24.4 28.5769 24.4 28.4001V27.0667H25.0666C25.5968 27.0661 26.1052 26.8552 26.4802 26.4803C26.8551 26.1053 27.066 25.597 27.0666 25.0667V24.4001H28.4C28.5768 24.4001 28.7464 24.3298 28.8714 24.2048C28.9964 24.0798 29.0667 23.9102 29.0667 23.7334C29.0667 23.5566 28.9964 23.387 28.8714 23.262C28.7464 23.137 28.5768 23.0667 28.4 23.0667H27.0666V21.7334H28.4C28.5757 21.7317 28.7436 21.6607 28.8672 21.5359C28.9908 21.411 29.0602 21.2424 29.0602 21.0667C29.0602 20.891 28.9908 20.7225 28.8672 20.5976C28.7436 20.4728 28.5757 20.4018 28.4 20.4001H27.0666V19.0667H28.4C28.5757 19.065 28.7436 18.994 28.8672 18.8692C28.9908 18.7444 29.0602 18.5758 29.0602 18.4001C29.0602 18.2244 28.9908 18.0558 28.8672 17.9309C28.7436 17.8061 28.5757 17.7351 28.4 17.7334H27.0666V16.4001H28.4C28.5768 16.4001 28.7464 16.3298 28.8714 16.2048C28.9964 16.0798 29.0667 15.9102 29.0667 15.7334C29.0667 15.5566 28.9964 15.387 28.8714 15.262C28.7464 15.137 28.5768 15.0667 28.4 15.0667H27.0666V13.7334H28.4C28.5757 13.7317 28.7436 13.6607 28.8672 13.5359C28.9908 13.411 29.0602 13.2424 29.0602 13.0667C29.0602 12.891 28.9908 12.7225 28.8672 12.5976C28.7436 12.4728 28.5757 12.4018 28.4 12.4001H27.0666V11.0667H28.4ZM25.7333 25.0667C25.7332 25.2435 25.6629 25.413 25.5379 25.538C25.4129 25.663 25.2434 25.7333 25.0666 25.7334H6.39997C6.22318 25.7333 6.05368 25.663 5.92867 25.538C5.80367 25.413 5.73339 25.2435 5.73328 25.0667V6.40009C5.73344 6.22332 5.80374 6.05384 5.92873 5.92885C6.05372 5.80386 6.2232 5.73357 6.39997 5.7334H25.0666C25.2434 5.73357 25.4128 5.80386 25.5378 5.92885C25.6628 6.05384 25.7331 6.22332 25.7333 6.40009V25.0667Z" fill="#00BEFF"/>
<path d="M23.7331 7.06677H7.73309C7.64554 7.06675 7.55883 7.08398 7.47793 7.11747C7.39704 7.15097 7.32353 7.20007 7.26162 7.26199C7.19971 7.3239 7.1506 7.3974 7.1171 7.4783C7.08361 7.5592 7.06638 7.6459 7.06641 7.73346V23.7335C7.06636 23.821 7.08357 23.9077 7.11705 23.9886C7.15054 24.0696 7.19965 24.1431 7.26156 24.205C7.32348 24.2669 7.397 24.316 7.47791 24.3495C7.55881 24.383 7.64553 24.4002 7.73309 24.4001H23.7331C23.8207 24.4002 23.9074 24.383 23.9883 24.3495C24.0692 24.316 24.1427 24.2669 24.2046 24.205C24.2665 24.1431 24.3156 24.0696 24.3491 23.9886C24.3826 23.9077 24.3998 23.821 24.3998 23.7335V7.73346C24.3998 7.6459 24.3826 7.5592 24.3491 7.4783C24.3156 7.3974 24.2665 7.3239 24.2046 7.26199C24.1427 7.20007 24.0692 7.15097 23.9883 7.11747C23.9074 7.08398 23.8207 7.06675 23.7331 7.06677ZM23.0664 23.0668H8.39978V8.40015H23.0664V23.0668Z" fill="#00BEFF"/>
<path d="M10.7332 18.4001H12.7332C12.8208 18.4002 12.9075 18.383 12.9884 18.3495C13.0693 18.316 13.1428 18.2669 13.2047 18.205C13.2667 18.1431 13.3158 18.0696 13.3493 17.9886C13.3827 17.9077 13.4 17.821 13.3999 17.7335V16.0668C13.3999 15.89 13.3297 15.7204 13.2046 15.5954C13.0796 15.4703 12.91 15.4001 12.7332 15.4001C12.5564 15.4001 12.3868 15.4703 12.2618 15.5954C12.1368 15.7204 12.0665 15.89 12.0665 16.0668V17.0668H10.7332V14.4001H12.7332C12.91 14.4001 13.0796 14.3299 13.2046 14.2049C13.3297 14.0799 13.3999 13.9103 13.3999 13.7335C13.3999 13.5566 13.3297 13.3871 13.2046 13.262C13.0796 13.137 12.91 13.0668 12.7332 13.0668H10.7332C10.3797 13.0672 10.0408 13.2078 9.79085 13.4578C9.5409 13.7077 9.4003 14.0466 9.3999 14.4001V17.0668C9.40035 17.4203 9.54096 17.7591 9.79091 18.0091C10.0409 18.2591 10.3797 18.3997 10.7332 18.4001Z" fill="#002C6F"/>
<path d="M14.7331 18.4001C14.8207 18.4002 14.9074 18.383 14.9883 18.3495C15.0692 18.316 15.1427 18.2669 15.2046 18.205C15.2665 18.1431 15.3156 18.0696 15.3491 17.9886C15.3826 17.9077 15.3998 17.821 15.3998 17.7335V16.4001H16.7331C16.8207 16.4002 16.9074 16.3829 16.9883 16.3495C17.0692 16.316 17.1427 16.2668 17.2046 16.2049C17.2665 16.143 17.3156 16.0695 17.3491 15.9886C17.3826 15.9077 17.3998 15.821 17.3998 15.7335V13.7335C17.3998 13.6459 17.3826 13.5592 17.3491 13.4783C17.3156 13.3974 17.2665 13.3239 17.2046 13.262C17.1427 13.2001 17.0692 13.151 16.9883 13.1175C16.9074 13.084 16.8207 13.0667 16.7331 13.0668H14.7331C14.6455 13.0667 14.5588 13.084 14.4779 13.1175C14.397 13.151 14.3235 13.2001 14.2616 13.262C14.1997 13.3239 14.1506 13.3974 14.1171 13.4783C14.0836 13.5592 14.0664 13.6459 14.0664 13.7335V17.7335C14.0664 17.821 14.0836 17.9077 14.1171 17.9886C14.1505 18.0696 14.1996 18.1431 14.2616 18.205C14.3235 18.2669 14.397 18.316 14.4779 18.3495C14.5588 18.383 14.6455 18.4002 14.7331 18.4001ZM15.3998 14.4001H16.0664V15.0668H15.3998V14.4001Z" fill="#002C6F"/>
<path d="M19.3998 18.4001H20.7331C21.0866 18.3997 21.4255 18.259 21.6754 18.0091C21.9253 17.7591 22.066 17.4202 22.0664 17.0668V13.7334C22.0673 13.6454 22.0506 13.558 22.0175 13.4763C21.9844 13.3947 21.9354 13.3205 21.8734 13.2579C21.8115 13.1953 21.7377 13.1456 21.6564 13.1117C21.5751 13.0778 21.4878 13.0603 21.3997 13.0603C21.3117 13.0603 21.2244 13.0778 21.1431 13.1117C21.0618 13.1456 20.988 13.1953 20.9261 13.2579C20.8641 13.3205 20.8151 13.3947 20.782 13.4763C20.7489 13.558 20.7322 13.6454 20.7331 13.7334V17.0668H19.3998V13.7334C19.3998 13.5566 19.3295 13.3871 19.2045 13.262C19.0795 13.137 18.9099 13.0668 18.7331 13.0668C18.5563 13.0668 18.3867 13.137 18.2617 13.262C18.1366 13.3871 18.0664 13.5566 18.0664 13.7334V17.0668C18.0669 17.4202 18.2075 17.7591 18.4575 18.0091C18.7074 18.259 19.0463 18.3997 19.3998 18.4001Z" fill="#002C6F"/>
</svg>
