<svg width="32" height="32" viewBox="0 0 32 32" fill="none" xmlns="http://www.w3.org/2000/svg">
<path fill-rule="evenodd" clip-rule="evenodd" d="M3.03131 15.7963C3.08772 16.8795 3.34223 17.943 3.78214 18.9338C3.78733 18.8607 3.78733 18.7873 3.78214 18.7142C3.18476 16.7855 3.21398 14.7163 3.86557 12.8053C4.28622 11.2007 5.30046 9.81712 6.70204 8.93576C7.01492 8.69953 7.38499 8.55133 7.77405 8.50645C8.16311 8.46157 8.55707 8.52164 8.91525 8.68046C9.27343 8.83928 9.58286 9.09109 9.81158 9.4099C10.0403 9.72872 10.18 10.103 10.2164 10.494C10.45 11.8973 10.1921 13.3385 9.48638 14.5727C9.06925 15.3885 8.62084 16.1937 8.17242 16.999C7.72401 17.8043 7.31731 18.5468 6.91061 19.3312C6.0039 20.893 5.41881 22.6213 5.18995 24.4139C5.01267 26.3277 6.09721 27.3004 8.02643 26.9657H8.15157C9.96297 26.5237 11.6682 25.7237 13.1675 24.6126C17.4075 21.5365 20.9331 17.5763 23.5019 13.004C24.559 11.2842 25.2677 9.37221 25.5876 7.37749C25.6448 6.88413 25.6448 6.38578 25.5876 5.89243C25.5702 5.61434 25.4956 5.34286 25.3685 5.09509C25.2414 4.84732 25.0646 4.62862 24.8491 4.45277C24.6336 4.27692 24.3841 4.14772 24.1163 4.07331C23.8486 3.9989 23.5684 3.98089 23.2933 4.02041C21.9666 4.18207 20.6956 4.65111 19.5809 5.39043C19.4888 5.45384 19.3797 5.48778 19.2681 5.48778C19.1564 5.48778 19.0473 5.45384 18.9552 5.39043C16.6749 4.17736 14.0342 3.83193 11.5199 4.41782C8.97112 4.96228 6.70592 6.41572 5.1448 8.50832C3.58369 10.6009 2.83272 13.1905 3.03131 15.7963ZM23.1369 8.88347L23.0535 9.08218C22.2514 7.87516 21.2245 6.83473 20.0293 6.01792C20.8428 5.4772 21.7787 5.14996 22.7511 5.06623C23.0277 5.06623 23.2929 5.17641 23.4885 5.37254C23.684 5.56867 23.7939 5.83468 23.7939 6.11205C23.7762 7.08406 23.5372 8.03916 23.0952 8.90439L23.1369 8.88347ZM14.1165 25.6166C19.0487 23.0457 22.8214 18.6901 24.6699 13.4328C25.7231 19.7077 20.4464 25.6584 14.1165 25.6166Z" fill="#32D4FD"/>
</svg>
