<svg width="32" height="32" viewBox="0 0 32 32" fill="none" xmlns="http://www.w3.org/2000/svg">
<path d="M24.9118 8.72036H24.4457V7.97975C24.4457 7.79962 24.2997 7.65366 24.1196 7.65366H22.2935C22.1133 7.65366 21.9674 7.79962 21.9674 7.97975V8.72036H20.3478V7.89327C20.3478 6.62884 19.319 5.6001 18.0546 5.6001H13.9453C12.6808 5.6001 11.6521 6.62884 11.6521 7.89327V8.72036H10.0326V7.97975C10.0326 7.79962 9.88665 7.65366 9.70652 7.65366H7.88043C7.7003 7.65366 7.55435 7.79962 7.55435 7.97975V8.72036H7.08817C5.38261 8.72036 4 10.103 4 11.8085V22.6933C4 24.3989 5.38261 25.7815 7.08817 25.7815H24.9118C26.6174 25.7815 28 24.3989 28 22.6933V11.8085C28 10.103 26.6174 8.72036 24.9118 8.72036ZM12.9564 7.89327C12.9564 7.34805 13.4 6.90445 13.9453 6.90445H18.0546C18.5998 6.90445 19.0434 7.34805 19.0434 7.89327V8.72036H12.9564V7.89327ZM16 22.8133C12.928 22.8133 10.4376 20.3229 10.4376 17.2509C10.4376 14.1789 12.928 11.6885 16 11.6885C19.072 11.6885 21.5624 14.1789 21.5624 17.2509C21.5624 20.3229 19.072 22.8133 16 22.8133Z" fill="#32D4FD"/>
<path d="M20.1758 18.617C20.1758 18.7035 20.1417 18.7865 20.0806 18.8478C20.0194 18.9089 19.9366 18.9434 19.8501 18.9435L17.696 18.9455V21.0995C17.696 21.2796 17.55 21.4255 17.3699 21.4255H14.63C14.4499 21.4255 14.3039 21.2796 14.3039 21.0995V18.9486L12.153 18.9505C12.0667 18.9505 11.9836 18.9162 11.9224 18.8553C11.8613 18.7942 11.8268 18.7113 11.8267 18.6249L11.8242 15.8851C11.8241 15.7049 11.9699 15.5589 12.15 15.5587L14.304 15.5568V13.4025C14.304 13.2224 14.45 13.0764 14.6301 13.0764H17.3699C17.55 13.0764 17.696 13.2224 17.696 13.4025V15.5534L19.8469 15.5514C20.0269 15.5514 20.1731 15.6972 20.1732 15.8772L20.1758 18.617Z" fill="#32D4FD"/>
</svg>
