<svg width="32" height="32" viewBox="0 0 32 32" fill="none" xmlns="http://www.w3.org/2000/svg">
<path d="M25.5625 17.9858V21.928C25.5625 23.3599 24.7197 24.6377 23.4147 25.2358C21.8287 25.9608 19.4272 26.7493 16.5 26.7493C13.5728 26.7493 11.1712 25.9608 9.57625 25.2358C8.28031 24.6377 7.4375 23.3599 7.4375 21.928V17.9858L13.8809 20.9312C14.7056 21.3118 15.5938 21.5021 16.5 21.5021C17.4062 21.5021 18.2944 21.3118 19.1191 20.9312L25.5625 17.9858Z" fill="#32D4FD"/>
<path d="M29.1875 16.3274V22.218C29.1875 22.7165 28.7797 23.1243 28.2812 23.1243C27.7828 23.1243 27.375 22.7165 27.375 22.218V17.1611L29.1875 16.3274Z" fill="#32D4FD"/>
<path d="M14.6313 19.2854C15.2249 19.5564 15.862 19.6924 16.5 19.6924C17.138 19.6924 17.7742 19.5573 18.3687 19.2854L29.9424 13.9948C30.5949 13.6966 31 13.0649 31 12.3463C31 11.6276 30.5949 10.9951 29.9424 10.6969L18.3687 5.40713C17.1806 4.86429 15.8203 4.86429 14.6322 5.40713L3.05759 10.696C2.40509 10.9951 2 11.6267 2 12.3454C2 13.064 2.40509 13.6957 3.05759 13.9948L14.6313 19.2854Z" fill="#32D4FD"/>
</svg>
