<svg width="32" height="32" viewBox="0 0 32 32" fill="none" xmlns="http://www.w3.org/2000/svg">
<path d="M28 12.2943V23.2879C28 24.7534 26.8117 25.9417 25.3462 25.9417H6.65384C5.18826 25.9417 4 24.7534 4 23.2879V12.2943C4 10.8287 5.18826 9.64049 6.65384 9.64049H9.91806V8.72226C9.91806 7.43979 10.957 6.40015 12.2402 6.40015H19.7598C21.043 6.40015 22.0819 7.43979 22.0819 8.72226V9.63982H25.3462C26.8117 9.64049 28 10.8287 28 12.2943ZM21.861 17.7904C21.861 14.5587 19.2317 11.9294 16 11.9294C12.769 11.9294 10.1397 14.5587 10.1397 17.7904C10.1397 21.0221 12.769 23.6514 16 23.6514C19.2317 23.6514 21.861 21.0221 21.861 17.7904Z" fill="#32D4FD"/>
<circle cx="15.9999" cy="17.6943" r="4.23529" fill="#32D4FD"/>
</svg>
