<svg width="32" height="32" viewBox="0 0 32 32" fill="none" xmlns="http://www.w3.org/2000/svg">
<path d="M9.09852 16C9.09852 15.0347 9.17394 14.0796 9.32051 13.1421H4.33044C4.1149 14.0594 4 15.0162 4 16C4 16.9837 4.1149 17.9406 4.33044 18.8579H9.32051C9.17394 17.9204 9.09852 16.9653 9.09852 16Z" fill="#32D4FD"/>
<path d="M20.8913 13.1421H11.1094C10.9464 14.0773 10.8613 15.0328 10.8613 16C10.8613 16.9671 10.9464 17.9226 11.1094 18.8579H20.8913C21.0543 17.9226 21.1394 16.9671 21.1394 16C21.1394 15.0328 21.0543 14.0773 20.8913 13.1421Z" fill="#32D4FD"/>
<path d="M18.4268 4C20.2733 6.11399 21.5969 8.62815 22.3055 11.3428H27.0985C25.5984 7.62999 22.3617 4.8283 18.4268 4Z" fill="#32D4FD"/>
<path d="M22.3055 20.6572C21.5969 23.3719 20.2733 25.886 18.4268 28C22.3617 27.1717 25.5984 24.37 27.0984 20.6572H22.3055Z" fill="#32D4FD"/>
<path d="M27.6698 18.8579C27.8852 17.9406 28.0002 16.9837 28.0002 16C28.0002 15.0162 27.8853 14.0594 27.6698 13.1421H22.6797C22.8263 14.0796 22.9017 15.0347 22.9017 16C22.9017 16.9653 22.8263 17.9204 22.6797 18.8579H27.6698Z" fill="#32D4FD"/>
<path d="M4.90234 11.3428H9.69533C10.4039 8.62815 11.7275 6.11405 13.574 4C9.63911 4.82836 6.40243 7.62999 4.90234 11.3428Z" fill="#32D4FD"/>
<path d="M11.5273 11.3429H20.4722C19.6605 8.56832 18.1285 6.04612 15.9998 4.04688C13.8712 6.04612 12.3392 8.56832 11.5273 11.3429Z" fill="#32D4FD"/>
<path d="M11.5273 20.6572C12.3392 23.4318 13.8712 25.954 15.9998 27.9533C18.1284 25.954 19.6604 23.4318 20.4722 20.6572H11.5273Z" fill="#32D4FD"/>
<path d="M13.574 28C11.7275 25.8861 10.4038 23.3719 9.69533 20.6572H4.90234C6.40243 24.37 9.63911 27.1717 13.574 28Z" fill="#32D4FD"/>
</svg>
