<svg width="32" height="32" viewBox="0 0 32 32" fill="none" xmlns="http://www.w3.org/2000/svg">
<mask id="mask0_2855_14418" style="mask-type:luminance" maskUnits="userSpaceOnUse" x="3" y="3" width="26" height="26">
<path d="M3 3H29V29H3V3Z" fill="white"/>
</mask>
<g mask="url(#mask0_2855_14418)">
<path d="M15.9995 6.0332C18.2745 6.0332 20.0079 7.87487 20.0079 10.0415C20.0079 12.3165 18.1662 14.0499 15.9995 14.0499C13.7245 14.0499 11.9912 12.2082 11.9912 10.0415C11.9912 7.76654 13.7245 6.0332 15.9995 6.0332Z" fill="#32D4FD"/>
<path d="M16 14.9165C13.2917 14.9165 11.125 12.7498 11.125 10.0415C11.125 7.33317 13.2917 5.1665 16 5.1665C18.7083 5.1665 20.875 7.33317 20.875 10.0415C20.875 12.7498 18.7083 14.9165 16 14.9165ZM16 6.7915C14.2667 6.7915 12.75 8.19984 12.75 10.0415C12.75 11.8832 14.1583 13.2915 16 13.2915C17.8417 13.2915 19.25 11.8832 19.25 10.0415C19.25 8.19984 17.7333 6.7915 16 6.7915Z" fill="#32D4FD"/>
<path d="M10.0425 17.9497C12.3175 17.9497 14.0508 19.7914 14.0508 21.958C14.0508 24.233 12.2092 25.9664 10.0425 25.9664C7.76751 25.9664 6.03418 24.1247 6.03418 21.958C6.03418 19.7914 7.76751 17.9497 10.0425 17.9497Z" fill="#32D4FD"/>
<path d="M10.042 26.833C7.33366 26.833 5.16699 24.6663 5.16699 21.958C5.16699 19.2497 7.33366 17.083 10.042 17.083C12.7503 17.083 14.917 19.2497 14.917 21.958C14.917 24.6663 12.642 26.833 10.042 26.833ZM10.042 18.708C8.30866 18.708 6.79199 20.1163 6.79199 21.958C6.79199 23.7997 8.20033 25.208 10.042 25.208C11.8837 25.208 13.292 23.7997 13.292 21.958C13.292 20.1163 11.7753 18.708 10.042 18.708Z" fill="#32D4FD"/>
<path d="M21.9585 17.9497C24.2335 17.9497 25.9669 19.7914 25.9669 21.958C25.9669 24.233 24.1252 25.9664 21.9585 25.9664C19.6835 25.9664 17.9502 24.1247 17.9502 21.958C17.9502 19.7914 19.7919 17.9497 21.9585 17.9497Z" fill="#32D4FD"/>
<path d="M21.958 26.833C19.2497 26.833 17.083 24.6663 17.083 21.958C17.083 19.2497 19.2497 17.083 21.958 17.083C24.6663 17.083 26.833 19.2497 26.833 21.958C26.833 24.6663 24.6663 26.833 21.958 26.833ZM21.958 18.708C20.2247 18.708 18.708 20.1163 18.708 21.958C18.708 23.7997 20.1163 25.208 21.958 25.208C23.7997 25.208 25.208 23.7997 25.208 21.958C25.208 20.1163 23.7997 18.708 21.958 18.708Z" fill="#32D4FD"/>
</g>
</svg>
