<svg width="100" height="100" viewBox="0 0 100 100" fill="none" xmlns="http://www.w3.org/2000/svg">
<g opacity="0.5">
<g opacity="0.5">
<rect x="11.25" y="18.5" width="4.5" height="4.5" rx="1" transform="rotate(-180 11.25 18.5)" fill="#079D94"/>
<rect x="18" y="18.5" width="4.5" height="4.5" rx="1" transform="rotate(-180 18 18.5)" fill="#079D94"/>
<rect x="24.75" y="18.5" width="4.5" height="4.5" rx="1" transform="rotate(-180 24.75 18.5)" fill="#079D94"/>
<rect x="31.5" y="18.5" width="4.5" height="4.5" rx="1" transform="rotate(-180 31.5 18.5)" fill="#079D94"/>
<rect x="38.25" y="18.5" width="4.5" height="4.5" rx="1" transform="rotate(-180 38.25 18.5)" fill="#079D94"/>
<rect x="45" y="18.5" width="4.5" height="4.5" rx="1" transform="rotate(-180 45 18.5)" fill="#079D94"/>
<rect x="51.75" y="18.5" width="4.5" height="4.5" rx="1" transform="rotate(-180 51.75 18.5)" fill="#079D94"/>
<rect x="58.5" y="18.5" width="4.5" height="4.5" rx="1" transform="rotate(-180 58.5 18.5)" fill="#079D94"/>
<rect x="65.25" y="18.5" width="4.5" height="4.5" rx="1" transform="rotate(-180 65.25 18.5)" fill="#079D94"/>
</g>
<rect x="11.25" y="25.25" width="4.5" height="4.5" rx="1" transform="rotate(-180 11.25 25.25)" fill="#079D94"/>
<rect x="18" y="25.25" width="4.5" height="4.5" rx="1" transform="rotate(-180 18 25.25)" fill="#079D94"/>
<rect x="24.75" y="25.25" width="4.5" height="4.5" rx="1" transform="rotate(-180 24.75 25.25)" fill="#079D94"/>
<rect x="31.5" y="25.25" width="4.5" height="4.5" rx="1" transform="rotate(-180 31.5 25.25)" fill="#079D94"/>
<rect x="38.2734" y="25.2269" width="4.5" height="4.5" rx="1" transform="rotate(-180 38.2734 25.2269)" fill="#079D94"/>
<rect x="45" y="25.25" width="4.5" height="4.5" rx="1" transform="rotate(-180 45 25.25)" fill="#079D94"/>
<rect x="51.75" y="25.25" width="4.5" height="4.5" rx="1" transform="rotate(-180 51.75 25.25)" fill="#079D94"/>
<rect x="58.5" y="25.25" width="4.5" height="4.5" rx="1" transform="rotate(-180 58.5 25.25)" fill="#079D94"/>
<rect x="65.25" y="25.25" width="4.5" height="4.5" rx="1" transform="rotate(-180 65.25 25.25)" fill="#079D94"/>
<rect x="11.25" y="32" width="4.5" height="4.5" rx="1" transform="rotate(-180 11.25 32)" fill="#079D94"/>
<rect x="18" y="32" width="4.5" height="4.5" rx="1" transform="rotate(-180 18 32)" fill="#079D94"/>
<rect x="24.75" y="32" width="4.5" height="4.5" rx="1" transform="rotate(-180 24.75 32)" fill="#079D94"/>
<rect x="31.5" y="32" width="4.5" height="4.5" rx="1" transform="rotate(-180 31.5 32)" fill="#079D94"/>
<rect x="38.25" y="32" width="4.5" height="4.5" rx="1" transform="rotate(-180 38.25 32)" fill="#079D94"/>
<rect x="45" y="32" width="4.5" height="4.5" rx="1" transform="rotate(-180 45 32)" fill="#079D94"/>
<rect x="51.75" y="32" width="4.5" height="4.5" rx="1" transform="rotate(-180 51.75 32)" fill="#079D94"/>
<rect x="58.5" y="32" width="4.5" height="4.5" rx="1" transform="rotate(-180 58.5 32)" fill="#079D94"/>
<rect x="65.25" y="32" width="4.5" height="4.5" rx="1" transform="rotate(-180 65.25 32)" fill="#079D94"/>
<rect x="11.25" y="38.75" width="4.5" height="4.5" rx="1" transform="rotate(-180 11.25 38.75)" fill="#079D94"/>
<rect x="18" y="38.75" width="4.5" height="4.5" rx="1" transform="rotate(-180 18 38.75)" fill="#079D94"/>
<rect x="24.75" y="38.75" width="4.5" height="4.5" rx="1" transform="rotate(-180 24.75 38.75)" fill="#079D94"/>
<rect x="31.5" y="38.75" width="4.5" height="4.5" rx="1" transform="rotate(-180 31.5 38.75)" fill="#079D94"/>
<rect x="38.25" y="38.75" width="4.5" height="4.5" rx="1" transform="rotate(-180 38.25 38.75)" fill="#079D94"/>
<rect x="45" y="38.75" width="4.5" height="4.5" rx="1" transform="rotate(-180 45 38.75)" fill="#079D94"/>
<rect x="51.75" y="38.75" width="4.5" height="4.5" rx="1" transform="rotate(-180 51.75 38.75)" fill="#079D94"/>
<rect x="58.5" y="38.75" width="4.5" height="4.5" rx="1" transform="rotate(-180 58.5 38.75)" fill="#079D94"/>
<rect x="65.25" y="38.75" width="4.5" height="4.5" rx="1" transform="rotate(-180 65.25 38.75)" fill="#079D94"/>
<rect x="11.25" y="45.5002" width="4.5" height="4.5" rx="1" transform="rotate(-180 11.25 45.5002)" fill="#079D94"/>
<rect x="18" y="45.5002" width="4.5" height="4.5" rx="1" transform="rotate(-180 18 45.5002)" fill="#079D94"/>
<rect x="24.75" y="45.5002" width="4.5" height="4.5" rx="1" transform="rotate(-180 24.75 45.5002)" fill="#079D94"/>
<rect x="31.5" y="45.5002" width="4.5" height="4.5" rx="1" transform="rotate(-180 31.5 45.5002)" fill="#079D94"/>
<rect x="38.25" y="45.5002" width="4.5" height="4.5" rx="1" transform="rotate(-180 38.25 45.5002)" fill="#079D94"/>
<rect x="45" y="45.5002" width="4.5" height="4.5" rx="1" transform="rotate(-180 45 45.5002)" fill="#079D94"/>
<rect x="51.75" y="45.5002" width="4.5" height="4.5" rx="1" transform="rotate(-180 51.75 45.5002)" fill="#079D94"/>
<rect x="58.5" y="45.5002" width="4.5" height="4.5" rx="1" transform="rotate(-180 58.5 45.5002)" fill="#079D94"/>
<rect x="65.25" y="45.5002" width="4.5" height="4.5" rx="1" transform="rotate(-180 65.25 45.5002)" fill="#079D94"/>
<rect x="11.25" y="52.2502" width="4.5" height="4.5" rx="1" transform="rotate(-180 11.25 52.2502)" fill="#079D94"/>
<rect x="18" y="52.2502" width="4.5" height="4.5" rx="1" transform="rotate(-180 18 52.2502)" fill="#079D94"/>
<rect x="24.75" y="52.2502" width="4.5" height="4.5" rx="1" transform="rotate(-180 24.75 52.2502)" fill="#079D94"/>
<rect x="31.5" y="52.2502" width="4.5" height="4.5" rx="1" transform="rotate(-180 31.5 52.2502)" fill="#079D94"/>
<rect x="38.25" y="52.2502" width="4.5" height="4.5" rx="1" transform="rotate(-180 38.25 52.2502)" fill="#079D94"/>
<rect x="45" y="52.2502" width="4.5" height="4.5" rx="1" transform="rotate(-180 45 52.2502)" fill="#079D94"/>
<rect x="51.75" y="52.2502" width="4.5" height="4.5" rx="1" transform="rotate(-180 51.75 52.2502)" fill="#079D94"/>
<rect x="58.5" y="52.2502" width="4.5" height="4.5" rx="1" transform="rotate(-180 58.5 52.2502)" fill="#079D94"/>
<rect x="65.25" y="52.2502" width="4.5" height="4.5" rx="1" transform="rotate(-180 65.25 52.2502)" fill="#079D94"/>
<rect x="11.25" y="59.0002" width="4.5" height="4.5" rx="1" transform="rotate(-180 11.25 59.0002)" fill="#079D94"/>
<rect x="18" y="59.0002" width="4.5" height="4.5" rx="1" transform="rotate(-180 18 59.0002)" fill="#079D94"/>
<rect x="24.75" y="59.0002" width="4.5" height="4.5" rx="1" transform="rotate(-180 24.75 59.0002)" fill="#079D94"/>
<rect x="31.5" y="59.0002" width="4.5" height="4.5" rx="1" transform="rotate(-180 31.5 59.0002)" fill="#079D94"/>
<rect x="38.25" y="59.0002" width="4.5" height="4.5" rx="1" transform="rotate(-180 38.25 59.0002)" fill="#079D94"/>
<rect x="45" y="59.0002" width="4.5" height="4.5" rx="1" transform="rotate(-180 45 59.0002)" fill="#079D94"/>
<rect x="51.75" y="59.0002" width="4.5" height="4.5" rx="1" transform="rotate(-180 51.75 59.0002)" fill="#079D94"/>
<rect x="58.5" y="59.0002" width="4.5" height="4.5" rx="1" transform="rotate(-180 58.5 59.0002)" fill="#079D94"/>
<rect x="65.25" y="59.0002" width="4.5" height="4.5" rx="1" transform="rotate(-180 65.25 59.0002)" fill="#079D94"/>
<rect x="11.25" y="65.7502" width="4.5" height="4.5" rx="1" transform="rotate(-180 11.25 65.7502)" fill="#079D94"/>
<rect x="18" y="65.7502" width="4.5" height="4.5" rx="1" transform="rotate(-180 18 65.7502)" fill="#079D94"/>
<rect x="24.75" y="65.7502" width="4.5" height="4.5" rx="1" transform="rotate(-180 24.75 65.7502)" fill="#079D94"/>
<rect x="31.5" y="65.7502" width="4.5" height="4.5" rx="1" transform="rotate(-180 31.5 65.7502)" fill="#079D94"/>
<rect x="38.25" y="65.7502" width="4.5" height="4.5" rx="1" transform="rotate(-180 38.25 65.7502)" fill="#079D94"/>
<rect x="45" y="65.7502" width="4.5" height="4.5" rx="1" transform="rotate(-180 45 65.7502)" fill="#079D94"/>
<rect x="51.75" y="65.7502" width="4.5" height="4.5" rx="1" transform="rotate(-180 51.75 65.7502)" fill="#079D94"/>
<rect x="58.5" y="65.7502" width="4.5" height="4.5" rx="1" transform="rotate(-180 58.5 65.7502)" fill="#079D94"/>
<rect x="65.25" y="65.7502" width="4.5" height="4.5" rx="1" transform="rotate(-180 65.25 65.7502)" fill="#079D94"/>
<rect x="11.25" y="72.5002" width="4.5" height="4.5" rx="1" transform="rotate(-180 11.25 72.5002)" fill="#079D94"/>
<rect x="18" y="72.5002" width="4.5" height="4.5" rx="1" transform="rotate(-180 18 72.5002)" fill="#079D94"/>
<rect x="24.75" y="72.5002" width="4.5" height="4.5" rx="1" transform="rotate(-180 24.75 72.5002)" fill="#079D94"/>
<rect x="31.5" y="72.5002" width="4.5" height="4.5" rx="1" transform="rotate(-180 31.5 72.5002)" fill="#079D94"/>
<rect x="38.25" y="72.5002" width="4.5" height="4.5" rx="1" transform="rotate(-180 38.25 72.5002)" fill="#079D94"/>
<rect x="45" y="72.5002" width="4.5" height="4.5" rx="1" transform="rotate(-180 45 72.5002)" fill="#079D94"/>
<rect x="51.75" y="72.5002" width="4.5" height="4.5" rx="1" transform="rotate(-180 51.75 72.5002)" fill="#079D94"/>
<rect x="58.5" y="72.5002" width="4.5" height="4.5" rx="1" transform="rotate(-180 58.5 72.5002)" fill="#079D94"/>
<rect x="65.25" y="72.5002" width="4.5" height="4.5" rx="1" transform="rotate(-180 65.25 72.5002)" fill="#079D94"/>
<g opacity="0.5">
<rect x="4.5" y="25.25" width="4.5" height="4.5" rx="1" transform="rotate(-180 4.5 25.25)" fill="#079D94"/>
<rect x="4.5" y="32" width="4.5" height="4.5" rx="1" transform="rotate(-180 4.5 32)" fill="#079D94"/>
<rect x="4.5" y="38.75" width="4.5" height="4.5" rx="1" transform="rotate(-180 4.5 38.75)" fill="#079D94"/>
<rect x="4.5" y="45.5" width="4.5" height="4.5" rx="1" transform="rotate(-180 4.5 45.5)" fill="#079D94"/>
<rect x="4.5" y="52.2498" width="4.5" height="4.5" rx="1" transform="rotate(-180 4.5 52.2498)" fill="#079D94"/>
<rect x="4.5" y="59" width="4.5" height="4.5" rx="1" transform="rotate(-180 4.5 59)" fill="#079D94"/>
<rect x="4.5" y="65.75" width="4.5" height="4.5" rx="1" transform="rotate(-180 4.5 65.75)" fill="#079D94"/>
<rect x="4.5" y="72.5" width="4.5" height="4.5" rx="1" transform="rotate(-180 4.5 72.5)" fill="#079D94"/>
<rect x="4.5" y="79.25" width="4.5" height="4.5" rx="1" transform="rotate(-180 4.5 79.25)" fill="#079D94"/>
</g>
<rect x="11.25" y="79.25" width="4.5" height="4.5" rx="1" transform="rotate(-180 11.25 79.25)" fill="#079D94"/>
<rect x="18" y="79.25" width="4.5" height="4.5" rx="1" transform="rotate(-180 18 79.25)" fill="#079D94"/>
<rect x="24.75" y="79.25" width="4.5" height="4.5" rx="1" transform="rotate(-180 24.75 79.25)" fill="#079D94"/>
<rect x="31.5" y="79.25" width="4.5" height="4.5" rx="1" transform="rotate(-180 31.5 79.25)" fill="#079D94"/>
<rect x="38.25" y="79.25" width="4.5" height="4.5" rx="1" transform="rotate(-180 38.25 79.25)" fill="#079D94"/>
<rect x="45" y="79.25" width="4.5" height="4.5" rx="1" transform="rotate(-180 45 79.25)" fill="#079D94"/>
<rect x="51.75" y="79.25" width="4.5" height="4.5" rx="1" transform="rotate(-180 51.75 79.25)" fill="#079D94"/>
<rect x="58.5" y="79.25" width="4.5" height="4.5" rx="1" transform="rotate(-180 58.5 79.25)" fill="#079D94"/>
<rect x="65.25" y="79.25" width="4.5" height="4.5" rx="1" transform="rotate(-180 65.25 79.25)" fill="#079D94"/>
<g opacity="0.5">
<rect x="72" y="25.2498" width="4.5" height="4.5" rx="1" transform="rotate(-180 72 25.2498)" fill="#079D94"/>
<rect x="72" y="31.9998" width="4.5" height="4.5" rx="1" transform="rotate(-180 72 31.9998)" fill="#079D94"/>
<rect x="72" y="38.7498" width="4.5" height="4.5" rx="1" transform="rotate(-180 72 38.7498)" fill="#079D94"/>
<rect x="72" y="45.4998" width="4.5" height="4.5" rx="1" transform="rotate(-180 72 45.4998)" fill="#079D94"/>
<rect x="72" y="52.2495" width="4.5" height="4.5" rx="1" transform="rotate(-180 72 52.2495)" fill="#079D94"/>
<rect x="72" y="58.9998" width="4.5" height="4.5" rx="1" transform="rotate(-180 72 58.9998)" fill="#079D94"/>
<rect x="72" y="65.7498" width="4.5" height="4.5" rx="1" transform="rotate(-180 72 65.7498)" fill="#079D94"/>
<rect x="72" y="72.4998" width="4.5" height="4.5" rx="1" transform="rotate(-180 72 72.4998)" fill="#079D94"/>
<rect x="72" y="79.2498" width="4.5" height="4.5" rx="1" transform="rotate(-180 72 79.2498)" fill="#079D94"/>
</g>
<g opacity="0.5">
<rect x="11.25" y="85.9998" width="4.5" height="4.5" rx="1" transform="rotate(-180 11.25 85.9998)" fill="#079D94"/>
<rect x="18" y="85.9998" width="4.5" height="4.5" rx="1" transform="rotate(-180 18 85.9998)" fill="#079D94"/>
<rect x="24.75" y="85.9998" width="4.5" height="4.5" rx="1" transform="rotate(-180 24.75 85.9998)" fill="#079D94"/>
<rect x="31.5" y="85.9998" width="4.5" height="4.5" rx="1" transform="rotate(-180 31.5 85.9998)" fill="#079D94"/>
<rect x="38.25" y="85.9998" width="4.5" height="4.5" rx="1" transform="rotate(-180 38.25 85.9998)" fill="#079D94"/>
<rect x="45" y="85.9998" width="4.5" height="4.5" rx="1" transform="rotate(-180 45 85.9998)" fill="#079D94"/>
<rect x="51.75" y="85.9998" width="4.5" height="4.5" rx="1" transform="rotate(-180 51.75 85.9998)" fill="#079D94"/>
<rect x="58.5" y="85.9998" width="4.5" height="4.5" rx="1" transform="rotate(-180 58.5 85.9998)" fill="#079D94"/>
<rect x="65.25" y="85.9998" width="4.5" height="4.5" rx="1" transform="rotate(-180 65.25 85.9998)" fill="#079D94"/>
</g>
</g>
<path d="M18 31C18 31.5523 17.5523 32 17 32L14.5 32C13.9477 32 13.5 31.5523 13.5 31L13.5 28.5C13.5 27.9477 13.9477 27.5 14.5 27.5L17 27.5C17.5523 27.5 18 27.9477 18 28.5L18 31Z" fill="#079D94"/>
<path d="M18 71.5002C18 72.0525 17.5523 72.5002 17 72.5002L14.5 72.5002C13.9477 72.5002 13.5 72.0525 13.5 71.5002L13.5 35.2503C13.5 34.698 13.9477 34.2503 14.5 34.2503L17 34.2503C17.5523 34.2503 18 34.698 18 35.2503L18 71.5002Z" fill="#079D94"/>
<path d="M24.75 51.25C24.75 51.8023 24.3023 52.25 23.75 52.25L21.25 52.25C20.6977 52.25 20.25 51.8023 20.25 51.25L20.25 28.5C20.25 27.9477 20.6977 27.5 21.25 27.5L23.75 27.5C24.3023 27.5 24.75 27.9477 24.75 28.5L24.75 51.25Z" fill="#079D94"/>
<path d="M38.25 71.5002C38.25 72.0525 37.8023 72.5002 37.25 72.5002L34.75 72.5002C34.1977 72.5002 33.75 72.0525 33.75 71.5002L33.75 28.5003C33.75 27.948 34.1977 27.5003 34.75 27.5003L37.25 27.5003C37.8023 27.5003 38.25 27.948 38.25 28.5003L38.25 71.5002Z" fill="#079D94"/>
<path d="M51.75 71.5002C51.75 72.0525 51.3023 72.5002 50.75 72.5002L48.25 72.5002C47.6977 72.5002 47.25 72.0525 47.25 71.5002L47.25 28.5003C47.25 27.948 47.6977 27.5003 48.25 27.5003L50.75 27.5003C51.3023 27.5003 51.75 27.948 51.75 28.5003L51.75 71.5002Z" fill="#079D94"/>
<path d="M31.5 44.5C31.5 45.0523 31.0523 45.5 30.5 45.5L28 45.5C27.4477 45.5 27 45.0523 27 44.5L27 28.5C27 27.9477 27.4477 27.5 28 27.5L30.5 27.5C31.0523 27.5 31.5 27.9477 31.5 28.5L31.5 44.5Z" fill="#079D94"/>
<path d="M24.834 71.3478C24.834 71.9001 24.3863 72.3478 23.834 72.3478L21.2663 72.3478C20.714 72.3478 20.2663 71.9001 20.2663 71.3478L20.2663 55.5846C20.2663 55.0323 20.714 54.5846 21.2663 54.5846L23.834 54.5846C24.3863 54.5846 24.834 55.0323 24.834 55.5846L24.834 71.3478Z" fill="#079D94"/>
<path d="M30.5 47.75C31.0523 47.75 31.5 48.1977 31.5 48.75L31.5 51.25C31.5 51.8023 31.0523 52.25 30.5 52.25L21.25 52.25C20.6977 52.25 20.25 51.8023 20.25 51.25L20.25 48.75C20.25 48.1977 20.6977 47.75 21.25 47.75L30.5 47.75Z" fill="#079D94"/>
<path d="M44 27.5C44.5523 27.5 45 27.9477 45 28.5L45 31C45 31.5523 44.5523 32 44 32L34.75 32C34.1977 32 33.75 31.5523 33.75 31L33.75 28.5C33.75 27.9477 34.1977 27.5 34.75 27.5L44 27.5Z" fill="#079D94"/>
<path d="M57.5 27.5C58.0523 27.5 58.5 27.9477 58.5 28.5L58.5 31C58.5 31.5523 58.0523 32 57.5 32L48.25 32C47.6977 32 47.25 31.5523 47.25 31L47.25 28.5C47.25 27.9477 47.6977 27.5 48.25 27.5L57.5 27.5Z" fill="#079D94"/>
<path d="M44 47.75C44.5523 47.75 45 48.1977 45 48.75L45 51.25C45 51.8023 44.5523 52.25 44 52.25L41.5 52.25C40.9477 52.25 40.5 51.8023 40.5 51.25L40.5 48.75C40.5 48.1977 40.9477 47.75 41.5 47.75L44 47.75Z" fill="#079D94"/>
<path d="M57.5 47.75C58.0523 47.75 58.5 48.1977 58.5 48.75L58.5 51.25C58.5 51.8023 58.0523 52.25 57.5 52.25L55 52.25C54.4477 52.25 54 51.8023 54 51.25L54 48.75C54 48.1977 54.4477 47.75 55 47.75L57.5 47.75Z" fill="#079D94"/>
<path d="M44 68C44.5523 68 45 68.4477 45 69L45 71.5C45 72.0523 44.5523 72.5 44 72.5L34.75 72.5C34.1977 72.5 33.75 72.0523 33.75 71.5L33.75 69C33.75 68.4477 34.1977 68 34.75 68L44 68Z" fill="#079D94"/>
<path d="M57.5 68C58.0523 68 58.5 68.4477 58.5 69L58.5 71.5C58.5 72.0523 58.0523 72.5 57.5 72.5L48.25 72.5C47.6977 72.5 47.25 72.0523 47.25 71.5L47.25 69C47.25 68.4477 47.6977 68 48.25 68L57.5 68Z" fill="#079D94"/>
<path d="M31.5 71.5002C31.5 72.0525 31.0523 72.5002 30.5 72.5002L28 72.5002C27.4477 72.5002 27 72.0525 27 71.5002L27 48.7502C27 48.198 27.4477 47.7502 28 47.7502L30.5 47.7502C31.0523 47.7502 31.5 48.198 31.5 48.7502L31.5 71.5002Z" fill="#079D94"/>
</svg>
