<svg width="175" height="46" viewBox="0 0 175 46" fill="none" xmlns="http://www.w3.org/2000/svg">
<g clip-path="url(#clip0_3170_14073)">
<path d="M25.062 14.9219C24.9419 13.754 24.3924 12.7139 23.5747 11.9626C22.6751 11.132 22.1844 9.94622 22.1844 8.72467V8.61989C22.1844 7.57722 22.5754 6.58567 23.2194 5.76278C23.6897 5.15967 23.9708 4.40067 23.9708 3.57522C23.9708 1.59978 22.3736 0.00255556 20.3981 0C18.4227 0.00255556 16.8254 1.59978 16.8254 3.57522C16.8254 4.40067 17.1066 5.15967 17.5768 5.76278C18.2208 6.58567 18.6118 7.57722 18.6118 8.61989V8.72467C18.6118 9.94622 18.1211 11.132 17.2216 11.9626C16.4038 12.7139 15.8543 13.754 15.7342 14.9219C15.7317 14.9423 15.7291 14.9602 15.7291 14.9807C15.7266 14.9883 15.7266 14.996 15.7266 15.0062C15.724 15.0113 15.724 15.0164 15.724 15.0241C15.7189 15.0701 15.7163 15.1161 15.7138 15.1647C15.7112 15.2464 15.7087 15.3257 15.7087 15.4074C15.7087 15.4611 15.7087 15.5148 15.7112 15.5684C15.7112 15.5787 15.7112 15.5889 15.7138 15.6017C15.7138 15.6298 15.7163 15.6579 15.7163 15.686C15.7189 15.6988 15.7189 15.709 15.7189 15.7192C15.7214 15.7729 15.7266 15.824 15.7317 15.8751C15.7317 15.8828 15.7342 15.8904 15.7342 15.8956C15.7521 16.0591 15.7777 16.2176 15.8134 16.376C15.8134 16.3811 15.816 16.3862 15.816 16.3913C15.8339 16.468 15.8492 16.5472 15.8697 16.6213C15.885 16.675 15.9003 16.7261 15.9157 16.7772C15.9233 16.8028 15.931 16.8283 15.9412 16.8513C15.9566 16.905 15.9744 16.9561 15.9949 17.0072C15.9974 17.02 16.0026 17.0302 16.0051 17.043C16.0102 17.0558 16.0128 17.066 16.0179 17.0788C16.0281 17.1018 16.0358 17.1222 16.046 17.1452C16.0588 17.1759 16.069 17.204 16.0818 17.2321C16.092 17.2551 16.0997 17.2807 16.1099 17.3037C16.1227 17.3318 16.1354 17.3573 16.1482 17.3854C16.1661 17.4314 16.1891 17.4774 16.2121 17.5234C16.2326 17.5643 16.253 17.6052 16.276 17.6436C16.2964 17.6819 16.3194 17.7228 16.3424 17.7611C16.3501 17.779 16.3603 17.7943 16.3706 17.8097C16.3731 17.8148 16.3782 17.8224 16.3808 17.8276C16.3808 17.8301 16.3808 17.8301 16.3808 17.8327C16.8408 18.6862 16.8587 19.7544 16.3373 20.6566C15.816 21.5612 14.8832 22.0774 13.9121 22.1081C13.9734 22.1107 14.0322 22.1132 14.091 22.1158C14.1498 22.1183 14.2086 22.1234 14.2673 22.1311C14.3798 22.1413 14.4922 22.1567 14.6047 22.1746C14.6813 22.1873 14.758 22.2027 14.8372 22.2206C14.9369 22.2436 15.0391 22.2691 15.1388 22.2972C15.195 22.3151 15.2512 22.3304 15.3074 22.3509C15.3637 22.3688 15.4199 22.3892 15.4761 22.4097C15.5298 22.4301 15.586 22.4531 15.6397 22.4761C15.9693 22.6116 16.2811 22.7879 16.5724 22.9974C17.0273 22.6729 17.426 22.2614 17.7454 21.7733C17.794 21.7018 17.84 21.6251 17.8834 21.551C17.9269 21.4743 17.9703 21.3977 18.0087 21.3184C18.2719 20.7971 18.4278 20.2477 18.4814 19.6906C18.4814 19.688 18.4814 19.688 18.4814 19.6854C18.484 19.6854 18.4866 19.688 18.4891 19.688C18.5044 19.5296 18.5121 19.3737 18.5121 19.2152C18.5121 19.1156 18.5096 19.0159 18.5019 18.9188C18.4968 18.8268 18.4891 18.7348 18.4763 18.6453C18.4763 18.6326 18.4738 18.6198 18.4712 18.607C18.461 18.5124 18.4457 18.4204 18.4278 18.3284C18.4124 18.2416 18.392 18.1572 18.3716 18.0729C18.3664 18.055 18.3639 18.0397 18.3588 18.0218C18.3358 17.9323 18.3102 17.8429 18.2796 17.7534C18.2489 17.6614 18.2157 17.5669 18.1799 17.4749C18.1441 17.3829 18.1032 17.2934 18.0623 17.204C18.0189 17.1146 17.9754 17.0251 17.9269 16.9382C17.9243 16.9306 17.9192 16.9254 17.9167 16.9178C17.9064 16.9024 17.8988 16.8846 17.8886 16.8667C17.8834 16.859 17.8783 16.8513 17.8758 16.8437C17.633 16.4194 17.495 15.9288 17.495 15.4074C17.495 14.5641 17.8528 13.8051 18.4252 13.2761C19.6928 12.1031 20.3981 10.4497 20.3981 8.72211C20.3981 7.99889 20.2908 7.27567 20.0659 6.59589C19.841 5.91356 19.4986 5.27467 19.0309 4.72267C18.7702 4.41089 18.6118 4.00967 18.6118 3.57267C18.6118 2.58367 19.4117 1.78633 20.3981 1.78633C21.3846 1.78633 22.1844 2.58367 22.1844 3.57267C22.1844 4.00967 22.026 4.41089 21.7653 4.72267C21.2977 5.27467 20.9552 5.91356 20.7303 6.59589C20.5054 7.27567 20.3981 7.99889 20.3981 8.72211C20.3981 10.4497 21.1034 12.1031 22.371 13.2761C22.9434 13.8051 23.3012 14.5641 23.3012 15.4074C23.3012 15.9288 23.1632 16.4194 22.9204 16.8437C22.9613 16.7747 23.0022 16.7082 23.0457 16.6443C23.0559 16.6264 23.0661 16.6086 23.0789 16.5932C23.1019 16.56 23.1249 16.5268 23.1504 16.4961C23.1939 16.4297 23.2424 16.3658 23.2961 16.3019C23.3089 16.2814 23.3242 16.2636 23.3396 16.2457C23.3804 16.1946 23.4239 16.1434 23.4699 16.0923C23.4724 16.0898 23.4776 16.0847 23.4801 16.0796C23.4827 16.0744 23.4878 16.0693 23.4929 16.0642C23.5006 16.0566 23.5082 16.0489 23.5159 16.0387C23.5184 16.0361 23.521 16.0336 23.5236 16.031C23.5466 16.0054 23.5696 15.9799 23.5951 15.9569C23.6104 15.939 23.6258 15.9211 23.6437 15.9032L23.6513 15.8956C23.6667 15.8777 23.682 15.8623 23.6973 15.8521C23.7076 15.8393 23.7229 15.824 23.7382 15.8138C23.751 15.7984 23.7638 15.7882 23.7766 15.7754C23.7893 15.7627 23.8021 15.7524 23.8149 15.7397C23.8353 15.7192 23.8558 15.7013 23.8762 15.686C23.8864 15.6783 23.8967 15.6681 23.9069 15.6579C23.9324 15.6374 23.9606 15.6144 23.9887 15.5914C24.0014 15.5761 24.0168 15.5659 24.0321 15.5531C24.0372 15.5506 24.0398 15.548 24.0449 15.5429C24.0653 15.525 24.0858 15.5097 24.1037 15.4969C24.1062 15.4943 24.1113 15.4918 24.1139 15.4892C24.1216 15.4816 24.1292 15.4739 24.1394 15.4688C24.1548 15.4534 24.1727 15.4432 24.188 15.433C24.2212 15.4049 24.2544 15.3819 24.2877 15.3614C24.3081 15.3436 24.3286 15.3308 24.349 15.318C24.3618 15.3078 24.372 15.3001 24.3848 15.295C24.464 15.2413 24.5458 15.1902 24.6301 15.1417C24.6914 15.1033 24.7579 15.0701 24.8218 15.0369C24.901 14.996 24.9802 14.9577 25.062 14.9219Z" fill="white"/>
<path d="M15.7317 14.9219C14.6609 14.4415 13.4854 14.398 12.4248 14.7303C11.2569 15.0931 9.98428 14.927 8.92628 14.3163L8.83428 14.2626C7.93217 13.7413 7.26772 12.9081 6.87672 11.937C6.5905 11.2291 6.07172 10.6056 5.35872 10.1916C3.65161 9.20515 1.46917 9.79037 0.480167 11.5C-0.506277 13.2123 0.0789451 15.3947 1.78861 16.3811C2.50417 16.7926 3.3015 16.9306 4.05795 16.8233C5.09295 16.6776 6.14583 16.8335 7.0505 17.3548L7.1425 17.4059C8.2005 18.0167 8.9825 19.0338 9.25083 20.2273C9.49361 21.3108 10.1197 22.3075 11.0704 22.9949C11.0857 23.0077 11.1011 23.0179 11.1189 23.0281C11.1241 23.0333 11.1317 23.0384 11.1394 23.0435C11.1419 23.0486 11.1471 23.0511 11.1547 23.0537C11.1931 23.0818 11.2314 23.1074 11.2723 23.1329C11.3413 23.1764 11.4103 23.2173 11.4793 23.2582C11.5253 23.2837 11.5713 23.3118 11.6198 23.3374C11.6275 23.3425 11.6377 23.3476 11.6505 23.3527C11.6761 23.3655 11.7016 23.3783 11.7246 23.3936C11.7374 23.3987 11.7451 23.4038 11.7553 23.4089C11.8038 23.4345 11.8498 23.4549 11.8958 23.4754C11.9035 23.4805 11.9112 23.4805 11.9137 23.483C12.0645 23.5495 12.2153 23.6057 12.3686 23.6543C12.3737 23.6568 12.3788 23.6568 12.3839 23.6594C12.4581 23.6824 12.5347 23.7079 12.6088 23.7284C12.6625 23.7411 12.7136 23.7539 12.7673 23.7667C12.7928 23.7718 12.8184 23.7795 12.8439 23.782C12.8976 23.7948 12.9513 23.805 13.0049 23.8127C13.0177 23.8178 13.0279 23.8178 13.0407 23.8229C13.0535 23.8255 13.0637 23.828 13.0791 23.8306C13.1046 23.8331 13.1251 23.8357 13.1506 23.8383C13.1838 23.8434 13.2119 23.8485 13.2426 23.851C13.2682 23.8536 13.2937 23.8587 13.3193 23.8613C13.3499 23.8638 13.3781 23.8664 13.4087 23.8689C13.4573 23.8766 13.5084 23.8791 13.5595 23.8817C13.6055 23.8843 13.6515 23.8868 13.6949 23.8868C13.7384 23.8894 13.7844 23.8894 13.8304 23.8868C13.8508 23.8894 13.8687 23.8868 13.8866 23.8868C13.8917 23.8868 13.9019 23.8868 13.9071 23.8868C13.9096 23.8894 13.9096 23.8894 13.9122 23.8894C14.8807 23.9175 15.8161 24.4363 16.3348 25.3384C16.8587 26.243 16.8383 27.3087 16.3783 28.1648C16.4115 28.1137 16.4422 28.0626 16.4754 28.014C16.5061 27.9655 16.5418 27.9169 16.5776 27.8684C16.6415 27.7764 16.7131 27.6869 16.7846 27.5975C16.8332 27.5387 16.8868 27.4799 16.9405 27.4186C17.0095 27.3445 17.0836 27.2678 17.1577 27.1963C17.2012 27.1554 17.2421 27.1145 17.2881 27.0761C17.3315 27.0353 17.3775 26.9969 17.4235 26.9586C17.4669 26.9228 17.5155 26.8845 17.5615 26.8513C17.8426 26.634 18.1518 26.4526 18.4789 26.3044C18.4253 25.7473 18.2694 25.1978 18.0062 24.6765C17.9678 24.5998 17.9244 24.5206 17.8835 24.4465C17.8401 24.3698 17.7941 24.2957 17.7455 24.2216C17.4261 23.7335 17.0274 23.3246 16.5725 22.9975C16.5699 22.9975 16.5699 22.9975 16.5674 22.9949C16.5674 22.9924 16.5725 22.9924 16.5725 22.9898C16.4422 22.8978 16.3118 22.8135 16.1738 22.7343C16.0869 22.6831 16.0001 22.6372 15.9132 22.5937C15.8314 22.5528 15.7471 22.5119 15.6627 22.4787C15.6525 22.471 15.6397 22.4685 15.6269 22.4634C15.5401 22.425 15.4532 22.3918 15.3637 22.3611C15.2819 22.3305 15.1976 22.3075 15.1133 22.2819C15.0954 22.2768 15.0801 22.2717 15.0622 22.2666C14.9727 22.241 14.8833 22.218 14.7913 22.2002C14.6967 22.1797 14.5971 22.1618 14.4999 22.1465C14.4028 22.1312 14.3057 22.1209 14.2061 22.1133C14.1064 22.1056 14.0067 22.0979 13.9071 22.0979C13.8994 22.0954 13.8917 22.0979 13.8841 22.0954C13.8662 22.0954 13.8457 22.0954 13.8278 22.0954C13.8176 22.0954 13.8099 22.0954 13.8023 22.0954C13.3142 22.0928 12.8184 21.9676 12.3686 21.7069C11.6377 21.2853 11.1598 20.5953 10.9886 19.8363C10.6053 18.1522 9.52683 16.7159 8.03183 15.8521C7.40572 15.4918 6.72595 15.2209 6.02572 15.0778C5.32295 14.9321 4.59717 14.9091 3.88672 15.0369C3.4855 15.1059 3.05872 15.0446 2.6805 14.8248C1.82439 14.3316 1.53306 13.2378 2.02628 12.3843C2.5195 11.5307 3.61072 11.2368 4.46683 11.73C4.84506 11.9473 5.11339 12.2871 5.25395 12.6679C5.49928 13.3477 5.88006 13.9636 6.35795 14.5003C6.83328 15.0344 7.40572 15.4893 8.03183 15.8521C9.52683 16.7159 11.3132 16.9306 12.9615 16.4195C13.7052 16.1895 14.5408 16.2585 15.2717 16.6801C15.7241 16.9408 16.0793 17.3063 16.3246 17.7279C16.2863 17.6589 16.2479 17.5899 16.2147 17.5209C16.2045 17.503 16.1943 17.4851 16.1866 17.4673C16.1687 17.4315 16.1508 17.3931 16.1381 17.3574C16.1023 17.2858 16.0716 17.2117 16.0435 17.135C16.0333 17.1146 16.0256 17.0916 16.0154 17.0686C15.9924 17.0073 15.9694 16.9434 15.9489 16.8795C15.9489 16.8769 15.9464 16.8693 15.9438 16.8641C15.9413 16.859 15.9387 16.8514 15.9362 16.8463C15.9336 16.836 15.9311 16.8258 15.9259 16.813C15.9259 16.8105 15.9234 16.8054 15.9234 16.8028C15.9132 16.7696 15.9029 16.7364 15.8953 16.7031C15.8876 16.6801 15.8799 16.6597 15.8723 16.6341L15.8697 16.6239C15.8621 16.6009 15.8569 16.5805 15.8544 16.5626C15.8493 16.5473 15.8416 16.5268 15.8416 16.5089C15.8339 16.491 15.8314 16.4731 15.8263 16.4578C15.8212 16.4399 15.8186 16.4246 15.8135 16.4067C15.8058 16.3786 15.8007 16.353 15.7982 16.3275C15.7956 16.3147 15.7931 16.3019 15.7879 16.2866C15.7828 16.2534 15.7777 16.2176 15.7726 16.1818C15.7649 16.1639 15.7649 16.1435 15.7598 16.1256C15.7598 16.1205 15.7598 16.1154 15.7573 16.1103C15.7522 16.0847 15.7496 16.0591 15.7471 16.0361C15.7471 16.0336 15.7471 16.0259 15.7445 16.0234C15.7419 16.0131 15.7394 16.0029 15.7394 15.9901C15.7343 15.9697 15.7343 15.9493 15.7317 15.9314C15.7241 15.8879 15.7215 15.847 15.7189 15.8087C15.7138 15.7831 15.7138 15.7576 15.7113 15.7346C15.7087 15.7193 15.7062 15.7065 15.7087 15.6911C15.7011 15.5966 15.6985 15.4995 15.6985 15.4024C15.6959 15.3308 15.7011 15.2567 15.7036 15.1851C15.7164 15.0983 15.7215 15.0114 15.7317 14.9219Z" fill="white"/>
<path d="M11.0679 23C10.1173 23.6874 9.49117 24.6841 9.24839 25.7677C8.98006 26.9611 8.19806 27.9808 7.14006 28.5916L7.04806 28.6452C6.14595 29.1666 5.0905 29.3224 4.0555 29.1768C3.29906 29.072 2.49917 29.2074 1.78617 29.6189C0.0765037 30.6053 -0.508719 32.7878 0.477726 34.5C1.46673 36.2097 3.64917 36.7949 5.35884 35.8059C6.07439 35.3944 6.59062 34.7709 6.87684 34.0604C7.26784 33.0919 7.92973 32.2562 8.83439 31.7349L8.92639 31.6812C9.98439 31.0704 11.2571 30.9018 12.4249 31.2672C13.4855 31.5994 14.6585 31.556 15.7318 31.0756C15.7497 31.0679 15.7676 31.0602 15.7855 31.05C15.7932 31.0474 15.8008 31.0449 15.8085 31.0398C15.8136 31.0398 15.8187 31.0372 15.8264 31.0321C15.8698 31.0142 15.9107 30.9938 15.9542 30.9708C16.0257 30.9324 16.0973 30.8941 16.1663 30.8532C16.2123 30.8277 16.2583 30.7996 16.3043 30.7714C16.3119 30.7663 16.3222 30.7612 16.3324 30.7536C16.3579 30.7408 16.381 30.7229 16.4039 30.7101C16.4142 30.7024 16.4218 30.6973 16.4321 30.6922C16.4781 30.6641 16.5189 30.6334 16.5598 30.6028C16.5675 30.5977 16.5726 30.5926 16.5752 30.59C16.7081 30.4929 16.8333 30.3907 16.9508 30.2808C16.9559 30.2782 16.9585 30.2731 16.9636 30.2706C17.0198 30.2169 17.0812 30.1632 17.1348 30.1096C17.1732 30.0687 17.209 30.0303 17.2473 29.992C17.2652 29.9716 17.2831 29.9537 17.2984 29.9332C17.3367 29.8923 17.3725 29.8514 17.4057 29.808C17.416 29.8003 17.4211 29.7901 17.4313 29.7824C17.4389 29.7722 17.4466 29.7646 17.4568 29.7543C17.4722 29.7339 17.485 29.716 17.5003 29.6956C17.5207 29.67 17.5386 29.647 17.5565 29.6214C17.5718 29.601 17.5897 29.5806 17.6051 29.5601C17.6229 29.5346 17.6383 29.5116 17.6562 29.486C17.6868 29.4477 17.715 29.4042 17.7431 29.3608C17.7686 29.3224 17.7942 29.2841 17.8146 29.2458C17.8376 29.21 17.8606 29.1691 17.8836 29.1282C17.8964 29.1129 17.9041 29.095 17.9117 29.0797C17.9143 29.0746 17.9194 29.0669 17.9219 29.0618C17.9245 29.0592 17.9245 29.0592 17.9271 29.0592C18.4356 28.2338 19.3531 27.6843 20.3932 27.6843C21.4384 27.6843 22.3507 28.2338 22.8618 29.0592C22.8337 29.0056 22.8056 28.9519 22.7801 28.9008C22.7519 28.8497 22.729 28.796 22.7059 28.7398C22.6574 28.6376 22.6165 28.5328 22.5756 28.4254C22.5475 28.3539 22.5245 28.2798 22.499 28.2006C22.4683 28.1034 22.4402 28.0012 22.4146 27.9016C22.4018 27.8428 22.3865 27.7866 22.3763 27.7278C22.3635 27.669 22.3533 27.6102 22.3431 27.5514C22.3328 27.4952 22.3252 27.4339 22.3201 27.3777C22.2715 27.025 22.2689 26.6672 22.3047 26.3094C21.7962 26.0769 21.2416 25.9389 20.6589 25.9057C20.5721 25.9006 20.4826 25.898 20.3983 25.898C20.3114 25.898 20.222 25.9006 20.1351 25.9057C19.5524 25.9389 18.9978 26.0769 18.4893 26.3094C18.4867 26.3094 18.4867 26.3094 18.4842 26.312C18.4842 26.3094 18.4842 26.3069 18.4816 26.3043C18.3359 26.3708 18.1979 26.4423 18.0599 26.5216C17.9731 26.5701 17.8887 26.6238 17.8095 26.6774C17.7328 26.7286 17.6562 26.7797 17.5846 26.8359C17.5744 26.8436 17.5642 26.8512 17.554 26.8589C17.4773 26.9151 17.4057 26.9739 17.3342 27.0352C17.2677 27.0914 17.2038 27.1528 17.1399 27.2116C17.1272 27.2243 17.1144 27.2346 17.1016 27.2473C17.0352 27.3112 16.9713 27.3777 16.9099 27.4492C16.8461 27.5208 16.7796 27.5974 16.7183 27.6741C16.6569 27.7508 16.6007 27.83 16.542 27.9118C16.4857 27.9936 16.4295 28.0753 16.3784 28.1622C16.3733 28.1673 16.3707 28.175 16.3656 28.1801C16.358 28.1954 16.3452 28.2133 16.3375 28.2287C16.3324 28.2363 16.3298 28.244 16.3247 28.2517C16.0794 28.6733 15.7216 29.0388 15.2718 29.2994C14.5409 29.7211 13.7053 29.7901 12.9616 29.5601C11.3133 29.049 9.52695 29.2637 8.03195 30.1274C7.40584 30.4878 6.83339 30.9427 6.35806 31.4793C5.88017 32.016 5.49684 32.6319 5.25406 33.3117C5.1135 33.6924 4.84517 34.0298 4.46695 34.2496C3.61084 34.7428 2.51961 34.4489 2.02639 33.5953C1.53317 32.7418 1.8245 31.6506 2.68061 31.1548C3.05884 30.9376 3.48562 30.8737 3.88684 30.9427C4.59984 31.0704 5.32306 31.05 6.02584 30.9018C6.72606 30.7561 7.40584 30.4878 8.03195 30.1274C9.52695 29.2637 10.6079 27.8274 10.9887 26.1433C11.1599 25.3843 11.6378 24.6943 12.3687 24.2727C12.8211 24.012 13.3143 23.8868 13.8024 23.8842C13.7232 23.8842 13.6439 23.8817 13.5673 23.8766C13.5468 23.8766 13.5264 23.8766 13.5059 23.874C13.4651 23.8714 13.4242 23.8663 13.3858 23.8612C13.3066 23.8561 13.2274 23.8459 13.1456 23.8331C13.1226 23.8331 13.0996 23.828 13.0741 23.8229C13.0102 23.8127 12.9437 23.7999 12.8773 23.7871C12.8747 23.7871 12.8671 23.7846 12.8619 23.7846C12.8568 23.7846 12.8492 23.782 12.8415 23.782C12.8313 23.7794 12.8211 23.7769 12.8083 23.7743C12.8057 23.7743 12.8006 23.7718 12.7981 23.7718C12.7648 23.7641 12.7316 23.7564 12.6984 23.7462C12.6754 23.7411 12.6524 23.7386 12.6268 23.7309L12.6166 23.7283C12.5936 23.7232 12.5732 23.7181 12.5553 23.7104C12.5399 23.7079 12.5169 23.7028 12.5016 23.6951C12.4812 23.6926 12.4658 23.6849 12.4479 23.6823C12.4301 23.6772 12.4147 23.6721 12.3968 23.667C12.3687 23.6593 12.3432 23.6517 12.3202 23.6414C12.3074 23.6363 12.2946 23.6338 12.2793 23.6287C12.2486 23.6159 12.2154 23.6031 12.1796 23.5903C12.1592 23.5878 12.1438 23.5776 12.1234 23.5724C12.1183 23.5699 12.1157 23.5673 12.1081 23.5673C12.0825 23.5597 12.0595 23.5494 12.0391 23.5392C12.0365 23.5392 12.0314 23.5341 12.0263 23.5341C12.0161 23.5316 12.0058 23.529 11.9956 23.5213C11.9752 23.5162 11.9573 23.506 11.9394 23.4983C11.8985 23.483 11.8627 23.4651 11.8269 23.4472C11.8014 23.4396 11.7809 23.4268 11.7579 23.4166C11.7426 23.4114 11.7298 23.4063 11.7196 23.3961C11.6327 23.3552 11.5484 23.3092 11.4641 23.2607C11.4002 23.2274 11.3388 23.1866 11.2775 23.1482C11.2136 23.1022 11.1395 23.0537 11.0679 23Z" fill="white"/>
<path d="M15.7344 31.078C15.8545 32.2459 16.4039 33.286 17.2217 34.0373C18.1213 34.8679 18.6119 36.0537 18.6119 37.2752V37.38C18.6119 38.4227 18.2209 39.4142 17.5769 40.2371C17.1067 40.8402 16.8256 41.5992 16.8256 42.4247C16.8256 44.4001 18.4228 45.9973 20.3983 45.9999C22.3737 45.9973 23.9709 44.4001 23.9709 42.4247C23.9709 41.5992 23.6898 40.8402 23.2196 40.2371C22.5756 39.4142 22.1846 38.4227 22.1846 37.38V37.2752C22.1846 36.0537 22.6753 34.8679 23.5748 34.0373C24.3926 33.286 24.942 32.2459 25.0622 31.078C25.0647 31.0576 25.0673 31.0397 25.0673 31.0192C25.0698 31.0116 25.0698 31.0039 25.0698 30.9937C25.0724 30.9886 25.0724 30.9834 25.0724 30.9758C25.0775 30.9298 25.08 30.8838 25.0826 30.8352C25.0852 30.7534 25.0877 30.6742 25.0877 30.5924C25.0877 30.5388 25.0877 30.4851 25.0852 30.4314C25.0852 30.4212 25.0852 30.411 25.0826 30.3982C25.0826 30.3701 25.08 30.342 25.08 30.3139C25.0775 30.3011 25.0775 30.2909 25.0775 30.2807C25.0749 30.227 25.0698 30.1759 25.0647 30.1248C25.0647 30.1171 25.0622 30.1094 25.0622 30.1043C25.0443 29.9408 25.0187 29.7823 24.9829 29.6239C24.9829 29.6188 24.9804 29.6137 24.9804 29.6086C24.9625 29.5319 24.9472 29.4527 24.9267 29.3786C24.9114 29.3249 24.896 29.2738 24.8807 29.2227C24.873 29.1971 24.8654 29.1716 24.8552 29.1486C24.8398 29.0949 24.8219 29.0438 24.8015 28.9927C24.7989 28.9799 24.7938 28.9697 24.7913 28.9569C24.7862 28.9441 24.7836 28.9339 24.7785 28.9211C24.7683 28.8981 24.7606 28.8777 24.7504 28.8547C24.7376 28.824 24.7274 28.7959 24.7146 28.7678C24.7044 28.7448 24.6967 28.7192 24.6865 28.6962C24.6737 28.6681 24.6609 28.6426 24.6482 28.6144C24.6303 28.5684 24.6073 28.5224 24.5843 28.4764C24.5638 28.4356 24.5434 28.3947 24.5204 28.3563C24.4999 28.318 24.4769 28.2771 24.4539 28.2388C24.4463 28.2209 24.436 28.2056 24.4258 28.1902C24.4233 28.1851 24.4182 28.1774 24.4156 28.1723C24.4156 28.1698 24.4156 28.1698 24.4156 28.1672C23.9556 27.3137 23.9377 26.2454 24.459 25.3433C24.9804 24.4387 25.9132 23.9224 26.8843 23.8918C26.8229 23.8892 26.7642 23.8867 26.7054 23.8841C26.6466 23.8816 26.5878 23.8764 26.529 23.8688C26.4166 23.8586 26.3042 23.8432 26.1917 23.8253C26.115 23.8126 26.0384 23.7972 25.9592 23.7793C25.8595 23.7563 25.7573 23.7308 25.6576 23.7027C25.6014 23.6848 25.5452 23.6694 25.4889 23.649C25.4327 23.6311 25.3765 23.6107 25.3203 23.5902C25.2666 23.5698 25.2104 23.5468 25.1567 23.5238C24.827 23.3883 24.5153 23.212 24.2239 23.0024C23.769 23.327 23.3704 23.7384 23.0509 24.2266C23.0024 24.2981 22.9564 24.3748 22.9129 24.4489C22.8695 24.5256 22.826 24.6022 22.7877 24.6814C22.5245 25.2028 22.3686 25.7522 22.3149 26.3093C22.3149 26.3119 22.3149 26.3119 22.3149 26.3144C22.3124 26.3144 22.3098 26.3119 22.3073 26.3119C22.2919 26.4703 22.2843 26.6262 22.2843 26.7847C22.2843 26.8843 22.2868 26.984 22.2945 27.0811C22.2996 27.1731 22.3073 27.2651 22.32 27.3546C22.32 27.3673 22.3226 27.3801 22.3252 27.3929C22.3354 27.4874 22.3507 27.5794 22.3686 27.6714C22.3839 27.7583 22.4044 27.8427 22.4248 27.927C22.4299 27.9449 22.4325 27.9602 22.4376 27.9781C22.4606 28.0676 22.4862 28.157 22.5168 28.2464C22.5475 28.3384 22.5807 28.433 22.6165 28.525C22.6523 28.617 22.6932 28.7064 22.734 28.7959C22.7775 28.8853 22.8209 28.9748 22.8695 29.0617C22.872 29.0693 22.8772 29.0744 22.8797 29.0821C22.8899 29.0974 22.8976 29.1153 22.9078 29.1307C22.9129 29.1383 22.918 29.146 22.9206 29.1537C23.1634 29.5779 23.3014 30.0686 23.3014 30.5899C23.3014 31.4332 22.9436 32.1922 22.3712 32.7212C21.1036 33.8942 20.3983 35.5477 20.3983 37.2752C20.3983 37.9984 20.5056 38.7217 20.7305 39.4014C20.9554 40.0838 21.2978 40.7227 21.7655 41.2747C22.0262 41.5864 22.1846 41.9877 22.1846 42.4247C22.1846 43.4137 21.3847 44.211 20.3983 44.211C19.4118 44.211 18.6119 43.4137 18.6119 42.4247C18.6119 41.9877 18.7704 41.5864 19.031 41.2747C19.4987 40.7227 19.8412 40.0838 20.066 39.4014C20.2909 38.7217 20.3983 37.9984 20.3983 37.2752C20.3983 35.5477 19.6929 33.8942 18.4254 32.7212C17.8529 32.1922 17.4952 31.4332 17.4952 30.5899C17.4952 30.0686 17.6332 29.5779 17.8759 29.1537C17.835 29.2227 17.7942 29.2891 17.7507 29.353C17.7405 29.3709 17.7303 29.3888 17.7175 29.4041C17.6945 29.4373 17.6715 29.4706 17.6459 29.5012C17.6025 29.5677 17.5539 29.6316 17.5003 29.6954C17.4875 29.7159 17.4722 29.7338 17.4568 29.7517C17.4159 29.8028 17.3725 29.8539 17.3265 29.905C17.3239 29.9076 17.3188 29.9127 17.3163 29.9178C17.3137 29.9229 17.3086 29.928 17.3035 29.9331C17.2958 29.9408 17.2882 29.9484 17.2805 29.9587C17.2779 29.9612 17.2754 29.9638 17.2728 29.9663C17.2498 29.9919 17.2268 30.0174 17.2013 30.0404C17.1859 30.0583 17.1706 30.0762 17.1527 30.0941L17.145 30.1018C17.1297 30.1197 17.1144 30.135 17.099 30.1452C17.0888 30.158 17.0735 30.1733 17.0582 30.1836C17.0454 30.1989 17.0326 30.2091 17.0198 30.2219C17.007 30.2347 16.9943 30.2449 16.9815 30.2577C16.961 30.2781 16.9406 30.296 16.9202 30.3113C16.9099 30.319 16.8997 30.3292 16.8895 30.3394C16.8639 30.3599 16.8358 30.3829 16.8077 30.4059C16.7949 30.4212 16.7796 30.4314 16.7643 30.4442C16.7592 30.4468 16.7566 30.4493 16.7515 30.4544C16.731 30.4723 16.7106 30.4877 16.6927 30.5004C16.6902 30.503 16.685 30.5056 16.6825 30.5081C16.6748 30.5158 16.6672 30.5234 16.6569 30.5286C16.6416 30.5439 16.6237 30.5541 16.6084 30.5643C16.5752 30.5924 16.5419 30.6154 16.5087 30.6359C16.4883 30.6538 16.4678 30.6666 16.4474 30.6793C16.4346 30.6896 16.4244 30.6972 16.4116 30.7023C16.3324 30.756 16.2506 30.8071 16.1663 30.8557C16.1049 30.894 16.0385 30.9272 15.9746 30.9604C15.8954 31.0039 15.8162 31.0422 15.7344 31.078Z" fill="white"/>
<path d="M25.0622 31.078C26.1329 31.5584 27.3085 31.6019 28.3691 31.2696C29.5369 30.9067 30.8096 31.0729 31.8676 31.6836L31.9571 31.7373C32.8592 32.2586 33.5236 33.0917 33.9146 34.0629C34.2008 34.7707 34.7196 35.3943 35.4326 35.8083C37.1423 36.7947 39.3247 36.2121 40.3137 34.5024C41.3002 32.7902 40.7149 30.6077 39.0053 29.6213C38.2897 29.2099 37.4924 29.0719 36.7359 29.1792C35.7009 29.3249 34.6481 29.169 33.7434 28.6476L33.6514 28.594C32.5934 27.9832 31.8114 26.9661 31.5431 25.7726C31.3003 24.6891 30.6742 23.6924 29.7235 23.005C29.7082 22.9922 29.6928 22.982 29.6749 22.9717C29.6698 22.9666 29.6622 22.9615 29.6545 22.9564C29.6519 22.9513 29.6468 22.9487 29.6392 22.9462C29.6008 22.9181 29.5625 22.8925 29.5216 22.867C29.4526 22.8235 29.3836 22.7826 29.3146 22.7417C29.2686 22.7162 29.2226 22.6881 29.1741 22.6625C29.1664 22.6574 29.1562 22.6523 29.1434 22.6472C29.1178 22.6344 29.0923 22.6216 29.0693 22.6063C29.0565 22.6012 29.0488 22.5961 29.0386 22.591C28.9901 22.5654 28.9441 22.545 28.8981 22.5245C28.8904 22.5194 28.8827 22.5194 28.8802 22.5169C28.7294 22.4504 28.5786 22.3942 28.4253 22.3456C28.4202 22.3431 28.4151 22.3431 28.4099 22.3405C28.3358 22.3175 28.2592 22.292 28.1851 22.2715C28.1314 22.2587 28.0803 22.246 28.0266 22.2332C28.0011 22.2281 27.9755 22.2204 27.9499 22.2179C27.8963 22.2051 27.8426 22.1949 27.7889 22.1872C27.7762 22.1821 27.7659 22.1821 27.7532 22.177C27.7404 22.1744 27.7302 22.1719 27.7148 22.1693C27.6893 22.1667 27.6688 22.1642 27.6433 22.1591C27.6101 22.154 27.5819 22.1489 27.5513 22.1463C27.5257 22.1437 27.5002 22.1386 27.4746 22.1361C27.4439 22.1335 27.4158 22.131 27.3852 22.1284C27.3366 22.1207 27.2855 22.1182 27.2344 22.1156C27.1884 22.1131 27.1424 22.1105 27.0989 22.1105C27.0555 22.108 27.0095 22.108 26.9635 22.1105C26.9431 22.108 26.9252 22.1105 26.9073 22.1105C26.9022 22.1105 26.8919 22.1105 26.8868 22.1105C26.8843 22.108 26.8843 22.108 26.8817 22.108C25.9132 22.0799 24.9778 21.5611 24.4591 20.659C23.9352 19.7543 23.9556 18.6886 24.4156 17.8325C24.3824 17.8836 24.3517 17.9347 24.3185 17.9833C24.2878 18.0319 24.2521 18.0804 24.2163 18.129C24.1524 18.221 24.0808 18.3104 24.0093 18.3999C23.9607 18.4586 23.9071 18.5174 23.8534 18.5787C23.7844 18.6529 23.7103 18.7295 23.6362 18.8011C23.5927 18.842 23.5518 18.8829 23.5058 18.9212C23.4624 18.9621 23.4164 19.0004 23.3704 19.0387C23.3269 19.0745 23.2784 19.1129 23.2324 19.1461C22.9513 19.3633 22.6421 19.5447 22.3149 19.693C22.3686 20.2501 22.5245 20.7995 22.7877 21.3209C22.8261 21.3975 22.8695 21.4767 22.9104 21.5509C22.9538 21.6275 22.9998 21.7016 23.0484 21.7757C23.3678 22.2639 23.7665 22.6727 24.2214 22.9999C24.2239 22.9999 24.2239 22.9999 24.2265 23.0024C24.2239 23.005 24.2214 23.005 24.2214 23.0075C24.3517 23.0995 24.4821 23.1839 24.6201 23.2631C24.7069 23.3142 24.7938 23.3602 24.8807 23.4036C24.9625 23.4445 25.0468 23.4854 25.1312 23.5186C25.1414 23.5263 25.1542 23.5289 25.1669 23.534C25.2538 23.5723 25.3407 23.6055 25.4302 23.6362C25.5119 23.6669 25.5963 23.6899 25.6806 23.7154C25.6985 23.7205 25.7138 23.7256 25.7317 23.7307C25.8212 23.7563 25.9106 23.7793 26.0026 23.7972C26.0972 23.8176 26.1968 23.8355 26.2939 23.8509C26.3911 23.8662 26.4882 23.8764 26.5878 23.8841C26.6875 23.8917 26.7872 23.8994 26.8868 23.8994C26.8945 23.902 26.9022 23.8994 26.9098 23.902C26.9277 23.902 26.9482 23.902 26.9661 23.902C26.9763 23.902 26.9839 23.902 26.9916 23.902C27.4797 23.9045 27.9755 24.0297 28.4253 24.2904C29.1562 24.7121 29.6341 25.4021 29.8053 26.1611C30.1886 27.8452 31.2671 29.2814 32.7621 30.1452C33.3882 30.5055 34.0679 30.7764 34.7682 30.9195C35.4709 31.0652 36.1967 31.0882 36.9072 30.9604C37.3084 30.8914 37.7352 30.9527 38.1134 31.1725C38.9695 31.6657 39.2608 32.7595 38.7676 33.6131C38.2744 34.4666 37.1832 34.7605 36.3271 34.2673C35.9488 34.0501 35.6805 33.7102 35.5399 33.3294C35.2946 32.6496 34.9138 32.0337 34.4359 31.4971C33.9606 30.963 33.3882 30.5081 32.7621 30.1452C31.2671 29.2814 29.4807 29.0667 27.8324 29.5779C27.0887 29.8079 26.2531 29.7389 25.5222 29.3172C25.0698 29.0565 24.7146 28.6911 24.4693 28.2694C24.5076 28.3384 24.5459 28.4074 24.5792 28.4764C24.5894 28.4943 24.5996 28.5122 24.6073 28.5301C24.6252 28.5659 24.6431 28.6042 24.6558 28.64C24.6916 28.7115 24.7223 28.7856 24.7504 28.8623C24.7606 28.8827 24.7683 28.9057 24.7785 28.9287C24.8015 28.9901 24.8245 29.054 24.8449 29.1179C24.8449 29.1204 24.8475 29.1281 24.8501 29.1332C24.8526 29.1383 24.8552 29.146 24.8577 29.1511C24.8603 29.1613 24.8628 29.1715 24.8679 29.1843C24.8679 29.1869 24.8705 29.192 24.8705 29.1945C24.8807 29.2277 24.8909 29.261 24.8986 29.2942C24.9063 29.3172 24.9139 29.3376 24.9216 29.3632L24.9242 29.3734C24.9318 29.3964 24.9369 29.4169 24.9395 29.4347C24.9446 29.4501 24.9523 29.4705 24.9523 29.4884C24.9599 29.5063 24.9625 29.5242 24.9676 29.5421C24.9727 29.56 24.9753 29.5753 24.9804 29.5932C24.9881 29.6213 24.9932 29.6469 24.9957 29.6724C24.9983 29.6852 25.0008 29.698 25.0059 29.7133C25.0111 29.7465 25.0162 29.7823 25.0213 29.8181C25.0289 29.836 25.0289 29.8564 25.0341 29.8743C25.0341 29.8794 25.0341 29.8845 25.0366 29.8896C25.0417 29.9152 25.0443 29.9407 25.0468 29.9637C25.0468 29.9663 25.0468 29.974 25.0494 29.9765C25.0519 29.9867 25.0545 29.997 25.0545 30.0097C25.0596 30.0302 25.0596 30.0506 25.0622 30.0685C25.0698 30.112 25.0724 30.1529 25.0749 30.1912C25.0801 30.2167 25.0801 30.2423 25.0826 30.2653C25.0852 30.2806 25.0877 30.2934 25.0852 30.3087C25.0928 30.4033 25.0954 30.5004 25.0954 30.5975C25.0979 30.6691 25.0928 30.7432 25.0903 30.8147C25.0775 30.9016 25.0724 30.9885 25.0622 31.078Z" fill="white"/>
<path d="M29.726 22.9998C30.6767 22.3123 31.3028 21.3156 31.5456 20.2321C31.8139 19.0386 32.5959 18.019 33.6539 17.4082L33.7459 17.3545C34.648 16.8332 35.7035 16.6773 36.7385 16.823C37.4949 16.9278 38.2948 16.7923 39.0078 16.3809C40.7175 15.3944 41.3027 13.212 40.3162 11.4998C39.3272 9.79009 37.1448 9.20487 35.4351 10.1939C34.7196 10.6053 34.2034 11.2289 33.9171 11.9393C33.5261 12.9079 32.8642 13.7435 31.9596 14.2649L31.8676 14.3185C30.8096 14.9293 29.5369 15.098 28.369 14.7325C27.3085 14.4003 26.1355 14.4438 25.0621 14.9242C25.0442 14.9319 25.0264 14.9395 25.0085 14.9498C25.0008 14.9523 24.9931 14.9549 24.9855 14.96C24.9804 14.96 24.9752 14.9625 24.9676 14.9676C24.9241 14.9855 24.8832 15.006 24.8398 15.029C24.7682 15.0673 24.6967 15.1056 24.6277 15.1465C24.5817 15.1721 24.5357 15.2002 24.4897 15.2283C24.482 15.2334 24.4718 15.2385 24.4616 15.2462C24.436 15.259 24.413 15.2769 24.39 15.2896C24.3798 15.2973 24.3721 15.3024 24.3619 15.3075C24.3159 15.3356 24.275 15.3663 24.2341 15.397C24.2265 15.4021 24.2214 15.4072 24.2188 15.4098C24.0859 15.5069 23.9607 15.6091 23.8431 15.719C23.838 15.7215 23.8355 15.7266 23.8304 15.7292C23.7741 15.7829 23.7128 15.8365 23.6591 15.8902C23.6208 15.9311 23.585 15.9694 23.5467 16.0078C23.5288 16.0282 23.5109 16.0461 23.4956 16.0665C23.4572 16.1074 23.4215 16.1483 23.3882 16.1918C23.378 16.1994 23.3729 16.2096 23.3627 16.2173C23.355 16.2275 23.3474 16.2352 23.3371 16.2454C23.3218 16.2659 23.309 16.2838 23.2937 16.3042C23.2732 16.3298 23.2554 16.3528 23.2375 16.3783C23.2221 16.3988 23.2042 16.4192 23.1889 16.4396C23.171 16.4652 23.1557 16.4882 23.1378 16.5138C23.1071 16.5521 23.079 16.5955 23.0509 16.639C23.0254 16.6773 22.9998 16.7156 22.9794 16.754C22.9564 16.7898 22.9334 16.8306 22.9104 16.8715C22.8976 16.8869 22.8899 16.9048 22.8822 16.9201C22.8797 16.9252 22.8746 16.9329 22.872 16.938C22.8695 16.9405 22.8695 16.9405 22.8669 16.9405C22.3584 17.766 21.4409 18.3154 20.4008 18.3154C19.3556 18.3154 18.4432 17.766 17.9321 16.9405C17.9602 16.9942 17.9884 17.0479 18.0139 17.099C18.042 17.1501 18.065 17.2038 18.088 17.26C18.1366 17.3622 18.1775 17.467 18.2184 17.5743C18.2465 17.6459 18.2695 17.72 18.295 17.7992C18.3257 17.8963 18.3538 17.9985 18.3794 18.0982C18.3921 18.157 18.4075 18.2132 18.4177 18.272C18.4305 18.3308 18.4407 18.3895 18.4509 18.4483C18.4611 18.5045 18.4688 18.5659 18.4765 18.6221C18.525 18.9748 18.5276 19.3325 18.4918 19.6903C19.0004 19.9229 19.5549 20.0609 20.1376 20.0941C20.2245 20.0992 20.3139 20.1018 20.3982 20.1018C20.4851 20.1018 20.5746 20.0992 20.6615 20.0941C21.2441 20.0609 21.7987 19.9229 22.3072 19.6903C22.3098 19.6903 22.3098 19.6903 22.3124 19.6878C22.3149 19.6903 22.3124 19.6929 22.3149 19.6954C22.4606 19.629 22.5986 19.5574 22.7366 19.4782C22.8235 19.4296 22.9078 19.376 22.987 19.3223C23.0637 19.2712 23.1404 19.2201 23.2119 19.1639C23.2221 19.1562 23.2324 19.1485 23.2426 19.1409C23.3192 19.0846 23.3908 19.0259 23.4624 18.9645C23.5288 18.9083 23.5927 18.847 23.6566 18.7882C23.6694 18.7754 23.6821 18.7652 23.6949 18.7524C23.7614 18.6885 23.8252 18.6221 23.8866 18.5505C23.9505 18.479 24.0169 18.4023 24.0782 18.3256C24.1396 18.249 24.1958 18.1698 24.2546 18.088C24.3108 18.0062 24.367 17.9244 24.4181 17.8375C24.4232 17.8324 24.4258 17.8248 24.4309 17.8196C24.4386 17.8043 24.4514 17.7864 24.459 17.7711C24.4641 17.7634 24.4667 17.7558 24.4718 17.7481C24.7171 17.3264 25.0749 16.961 25.5247 16.7003C26.2556 16.2786 27.0912 16.2096 27.8349 16.4396C29.4832 16.9508 31.2696 16.7361 32.7646 15.8723C33.3907 15.512 33.9631 15.0571 34.4385 14.5204C34.9164 13.9838 35.2997 13.3679 35.5425 12.6881C35.683 12.3073 35.9514 11.97 36.3296 11.7502C37.1857 11.257 38.2769 11.5509 38.7701 12.4044C39.2634 13.258 38.972 14.3492 38.1159 14.845C37.7377 15.0622 37.3109 15.1261 36.9097 15.0571C36.1967 14.9293 35.4735 14.9498 34.7707 15.098C34.0705 15.2436 33.3907 15.512 32.7646 15.8723C31.2696 16.7361 30.1886 18.1723 29.8078 19.8564C29.6366 20.6154 29.1587 21.3054 28.4278 21.7271C27.9755 21.9878 27.4822 22.113 26.9941 22.1155C27.0734 22.1155 27.1526 22.1181 27.2292 22.1232C27.2497 22.1232 27.2701 22.1232 27.2906 22.1258C27.3315 22.1283 27.3724 22.1334 27.4107 22.1385C27.4899 22.1436 27.5691 22.1539 27.6509 22.1666C27.6739 22.1666 27.6969 22.1718 27.7225 22.1769C27.7864 22.1871 27.8528 22.1999 27.9192 22.2126C27.9218 22.2126 27.9295 22.2152 27.9346 22.2152C27.9397 22.2152 27.9474 22.2178 27.955 22.2178C27.9652 22.2203 27.9755 22.2229 27.9882 22.2254C27.9908 22.2254 27.9959 22.228 27.9985 22.228C28.0317 22.2356 28.0649 22.2433 28.0981 22.2535C28.1211 22.2586 28.1441 22.2612 28.1697 22.2689L28.1799 22.2714C28.2029 22.2765 28.2234 22.2816 28.2412 22.2893C28.2566 22.2919 28.2796 22.297 28.2949 22.3046C28.3154 22.3072 28.3307 22.3149 28.3486 22.3174C28.3665 22.3225 28.3818 22.3276 28.3997 22.3328C28.4278 22.3404 28.4534 22.3481 28.4764 22.3583C28.4891 22.3634 28.5019 22.366 28.5172 22.3711C28.5479 22.3839 28.5811 22.3966 28.6169 22.4094C28.6374 22.412 28.6527 22.4222 28.6731 22.4273C28.6782 22.4299 28.6808 22.4324 28.6885 22.4324C28.714 22.4401 28.737 22.4503 28.7575 22.4605C28.76 22.4605 28.7651 22.4656 28.7702 22.4656C28.7805 22.4682 28.7907 22.4708 28.8009 22.4784C28.8214 22.4835 28.8392 22.4938 28.8571 22.5014C28.898 22.5168 28.9338 22.5346 28.9696 22.5525C28.9951 22.5602 29.0156 22.573 29.0386 22.5832C29.0539 22.5883 29.0667 22.5934 29.0769 22.6036C29.1638 22.6445 29.2481 22.6905 29.3325 22.7391C29.3964 22.7723 29.4577 22.8132 29.519 22.8515C29.5804 22.8975 29.6545 22.9461 29.726 22.9998Z" fill="white"/>
<path d="M2.02892 12.3945C2.52214 11.541 3.61336 11.2471 4.46948 11.7403C4.8477 11.9601 5.11603 12.2974 5.25659 12.6782C5.49936 13.3605 5.8827 13.9764 6.36059 14.5131C6.83848 15.0472 7.41092 15.5021 8.03703 15.8624C9.53203 16.7262 11.3158 16.9434 12.9667 16.4323C13.7104 16.1998 14.546 16.2688 15.2769 16.6904C15.7293 16.9511 16.0845 17.3165 16.3298 17.7408C16.2915 17.6692 16.2557 17.6002 16.2199 17.5312C16.2097 17.5133 16.1995 17.4954 16.1944 17.4775C16.1765 17.4418 16.1586 17.4034 16.1458 17.3676C16.11 17.2961 16.0768 17.222 16.0487 17.1428C16.0385 17.1223 16.0308 17.0993 16.0231 17.0763C15.9976 17.0175 15.9771 16.9536 15.9541 16.8872C15.9541 16.8846 15.9516 16.877 15.949 16.8719C15.9465 16.8667 15.9439 16.8616 15.9414 16.854C15.9388 16.8438 15.9363 16.8335 15.9311 16.8208C15.9311 16.8182 15.9286 16.8156 15.9286 16.8105C15.9184 16.7773 15.9081 16.7466 15.9005 16.7109C15.8928 16.6904 15.8851 16.6674 15.8775 16.6419L15.8749 16.6316C15.8673 16.6112 15.8621 16.5882 15.8596 16.5703C15.8545 16.555 15.8494 16.5345 15.8468 16.5166C15.8417 16.4987 15.8391 16.4809 15.834 16.463C15.8289 16.4476 15.8264 16.4298 15.8213 16.4119C15.8136 16.3838 15.8085 16.3582 15.8059 16.3326C15.8034 16.3199 15.8008 16.3071 15.7983 16.2918C15.7931 16.2611 15.7855 16.2253 15.7804 16.1895C15.7727 16.1691 15.7727 16.1512 15.7701 16.1308C15.7701 16.1256 15.7676 16.1231 15.7676 16.1154C15.7625 16.0899 15.7574 16.0643 15.7574 16.0413C15.7548 16.0388 15.7548 16.0311 15.7548 16.0285C15.7523 16.0183 15.7497 16.0081 15.7497 15.9953C15.7446 15.9749 15.7446 15.9544 15.742 15.9365C15.7344 15.8931 15.7318 15.8522 15.7318 15.8139C15.7267 15.7883 15.7241 15.7628 15.7241 15.7398C15.7216 15.7244 15.719 15.7116 15.7216 15.6963C15.7139 15.6018 15.7114 15.5046 15.7114 15.4075C15.7088 15.336 15.7139 15.2619 15.7165 15.1903C15.719 15.0983 15.7241 15.0114 15.7344 14.922C14.6636 14.4415 13.488 14.3981 12.4275 14.7303C11.2596 15.0958 9.98692 14.9271 8.92892 14.3163L8.83948 14.2626C7.93481 13.7413 7.27292 12.9082 6.88192 11.9396C6.5957 11.2292 6.07692 10.6082 5.36392 10.1942C3.64914 9.20775 1.46925 9.79042 0.480253 11.5001C0.424031 11.5972 0.375476 11.6943 0.332031 11.794L2.02892 12.3945Z" fill="white"/>
<path d="M24.0375 18.3616C23.9889 18.4229 23.9352 18.4843 23.8841 18.5405C23.8228 18.6121 23.7564 18.6785 23.6925 18.7424C23.6797 18.7577 23.6669 18.7654 23.6541 18.7807C23.5902 18.8395 23.5289 18.9008 23.4599 18.9571C23.3909 19.0184 23.3168 19.0772 23.2401 19.1334C23.2299 19.1411 23.2222 19.1513 23.2095 19.1564C23.1379 19.2126 23.0638 19.2663 22.9871 19.3148C22.9054 19.3711 22.821 19.4222 22.7341 19.4733C22.5961 19.5525 22.4581 19.6241 22.3125 19.6905V19.6803C22.3099 19.6828 22.3099 19.6828 22.3074 19.6828C21.7988 19.9154 21.2442 20.0559 20.6616 20.0892C20.5747 20.0943 20.4852 20.0968 20.3984 20.0968C20.3115 20.0968 20.222 20.0943 20.1351 20.0892C19.5525 20.0559 18.9979 19.9154 18.4894 19.6854C18.5251 19.3276 18.5226 18.9698 18.474 18.6146C18.4664 18.5584 18.4587 18.4971 18.451 18.4408C18.4408 18.3821 18.4306 18.3233 18.4178 18.2645C18.405 18.2057 18.3922 18.1495 18.3795 18.0933C18.3539 17.9911 18.3232 17.8914 18.2951 17.7917C18.2696 17.7151 18.244 17.6409 18.2185 17.5694C18.1776 17.4621 18.1341 17.3573 18.0881 17.2551C18.0651 17.1988 18.0396 17.1477 18.0115 17.0941C17.9859 17.0429 17.9578 16.9893 17.9297 16.9356C18.4408 17.7611 19.3557 18.3105 20.3984 18.3105C21.441 18.3105 22.3559 17.7611 22.867 16.9356C22.8696 16.9356 22.8696 16.9356 22.8696 16.9331C22.8747 16.9279 22.8772 16.9203 22.8798 16.9152C22.89 16.8998 22.8977 16.8819 22.9079 16.8666C22.9309 16.8283 22.9539 16.7874 22.9769 16.7516C22.9999 16.7107 23.0255 16.6724 23.0485 16.6341C23.0664 16.6111 23.0842 16.5855 23.1021 16.5625L24.0375 18.3616Z" fill="white"/>
<path d="M2.02635 33.6056C1.53312 32.752 1.82446 31.6608 2.68057 31.165C3.05879 30.9478 3.48557 30.8839 3.88679 30.9529C4.59979 31.0832 5.32301 31.0602 6.02835 30.9146C6.72857 30.7689 7.4109 30.5006 8.03446 30.1377C9.52946 29.2739 10.6105 27.8377 10.9938 26.1536C11.165 25.3946 11.6429 24.7046 12.3712 24.2829C12.8236 24.0222 13.3168 23.897 13.8075 23.897C13.7257 23.8944 13.649 23.8919 13.5723 23.8868C13.5519 23.8868 13.5315 23.8868 13.5136 23.8817C13.4727 23.8791 13.4318 23.8766 13.3935 23.8689C13.3142 23.8638 13.2325 23.8561 13.1507 23.8408C13.1277 23.8382 13.1047 23.8357 13.0791 23.8306C13.0152 23.8229 12.9488 23.8101 12.8798 23.7948C12.8772 23.7922 12.8696 23.7922 12.8645 23.7922C12.8593 23.7922 12.8542 23.7922 12.844 23.7897C12.8338 23.7871 12.8236 23.7846 12.8108 23.782C12.8082 23.782 12.8057 23.782 12.8006 23.7794C12.7673 23.7718 12.7341 23.7641 12.7009 23.7539C12.6805 23.7513 12.6549 23.7462 12.6293 23.7386L12.6191 23.736C12.5987 23.7334 12.5757 23.7258 12.5578 23.7181C12.5425 23.7156 12.522 23.7079 12.5041 23.7028C12.4862 23.6977 12.4683 23.6926 12.4505 23.6874C12.4351 23.6849 12.4172 23.6772 12.3993 23.6721C12.3712 23.6644 12.3457 23.6568 12.3227 23.6466C12.3099 23.6414 12.2971 23.6389 12.2843 23.6338C12.2562 23.6236 12.2205 23.6108 12.1872 23.598C12.1668 23.5954 12.1489 23.5852 12.131 23.5776C12.1259 23.575 12.1233 23.575 12.1157 23.5724C12.0901 23.5648 12.0671 23.5546 12.0467 23.5443C12.0441 23.5443 12.0365 23.5418 12.0339 23.5392C12.0237 23.5367 12.0135 23.5341 12.0032 23.5264C11.9828 23.5213 11.9649 23.5111 11.9496 23.5034C11.9087 23.4881 11.8703 23.4702 11.8371 23.4498C11.8116 23.4421 11.7886 23.4319 11.7681 23.4191C11.7528 23.414 11.74 23.4089 11.7298 23.3987C11.6429 23.3578 11.5586 23.3118 11.4742 23.2632C11.4103 23.23 11.349 23.1891 11.2877 23.1508C11.2085 23.1022 11.1369 23.0537 11.0653 23C10.1147 23.6874 9.48857 24.6841 9.24579 25.7677C8.97746 26.9611 8.19546 27.9782 7.13746 28.589L7.04546 28.6401C6.14079 29.164 5.09046 29.3199 4.05546 29.1742C3.29646 29.0669 2.49913 29.2049 1.78612 29.6163C0.0764581 30.6053 -0.51132 32.7878 0.475125 34.4974C0.531347 34.5946 0.590125 34.6866 0.656569 34.7734L2.02635 33.6056Z" fill="white"/>
<path d="M18.2003 17.5313C18.2284 17.6029 18.2566 17.6821 18.2796 17.7537C18.3102 17.8431 18.3358 17.9326 18.3588 18.0195C18.3664 18.0373 18.3664 18.0527 18.3716 18.0706C18.3894 18.1549 18.4124 18.2392 18.4278 18.3261C18.4457 18.4156 18.461 18.5101 18.4712 18.6047C18.4738 18.6175 18.4789 18.6302 18.4763 18.643C18.4891 18.7324 18.4993 18.8245 18.5019 18.9139C18.5096 19.0136 18.5121 19.1107 18.5121 19.2129C18.5121 19.3713 18.5044 19.5272 18.4891 19.6857L18.4814 19.6806C18.4814 19.6831 18.4814 19.6831 18.4814 19.6857C18.4278 20.2428 18.2719 20.7922 18.0112 21.3136C17.9729 21.3902 17.9294 21.4694 17.886 21.5461C17.8426 21.6202 17.7966 21.6969 17.748 21.771C17.4286 22.2591 17.0299 22.668 16.575 22.9951C16.2837 22.7856 15.9719 22.6092 15.6397 22.4738C15.586 22.4533 15.5298 22.4278 15.4787 22.4073C15.4224 22.3869 15.3662 22.3664 15.31 22.3486C15.2538 22.3307 15.1976 22.3128 15.1413 22.2949C15.0391 22.2668 14.9394 22.2438 14.8372 22.2182C14.758 22.2029 14.6813 22.1876 14.6072 22.1722C14.4948 22.1543 14.3823 22.139 14.2699 22.1288C14.2086 22.1211 14.1523 22.116 14.091 22.1135C14.0348 22.1109 13.9734 22.1083 13.9121 22.1058C14.8832 22.0751 15.816 21.5589 16.3373 20.6542C16.8587 19.7521 16.8408 18.6839 16.3808 17.8303C16.3808 17.8278 16.3808 17.8278 16.3808 17.8278C16.3782 17.8201 16.3731 17.815 16.3706 17.8099C16.3629 17.7946 16.3501 17.7767 16.3424 17.7613C16.322 17.723 16.2964 17.6821 16.2786 17.6438C16.2556 17.6029 16.2351 17.562 16.2121 17.5237C16.2019 17.4956 16.1891 17.4675 16.1763 17.4419L18.2003 17.5313Z" fill="white"/>
<path d="M20.3954 44.211C19.409 44.211 18.6091 43.4137 18.6091 42.4247C18.6091 41.9877 18.7676 41.5865 19.0282 41.2747C19.4984 40.7227 19.8383 40.0838 20.0658 39.4015C20.2881 38.7217 20.398 37.9985 20.3954 37.2753C20.3954 35.5477 19.6927 33.8968 18.4251 32.7212C17.8527 32.1948 17.4949 31.4358 17.4949 30.5925C17.4949 30.0711 17.6329 29.5805 17.8782 29.1562C17.8348 29.2253 17.7939 29.2917 17.7504 29.3556C17.7402 29.3735 17.73 29.3914 17.7172 29.4041C17.6942 29.4374 17.6712 29.4731 17.6457 29.5013C17.6022 29.5677 17.5537 29.6341 17.5 29.698C17.4872 29.7159 17.4719 29.7364 17.454 29.7543C17.4157 29.8054 17.3697 29.8565 17.3237 29.9076C17.3211 29.9101 17.316 29.9153 17.3134 29.9204C17.3109 29.9255 17.3083 29.9306 17.3007 29.9357C17.293 29.9434 17.2853 29.951 17.2777 29.9613C17.2751 29.9613 17.2751 29.9664 17.27 29.9689C17.247 29.9945 17.224 30.0175 17.1984 30.043C17.1857 30.0609 17.1678 30.0788 17.1499 30.0967L17.1422 30.1044C17.1294 30.1223 17.1116 30.1376 17.0962 30.1478C17.086 30.1606 17.0707 30.1734 17.0553 30.1861C17.0426 30.1989 17.0272 30.2117 17.0144 30.2245C17.0042 30.2373 16.9889 30.2475 16.9761 30.2603C16.9557 30.2807 16.9352 30.2986 16.9148 30.3139C16.9046 30.3216 16.8943 30.3318 16.8841 30.342C16.8611 30.3625 16.833 30.3855 16.8049 30.4085C16.7921 30.4264 16.7768 30.434 16.7589 30.4468C16.7538 30.4494 16.7538 30.4519 16.7461 30.457C16.7257 30.4749 16.7078 30.4903 16.6873 30.503C16.6873 30.5056 16.6797 30.5107 16.6771 30.5107C16.6694 30.5184 16.6618 30.526 16.6516 30.5311C16.6362 30.5465 16.6183 30.5567 16.6056 30.5669C16.5723 30.595 16.5366 30.618 16.5033 30.6359C16.4829 30.6538 16.4624 30.6691 16.442 30.6794C16.4292 30.6896 16.419 30.6973 16.4062 30.7024C16.327 30.756 16.2452 30.8071 16.1609 30.8557C16.0996 30.894 16.0331 30.9273 15.9692 30.9605C15.8874 31.0039 15.8108 31.0423 15.729 31.078C15.8491 32.2459 16.3986 33.286 17.2163 34.0374C18.1159 34.8654 18.6066 36.0511 18.6066 37.2727L18.604 37.3775C18.604 38.4227 18.2156 39.4117 17.5716 40.2346C17.0988 40.8377 16.8202 41.5967 16.8202 42.4221C16.8228 44.3976 18.4174 45.9974 20.3929 45.9974C20.5053 45.9974 20.6127 45.9923 20.7226 45.9795L20.3954 44.211Z" fill="white"/>
<path d="M14.5613 22.167C14.638 22.1772 14.7198 22.1951 14.7939 22.2104C14.8859 22.2283 14.9779 22.2513 15.0648 22.2743C15.0852 22.2769 15.098 22.2845 15.1159 22.2897C15.1977 22.3152 15.282 22.3382 15.3663 22.3689C15.4532 22.397 15.5427 22.4328 15.6295 22.4711C15.6423 22.4762 15.6551 22.4788 15.6653 22.4864C15.7497 22.5197 15.834 22.558 15.9132 22.5989C16.0027 22.6423 16.0895 22.6883 16.1764 22.7394C16.3144 22.8187 16.4448 22.903 16.5751 22.995L16.5674 23.0001C16.57 23.0001 16.57 23.0001 16.5725 23.0027C17.0274 23.3272 17.4261 23.7361 17.7481 24.2242C17.7967 24.2958 17.8427 24.3724 17.8861 24.4491C17.9295 24.5232 17.973 24.6024 18.0113 24.6817C18.2745 25.203 18.4304 25.7524 18.4841 26.3095C18.157 26.4578 17.8478 26.6392 17.5641 26.859C17.5181 26.8948 17.4695 26.9305 17.4261 26.9663C17.3801 27.0047 17.3341 27.043 17.2907 27.0839C17.2472 27.1248 17.2038 27.1631 17.1603 27.2014C17.0837 27.2755 17.0147 27.3522 16.9405 27.4263C16.8869 27.4877 16.8358 27.5464 16.7872 27.6027C16.7157 27.6921 16.6467 27.7815 16.5802 27.8735C16.5419 27.9221 16.5112 27.9681 16.478 28.0192C16.4473 28.0678 16.4141 28.1189 16.3809 28.17C16.8409 27.3139 16.8588 26.2482 16.3374 25.3461C15.8161 24.444 14.8833 23.9252 13.9122 23.8945C13.9122 23.892 13.9122 23.892 13.9097 23.8945C13.902 23.892 13.8943 23.8945 13.8892 23.8945C13.8713 23.8945 13.8509 23.8945 13.833 23.8945C13.7895 23.8945 13.741 23.8945 13.7001 23.892C13.6541 23.892 13.6081 23.8894 13.5621 23.8894C13.534 23.8843 13.5033 23.8818 13.4727 23.8792L14.5613 22.167Z" fill="white"/>
<path d="M38.7677 33.606C38.2745 34.4595 37.1832 34.7534 36.3271 34.2602C35.9489 34.0404 35.6806 33.7031 35.54 33.3223C35.2972 32.64 34.9139 32.0241 34.436 31.4874C33.9581 30.9533 33.3857 30.4984 32.7596 30.1381C31.2646 29.2743 29.4808 29.0571 27.8299 29.5682C27.0862 29.8008 26.2506 29.7318 25.5197 29.3101C25.0674 29.0494 24.7121 28.684 24.4668 28.2598C24.5051 28.3313 24.5409 28.4003 24.5767 28.4693C24.5869 28.4872 24.5971 28.5051 24.6022 28.523C24.6201 28.5588 24.638 28.5971 24.6508 28.6329C24.6866 28.7044 24.7198 28.7785 24.7479 28.8578C24.7581 28.8782 24.7658 28.9012 24.7735 28.9242C24.799 28.983 24.8195 29.0469 24.8425 29.1133C24.8425 29.1159 24.845 29.1235 24.8476 29.1287C24.8501 29.1338 24.8527 29.1389 24.8552 29.1465C24.8578 29.1568 24.8604 29.167 24.8655 29.1798C24.8655 29.1823 24.868 29.1849 24.868 29.19C24.8782 29.2232 24.8885 29.2539 24.8961 29.2897C24.9038 29.3101 24.9115 29.3331 24.9191 29.3587L24.9217 29.3689C24.9294 29.3893 24.9345 29.4123 24.937 29.4302C24.9421 29.4455 24.9472 29.466 24.9498 29.4839C24.9549 29.5018 24.9575 29.5197 24.9626 29.5375C24.9677 29.5529 24.9702 29.5708 24.9754 29.5887C24.983 29.6168 24.9881 29.6423 24.9907 29.6679C24.9932 29.6807 24.9958 29.6934 24.9984 29.7088C25.0035 29.7394 25.0111 29.7752 25.0162 29.811C25.0239 29.8314 25.0239 29.8493 25.0265 29.8698C25.0265 29.8749 25.029 29.8774 25.029 29.8851C25.0341 29.9107 25.0392 29.9362 25.0392 29.9592C25.0418 29.9618 25.0418 29.9694 25.0418 29.972C25.0444 29.9822 25.0469 29.9924 25.0469 30.0052C25.052 30.0257 25.052 30.0461 25.0546 30.064C25.0622 30.1074 25.0648 30.1483 25.0648 30.1867C25.0699 30.2122 25.0725 30.2378 25.0725 30.2608C25.075 30.2761 25.0776 30.2889 25.075 30.3042C25.0827 30.3988 25.0852 30.4959 25.0852 30.593C25.0878 30.6645 25.0827 30.7387 25.0801 30.8102C25.0776 30.9022 25.0725 30.9891 25.0622 31.0785C26.133 31.559 27.3086 31.6024 28.3691 31.2702C29.537 30.9048 30.8097 31.0734 31.8677 31.6842L31.9571 31.7379C32.8618 32.2592 33.5237 33.0923 33.9147 34.0609C34.2009 34.7713 34.7197 35.3923 35.4327 35.8063C37.1449 36.7928 39.3274 36.2101 40.3164 34.5004C40.3726 34.4033 40.4211 34.3062 40.4646 34.2065L38.7677 33.606Z" fill="white"/>
<path d="M16.7593 27.6385C16.8078 27.5772 16.8615 27.5159 16.9126 27.4597C16.9739 27.3881 17.0404 27.3217 17.1043 27.2578C17.1171 27.2424 17.1298 27.2348 17.1426 27.2194C17.2065 27.1607 17.2678 27.0993 17.3368 27.0431C17.4058 26.9818 17.4799 26.923 17.5566 26.8668C17.5668 26.8591 17.5745 26.8489 17.5873 26.8438C17.6588 26.7875 17.7329 26.7339 17.8096 26.6853C17.8914 26.6291 17.9757 26.578 18.0626 26.5269C18.2006 26.4477 18.3386 26.3761 18.4843 26.3097V26.3199C18.4868 26.3173 18.4868 26.3173 18.4894 26.3173C18.9979 26.0848 19.5525 25.9442 20.1352 25.911C20.2221 25.9059 20.3115 25.9033 20.3984 25.9033C20.4853 25.9033 20.5747 25.9059 20.6616 25.911C21.2443 25.9442 21.7988 26.0848 22.3074 26.3148C22.2716 26.6725 22.2742 27.0303 22.3227 27.3855C22.3304 27.4418 22.3381 27.5031 22.3457 27.5593C22.3559 27.6181 22.3662 27.6769 22.3789 27.7357C22.3917 27.7944 22.4045 27.8507 22.4173 27.9069C22.4428 28.0091 22.4735 28.1088 22.5016 28.2084C22.5272 28.2851 22.5527 28.3592 22.5783 28.4308C22.6192 28.5381 22.6626 28.6429 22.7086 28.7451C22.7316 28.8013 22.7572 28.8524 22.7853 28.9061C22.8108 28.9572 22.8389 29.0109 22.8671 29.0645C22.3559 28.2391 21.4411 27.6897 20.3984 27.6897C19.3557 27.6897 18.4408 28.2391 17.9297 29.0645C17.9272 29.0645 17.9272 29.0645 17.9272 29.0671C17.9221 29.0722 17.9195 29.0799 17.9169 29.085C17.9067 29.1003 17.8991 29.1182 17.8888 29.1335C17.8658 29.1719 17.8428 29.2128 17.8198 29.2485C17.7968 29.2894 17.7713 29.3278 17.7483 29.3661C17.7304 29.3891 17.7125 29.4147 17.6946 29.4377L16.7593 27.6385Z" fill="white"/>
<path d="M38.7674 12.3945C39.2607 13.248 38.9693 14.3392 38.1132 14.835C37.735 15.0522 37.3082 15.1161 36.907 15.0471C36.194 14.9168 35.4708 14.9398 34.7654 15.0855C34.0652 15.2311 33.3829 15.4995 32.7593 15.8623C31.2643 16.7261 30.1833 18.1623 29.8 19.8465C29.6288 20.6055 29.1509 21.2955 28.4226 21.7171C27.9702 21.9778 27.477 22.103 26.9863 22.103C27.0681 22.1056 27.1448 22.1081 27.224 22.1132C27.2444 22.1132 27.2649 22.1132 27.2828 22.1183C27.3237 22.1209 27.3646 22.1235 27.4029 22.1311C27.4821 22.1362 27.5639 22.1439 27.6457 22.1592C27.6687 22.1618 27.6917 22.1643 27.7147 22.1695C27.7786 22.1771 27.845 22.1899 27.914 22.2052C27.9166 22.2052 27.9242 22.2078 27.9293 22.2078C27.9344 22.2078 27.9396 22.2078 27.9498 22.2103C27.96 22.2129 27.9702 22.2155 27.983 22.218C27.9856 22.218 27.9881 22.218 27.9932 22.2206C28.0264 22.2282 28.0597 22.2359 28.0929 22.2461C28.1133 22.2487 28.1389 22.2538 28.1644 22.2615L28.1747 22.264C28.1951 22.2666 28.2181 22.2742 28.236 22.2819C28.2513 22.2845 28.2718 22.2921 28.2897 22.2972C28.3076 22.3023 28.3254 22.3075 28.3433 22.3126C28.3587 22.3151 28.3766 22.3228 28.3944 22.3279C28.4226 22.3356 28.4481 22.3432 28.4711 22.3535C28.4839 22.3586 28.4967 22.3611 28.5094 22.3662C28.5376 22.3764 28.5733 22.3892 28.6066 22.402C28.627 22.4046 28.6423 22.4148 28.6628 22.4225C28.6679 22.425 28.6704 22.425 28.6781 22.4276C28.7037 22.4352 28.7267 22.4455 28.7471 22.4557C28.7497 22.4557 28.7573 22.4582 28.7599 22.4608C28.7701 22.4633 28.7803 22.4659 28.7906 22.4736C28.811 22.4787 28.8289 22.4889 28.8442 22.4966C28.8851 22.5119 28.9234 22.5298 28.9567 22.5502C28.9822 22.5579 29.0052 22.5681 29.0257 22.5809C29.041 22.586 29.0538 22.5911 29.064 22.6013C29.1509 22.6422 29.2352 22.6882 29.3196 22.7368C29.3834 22.77 29.4448 22.8109 29.5061 22.8492C29.5853 22.8978 29.6569 22.9463 29.7284 23C30.6791 22.3126 31.3052 21.3159 31.548 20.2323C31.8163 19.0389 32.5983 18.0218 33.6563 17.411L33.7483 17.3599C34.653 16.836 35.7033 16.6801 36.7383 16.8258C37.4973 16.9331 38.2947 16.7951 39.0077 16.3837C40.7173 15.3947 41.3051 13.2122 40.3187 11.5026C40.2624 11.4055 40.2037 11.3135 40.1372 11.2266L38.7674 12.3945Z" fill="white"/>
<path d="M22.5935 28.4687C22.5654 28.3971 22.5373 28.3179 22.5143 28.2463C22.4836 28.1569 22.4581 28.0674 22.4351 27.9806C22.4274 27.9627 22.4274 27.9473 22.4223 27.9294C22.4044 27.8451 22.3814 27.7608 22.3661 27.6739C22.3482 27.5844 22.3328 27.4899 22.3226 27.3953C22.3201 27.3825 22.315 27.3698 22.3175 27.357C22.3047 27.2676 22.2945 27.1755 22.292 27.0861C22.2843 26.9864 22.2817 26.8893 22.2817 26.7871C22.2817 26.6287 22.2894 26.4728 22.3047 26.3143L22.3124 26.3194C22.3124 26.3169 22.3124 26.3169 22.3124 26.3143C22.3661 25.7572 22.522 25.2078 22.7826 24.6864C22.821 24.6098 22.8644 24.5306 22.9078 24.4539C22.9513 24.3798 22.9973 24.3031 23.0458 24.229C23.3653 23.7409 23.764 23.332 24.2188 23.0049C24.5102 23.2144 24.822 23.3908 25.1542 23.5262C25.2078 23.5467 25.2641 23.5722 25.3152 23.5927C25.3714 23.6131 25.4276 23.6336 25.4838 23.6514C25.5401 23.6693 25.5963 23.6872 25.6525 23.7051C25.7547 23.7332 25.8544 23.7562 25.9566 23.7818C26.0358 23.7971 26.1125 23.8124 26.1866 23.8278C26.2991 23.8457 26.4115 23.861 26.524 23.8712C26.5853 23.8789 26.6415 23.884 26.7028 23.8866C26.7591 23.8891 26.8204 23.8917 26.8817 23.8942C25.9106 23.9249 24.9778 24.4411 24.4565 25.3458C23.9352 26.2479 23.9531 27.3161 24.4131 28.1697C24.4131 28.1722 24.4131 28.1722 24.4131 28.1722C24.4156 28.1799 24.4207 28.185 24.4233 28.1901C24.431 28.2054 24.4437 28.2233 24.4514 28.2387C24.4718 28.277 24.4974 28.3179 24.5153 28.3562C24.5383 28.3971 24.5587 28.438 24.5817 28.4763C24.592 28.5044 24.6073 28.5326 24.6175 28.5581L22.5935 28.4687Z" fill="white"/>
<path d="M20.398 1.78889C21.3845 1.78889 22.1844 2.58622 22.1844 3.57522C22.1844 4.01222 22.0259 4.41344 21.7652 4.72522C21.295 5.27722 20.9551 5.91611 20.7277 6.59844C20.5054 7.27822 20.3955 8.00144 20.398 8.72467C20.398 10.4522 21.1008 12.1031 22.3684 13.2787C22.9408 13.8051 23.2986 14.5641 23.3011 15.4074C23.3011 15.9288 23.1631 16.4194 22.9178 16.8437C22.9612 16.7747 23.0021 16.7082 23.0456 16.6443C23.0558 16.6264 23.066 16.6086 23.0788 16.5958C23.1018 16.5626 23.1248 16.5268 23.1504 16.4987C23.1938 16.4322 23.2424 16.3658 23.296 16.3019C23.3088 16.284 23.3241 16.2636 23.342 16.2457C23.3804 16.1946 23.4264 16.1434 23.4724 16.0923C23.4749 16.0898 23.48 16.0847 23.4826 16.0796C23.4851 16.0744 23.4877 16.0693 23.4954 16.0642C23.503 16.0566 23.5107 16.0489 23.5184 16.0387C23.5209 16.0361 23.5209 16.0336 23.526 16.031C23.549 16.0054 23.572 15.9824 23.5976 15.9569C23.6104 15.939 23.6282 15.9211 23.6461 15.9032L23.6538 15.8956C23.6666 15.8777 23.6845 15.8623 23.6998 15.8521C23.71 15.8393 23.7254 15.8266 23.7407 15.8138C23.7535 15.801 23.7688 15.7882 23.7816 15.7754C23.7918 15.7627 23.8071 15.7524 23.8199 15.7397C23.8404 15.7192 23.8608 15.7013 23.8812 15.686C23.8915 15.6783 23.9017 15.6681 23.9119 15.6579C23.9349 15.6374 23.963 15.6144 23.9911 15.5914C24.0039 15.5736 24.0192 15.5659 24.0371 15.5531C24.0422 15.5506 24.0422 15.548 24.0499 15.5429C24.0704 15.525 24.0882 15.5097 24.1087 15.4969C24.1087 15.4943 24.1164 15.4892 24.1189 15.4892C24.1266 15.4816 24.1342 15.4739 24.1445 15.4688C24.1598 15.4534 24.1777 15.4432 24.1905 15.433C24.2237 15.4049 24.2595 15.3819 24.2927 15.364C24.3131 15.3461 24.3336 15.3308 24.354 15.3206C24.3668 15.3103 24.377 15.3027 24.3898 15.2976C24.469 15.2439 24.5508 15.1928 24.6351 15.1442C24.6965 15.1059 24.7629 15.0727 24.8268 15.0394C24.9086 14.996 24.9852 14.9577 25.067 14.9219C24.9469 13.754 24.3975 12.7139 23.5797 11.9626C22.6801 11.1346 22.1895 9.94878 22.1895 8.72722L22.192 8.62245C22.192 7.57722 22.5805 6.58822 23.2245 5.76533C23.6972 5.16222 23.9758 4.40322 23.9758 3.57778C23.9681 1.59978 22.3735 0.00255556 20.398 0C20.2856 0 20.1782 0.00511111 20.0684 0.0178889L20.398 1.78889Z" fill="white"/>
<path d="M26.2323 23.8331C26.1557 23.8229 26.0739 23.805 25.9998 23.7896C25.9078 23.7717 25.8158 23.7487 25.7289 23.7257C25.7085 23.7232 25.6957 23.7155 25.6778 23.7104C25.596 23.6849 25.5117 23.6619 25.4273 23.6312C25.3405 23.6031 25.251 23.5673 25.1641 23.529C25.1513 23.5239 25.1386 23.5213 25.1283 23.5136C25.044 23.4804 24.9597 23.4421 24.8805 23.4012C24.791 23.3577 24.7041 23.3117 24.6172 23.2606C24.4792 23.1814 24.3489 23.0971 24.2186 23.0051L24.2262 23C24.2237 23 24.2237 23 24.2211 22.9974C23.7662 22.6729 23.3676 22.264 23.0456 21.7759C22.997 21.7043 22.951 21.6276 22.9076 21.551C22.8641 21.4769 22.8207 21.3976 22.7823 21.3184C22.5191 20.7971 22.3632 20.2476 22.3096 19.6905C22.6367 19.5423 22.9459 19.3609 23.2296 19.1411C23.2756 19.1053 23.3241 19.0695 23.3676 19.0337C23.4136 18.9954 23.4596 18.9571 23.503 18.9162C23.5465 18.8753 23.5899 18.837 23.6333 18.7986C23.71 18.7245 23.779 18.6479 23.8531 18.5737C23.9068 18.5124 23.9579 18.4536 24.0065 18.3974C24.078 18.308 24.147 18.2185 24.2135 18.1265C24.2518 18.078 24.2825 18.032 24.3157 17.9809C24.3463 17.9323 24.3796 17.8812 24.4128 17.8301C23.9528 18.6862 23.9349 19.7519 24.4562 20.654C24.9776 21.5561 25.9103 22.0749 26.8815 22.1055C26.8815 22.1081 26.8815 22.1081 26.884 22.1055C26.8917 22.1081 26.8993 22.1055 26.9045 22.1055C26.9223 22.1055 26.9428 22.1055 26.9607 22.1055C27.0041 22.1055 27.0527 22.1055 27.0936 22.1081C27.1396 22.1081 27.1856 22.1106 27.2316 22.1106C27.2597 22.1157 27.2903 22.1183 27.321 22.1209L26.2323 23.8331Z" fill="white"/>
<path d="M10.4417 5.75769C11.8293 4.95524 13.6054 5.43058 14.4079 6.8208C15.2103 8.20847 14.735 9.98458 13.3448 10.787C11.9571 11.5895 10.181 11.1141 9.37855 9.72391C8.57866 8.33369 9.054 6.56013 10.4417 5.75769Z" fill="white"/>
<path d="M3.38846 25.9029C4.99181 25.9029 6.29157 24.6031 6.29157 22.9998C6.29157 21.3964 4.99181 20.0967 3.38846 20.0967C1.78512 20.0967 0.485352 21.3964 0.485352 22.9998C0.485352 24.6031 1.78512 25.9029 3.38846 25.9029Z" fill="white"/>
<path d="M14.6854 38.527C15.1248 36.9851 14.2309 35.379 12.689 34.9396C11.147 34.5003 9.54092 35.3942 9.1016 36.9361C8.66229 38.478 9.55614 40.0842 11.0981 40.5235C12.64 40.9628 14.2461 40.0689 14.6854 38.527Z" fill="white"/>
<path d="M30.3523 40.2421C28.9647 41.0445 27.1886 40.5692 26.3861 39.179C25.5837 37.7913 26.059 36.0152 27.4492 35.2128C28.8369 34.4103 30.613 34.8857 31.4154 36.2759C32.2153 37.6661 31.74 39.4422 30.3523 40.2421Z" fill="white"/>
<path d="M37.4056 25.9029C39.0089 25.9029 40.3087 24.6031 40.3087 22.9998C40.3087 21.3964 39.0089 20.0967 37.4056 20.0967C35.8022 20.0967 34.5024 21.3964 34.5024 22.9998C34.5024 24.6031 35.8022 25.9029 37.4056 25.9029Z" fill="white"/>
<path d="M30.3521 5.75769C31.7398 6.56013 32.2151 8.33369 31.4152 9.72391C30.6128 11.1116 28.8392 11.5869 27.449 10.787C26.0613 9.98458 25.586 8.21102 26.3859 6.8208C27.1883 5.43058 28.9644 4.95524 30.3521 5.75769Z" fill="white"/>
<path d="M174.442 3.83301V22.0541C174.442 24.303 172.237 25.4096 170.519 24.7937H170.008C170.292 24.7937 170.519 24.5637 170.519 24.2826V6.73612C170.519 5.13123 171.82 3.83301 173.423 3.83301H174.442Z" fill="white"/>
<path fill-rule="evenodd" clip-rule="evenodd" d="M160.895 18.9492C161.33 20.9093 159.623 22.6164 157.663 22.182C156.676 21.9622 155.879 21.1649 155.659 20.1784C155.225 18.2183 156.934 16.5112 158.892 16.9457C159.881 17.1654 160.678 17.9628 160.895 18.9492Z" fill="white"/>
<path d="M157.788 9.41444C157.788 9.41444 158.304 8.23888 158.552 7.67666C159.173 6.26088 161.174 6.25066 161.813 7.65621L160.862 5.56321C160.468 4.69944 159.694 4.04266 158.759 3.87655C157.468 3.6491 156.224 4.33144 155.7 5.48655L146.035 26.8305H148.232C149.382 26.8305 150.425 26.1508 150.89 25.0953L157.788 9.41444Z" fill="white"/>
<path d="M174.445 22.0542V22.9103C174.445 23.9939 174.005 24.9752 173.295 25.6831C172.587 26.3935 171.605 26.8331 170.522 26.8331V26.8305C167.997 26.8305 165.712 25.3407 164.695 23.0279L158.715 9.43232C158.536 9.0311 157.974 9.02599 157.788 9.41443C158.048 8.82154 158.304 8.23887 158.552 7.67665C159.173 6.26087 161.174 6.25065 161.813 7.65621L165.638 16.0793L167.085 19.2635L168.897 23.2553C168.902 23.2681 168.907 23.2809 168.914 23.2911C169.277 24.0654 169.863 24.5561 170.522 24.7938C172.239 25.4096 174.445 24.3031 174.445 22.0542Z" fill="white"/>
<path d="M100.331 21.3693V26.8331H101.348C102.95 26.8331 104.251 25.5323 104.251 23.93V19.583H102.117C101.131 19.583 100.331 20.3829 100.331 21.3693Z" fill="white"/>
<path d="M106.017 3.83301H103.234C101.632 3.83301 100.331 5.13379 100.331 6.73612V7.34179V11.7092H101.328C102.93 11.7092 104.231 10.4085 104.231 8.80612V7.34179V5.61934C104.231 4.6329 105.031 3.83301 106.017 3.83301Z" fill="white"/>
<path d="M116.421 5.98734C114.706 4.55879 112.337 3.83301 109.38 3.83301H106.015C105.028 3.83301 104.228 4.6329 104.228 5.61934V7.34179H109.283C111.2 7.34179 112.675 7.74812 113.661 8.54545C114.637 9.33767 115.113 10.1989 115.113 11.7067C115.113 13.2119 114.637 14.0757 113.661 14.8653C112.675 15.6652 111.2 16.069 109.283 16.069H103.232C101.629 16.069 100.329 17.3698 100.329 18.9721V21.3641C100.329 20.3777 101.128 19.5778 102.115 19.5778H109.38C112.337 19.5778 114.706 18.852 116.421 17.4235C118.154 15.9796 119.035 14.2239 119.035 11.7041C119.035 9.18945 118.156 7.43123 116.421 5.98734Z" fill="white"/>
<path d="M60.95 20.5029C60.7711 20.9092 60.1935 20.9092 60.0146 20.5003L60.8682 22.4451C61.4918 23.8711 63.5158 23.8711 64.1393 22.4451L72.3018 3.83301H70.2036C69.0536 3.83301 68.0135 4.51023 67.5484 5.56312L60.95 20.5029Z" fill="white"/>
<path d="M60.8655 22.4477L60.0119 20.5029L53.4697 5.57079C53.0072 4.51534 51.9645 3.83301 50.8119 3.83301H48.4634L57.8193 25.0952C58.2026 25.9667 58.9795 26.6286 59.9199 26.7896C61.2054 27.0093 62.4397 26.3219 62.9457 25.1668L64.1392 22.4477C63.513 23.8737 61.4916 23.8737 60.8655 22.4477Z" fill="white"/>
<path d="M81.4504 8.73436L78.1946 4.68892C77.8011 4.20081 77.2261 3.86859 76.6 3.83792C75.3682 3.77403 74.3511 4.75281 74.3511 5.96925V26.8328H75.3707C76.9731 26.8328 78.2739 25.532 78.2739 23.9297V10.9168V9.8537C78.2739 8.16959 80.395 7.42081 81.4504 8.73436Z" fill="white"/>
<path d="M91.0569 20.6741L90.3133 19.7515L81.4506 8.73706C80.3926 7.4235 78.2715 8.17228 78.2715 9.85639V10.9195L90.4359 26.0382C90.8397 26.5416 91.453 26.8355 92.0996 26.8355C93.2777 26.8355 94.2335 25.8797 94.2335 24.7016V19.5547C94.236 21.2388 92.1149 21.9876 91.0569 20.6741Z" fill="white"/>
<path d="M90.313 19.749L91.0567 20.6716C92.1147 21.9851 94.2358 21.2389 94.2358 19.5522V3.83301H93.2161C91.6138 3.83301 90.313 5.13379 90.313 6.73612V19.749Z" fill="white"/>
<path d="M128.951 3.83301C129.937 3.83301 130.737 4.6329 130.737 5.61934V7.34179H138.368V6.73612C138.368 5.13379 137.067 3.83301 135.465 3.83301H128.951Z" fill="white"/>
<path d="M128.95 3.83301H122.137H119.216V4.43867C119.216 6.04101 120.517 7.34179 122.119 7.34179H126.847V26.833H127.834C129.436 26.833 130.737 25.5322 130.737 23.9299V7.34179V5.61934C130.737 4.6329 129.937 3.83301 128.95 3.83301Z" fill="white"/>
<path d="M56.8634 42.0414H54.4229V34.5H56.9426C57.6812 34.5 58.3175 34.6508 58.8465 34.9523C59.3781 35.2539 59.7844 35.6832 60.0681 36.2454C60.3517 36.8077 60.4923 37.4798 60.4923 38.2618C60.4923 39.0463 60.3492 39.7236 60.063 40.2858C59.7767 40.8506 59.3627 41.285 58.8235 41.5866C58.2843 41.8907 57.6301 42.0414 56.8634 42.0414ZM55.5601 41.0473H56.8021C57.3771 41.0473 57.855 40.94 58.2357 40.7202C58.6165 40.503 58.9002 40.1887 59.0893 39.7747C59.2784 39.3607 59.373 38.8547 59.373 38.2592C59.373 37.6689 59.2784 37.1654 59.0918 36.754C58.9053 36.3426 58.6242 36.0282 58.2536 35.8161C57.8831 35.6014 57.4231 35.4967 56.8736 35.4967H55.5626V41.0473H55.5601Z" fill="white"/>
<path d="M63.043 42.0414V34.5H67.7707V35.4788H64.1802V37.7762H67.5229V38.7524H64.1802V41.0601H67.8142V42.0389H63.043V42.0414Z" fill="white"/>
<path d="M100.778 35.4788V34.5H106.615V35.4788H104.261V42.0414H103.126V35.4788H100.778Z" fill="white"/>
<path d="M128.394 42.0414V34.5H133.07V35.4788H129.531V37.7762H132.735V38.7524H129.531V42.0414H128.394Z" fill="white"/>
<path d="M169.671 42.0414V34.5H174.399V35.4788H170.808V37.7762H174.151V38.7524H170.808V41.0601H174.442V42.0389H169.671V42.0414Z" fill="white"/>
<path d="M70.4771 42.0414V34.5H75.1537V35.4788H71.6143V37.7762H74.8189V38.7524H71.6143V42.0414H70.4771Z" fill="white"/>
<path d="M78.9536 34.5V42.0414H77.8164V34.5H78.9536Z" fill="white"/>
<path d="M87.7015 34.5V42.0414H86.6563L82.8229 36.5112H82.7539V42.0414H81.6167V34.5H82.6696L86.5055 40.0379H86.5745V34.5H87.7015Z" fill="white"/>
<path d="M90.3618 42.0414V34.5H95.0896V35.4788H91.499V37.7762H94.8417V38.7524H91.499V41.0601H95.133V42.0389H90.3618V42.0414Z" fill="white"/>
<path d="M109.275 42.0414V34.5H110.413V37.7762H114.172V34.5H115.314V42.0414H114.172V38.7524H110.413V42.0414H109.275Z" fill="white"/>
<path d="M117.977 42.0414V34.5H122.705V35.4788H119.114V37.7762H122.457V38.7524H119.114V41.0601H122.748V42.0389H117.977V42.0414Z" fill="white"/>
<path d="M140.581 34.5H141.723V39.4603C141.723 39.9893 141.601 40.4544 141.35 40.8608C141.102 41.2671 140.755 41.5866 140.305 41.8191C139.855 42.0517 139.329 42.1667 138.726 42.1667C138.125 42.1667 137.599 42.0517 137.149 41.8191C136.699 41.5866 136.351 41.2671 136.104 40.8608C135.856 40.4544 135.73 39.9868 135.73 39.4603V34.5H136.868V39.3683C136.868 39.7108 136.942 40.0123 137.095 40.2781C137.246 40.5439 137.461 40.7509 137.737 40.9017C138.013 41.0524 138.342 41.1291 138.723 41.1291C139.106 41.1291 139.436 41.0524 139.715 40.9017C139.993 40.7509 140.208 40.5439 140.356 40.2781C140.504 40.0123 140.578 39.7108 140.578 39.3683V34.5H140.581Z" fill="white"/>
<path d="M144.383 35.4788V34.5H150.22V35.4788H147.867V42.0414H146.732V35.4788H144.383Z" fill="white"/>
<path d="M157.731 34.5H158.874V39.4603C158.874 39.9893 158.751 40.4544 158.503 40.8608C158.255 41.2671 157.908 41.5866 157.458 41.8191C157.008 42.0517 156.482 42.1667 155.878 42.1667C155.278 42.1667 154.751 42.0517 154.302 41.8191C153.852 41.5866 153.504 41.2671 153.256 40.8608C153.009 40.4544 152.883 39.9868 152.883 39.4603V34.5H154.021V39.3683C154.021 39.7108 154.095 40.0123 154.248 40.2781C154.399 40.5439 154.613 40.7509 154.889 40.9017C155.168 41.0524 155.495 41.1291 155.876 41.1291C156.259 41.1291 156.589 41.0524 156.867 40.9017C157.146 40.7509 157.361 40.5439 157.509 40.2781C157.657 40.0123 157.731 39.7108 157.731 39.3683V34.5Z" fill="white"/>
<path d="M161.534 42.0414V34.5H164.222C164.807 34.5 165.293 34.5997 165.679 34.8016C166.065 35.0034 166.353 35.282 166.545 35.6347C166.737 35.9899 166.831 36.3988 166.831 36.8639C166.831 37.3264 166.734 37.7302 166.543 38.0803C166.351 38.4304 166.06 38.7013 165.674 38.8956C165.288 39.0898 164.802 39.1869 164.217 39.1869H162.18V38.2081H164.112C164.48 38.2081 164.779 38.1544 165.012 38.0497C165.244 37.9449 165.413 37.7916 165.523 37.5897C165.63 37.3878 165.684 37.1476 165.684 36.8639C165.684 36.5802 165.63 36.3323 165.52 36.1228C165.41 35.9132 165.242 35.7548 165.009 35.6423C164.777 35.5299 164.473 35.4737 164.097 35.4737H162.668V42.0389H161.534V42.0414ZM165.257 38.64L167.12 42.0414H165.824L163.997 38.64H165.257Z" fill="white"/>
<path d="M1246.44 -177.608H-223.233V488.911H1246.44V-177.608Z" stroke="#FF0B0B" stroke-width="5" stroke-miterlimit="10"/>
</g>
<defs>
<clipPath id="clip0_3170_14073">
<rect width="174.445" height="46" fill="white"/>
</clipPath>
</defs>
</svg>
