<svg width="24" height="24" viewBox="0 0 24 24" fill="none" xmlns="http://www.w3.org/2000/svg">
<path d="M16.9333 11.6867C16.8937 11.5845 16.8342 11.491 16.7583 11.4117L12.5917 7.24508C12.514 7.16738 12.4217 7.10574 12.3202 7.06369C12.2187 7.02164 12.1099 7 12 7C11.7781 7 11.5653 7.08816 11.4083 7.24508C11.3306 7.32278 11.269 7.41502 11.2269 7.51654C11.1849 7.61805 11.1633 7.72686 11.1633 7.83674C11.1633 8.05866 11.2514 8.27149 11.4083 8.42841L14.1583 11.1701H7.83333C7.61232 11.1701 7.40036 11.2579 7.24408 11.4142C7.0878 11.5704 7 11.7824 7 12.0034C7 12.2244 7.0878 12.4364 7.24408 12.5927C7.40036 12.7489 7.61232 12.8367 7.83333 12.8367H14.1583L11.4083 15.5784C11.3302 15.6559 11.2682 15.748 11.2259 15.8496C11.1836 15.9511 11.1618 16.0601 11.1618 16.1701C11.1618 16.2801 11.1836 16.389 11.2259 16.4906C11.2682 16.5921 11.3302 16.6843 11.4083 16.7617C11.4858 16.8398 11.578 16.9018 11.6795 16.9442C11.7811 16.9865 11.89 17.0082 12 17.0082C12.11 17.0082 12.2189 16.9865 12.3205 16.9442C12.422 16.9018 12.5142 16.8398 12.5917 16.7617L16.7583 12.5951C16.8342 12.5158 16.8937 12.4224 16.9333 12.3201C17.0167 12.1172 17.0167 11.8896 16.9333 11.6867Z" fill="#0667E1"/>
<circle cx="12" cy="12" r="11.5" stroke="#0667E1"/>
</svg>
