<svg width="100" height="100" viewBox="0 0 100 100" fill="none" xmlns="http://www.w3.org/2000/svg">
<path d="M49.5853 70.3958C44.1808 72.9059 38.0009 73.1673 32.4038 71.1225C26.8067 69.0778 22.2506 64.8943 19.7369 59.4916C18.3631 56.5153 17.6474 53.2776 17.6387 49.9995C17.6387 49.5 17.6387 49.067 17.672 48.5674C19.204 19.3252 51.4604 15.1953 51.4604 15.1953L44.5661 11.1987C43.216 10.4133 41.6818 9.99951 40.1198 9.99951C38.5579 9.99951 37.0237 10.4133 35.6736 11.1987L8.72945 26.7856C7.38001 27.5655 6.26 28.6873 5.48232 30.038C4.70464 31.3888 4.29677 32.9206 4.29982 34.4792V57.6265C4.28317 57.5932 23.7402 83.1518 49.5853 70.3958Z" fill="url(#paint0_linear_2776_2444)"/>
<path d="M52.9759 31.6149C55.3925 33.3096 57.4517 35.4637 59.0357 37.9543C60.6198 40.4448 61.6978 43.223 62.2081 46.1302C62.7184 49.0374 62.651 52.0166 62.0099 54.8978C61.3687 57.7789 60.1663 60.5056 58.4713 62.922C56.5989 65.6116 54.1533 67.8525 51.3106 69.4832C50.9109 69.7163 50.5113 69.9161 50.0783 70.1493C23.9335 83.4382 4.25 57.5931 4.25 57.5931V65.5531C4.25399 67.1103 4.66483 68.6394 5.44181 69.9889C6.21879 71.3384 7.33494 72.4614 8.67963 73.2467L35.5904 88.8003C36.9406 89.5858 38.4747 89.9995 40.0367 89.9995C41.5987 89.9995 43.1328 89.5858 44.483 88.8003L64.4996 77.2433C64.5662 77.21 76.9225 47.6681 52.9759 31.6149Z" fill="url(#paint1_linear_2776_2444)"/>
<path d="M17.7051 48.0678C18.0325 44.309 19.3033 40.6936 21.3998 37.5566C23.4963 34.4196 26.3506 31.8625 29.6983 30.1223C33.0461 28.382 36.7789 27.5148 40.551 27.601C44.323 27.6873 48.0123 28.7242 51.277 30.6157C51.6767 30.8489 52.0763 31.1153 52.476 31.3818C77.0554 47.3018 64.5326 77.2767 64.5326 77.2767L71.4434 73.28C72.7929 72.5002 73.9129 71.3783 74.6906 70.0276C75.4682 68.6769 75.8761 67.1451 75.8731 65.5865V34.4792C75.8691 32.922 75.4582 31.3929 74.6812 30.0434C73.9043 28.6939 72.7881 27.5709 71.4434 26.7856L51.4269 15.1953C51.3769 15.1953 19.6035 19.2919 17.7051 48.0678Z" fill="url(#paint2_linear_2776_2444)"/>
<path d="M43.1341 65.087C40.4697 65.087 38.3382 62.7223 38.3382 59.858V40.1412C38.3382 39.2086 37.772 38.4093 37.0393 38.4093C36.3065 38.4093 35.7403 39.2086 35.7403 40.1412V61.0237C35.7403 61.4919 35.5544 61.9408 35.2233 62.2719C34.8923 62.6029 34.4433 62.7889 33.9751 62.7889C33.507 62.7889 33.058 62.6029 32.727 62.2719C32.3959 61.9408 32.21 61.4919 32.21 61.0237V40.1412C32.21 37.2436 34.3748 34.9122 37.0393 34.9122C39.7037 34.9122 41.8685 37.2769 41.8685 40.1412V59.858C41.8685 60.7906 42.4347 61.5899 43.1675 61.5899C43.9002 61.5899 44.4664 60.7906 44.4664 59.858V39.0088C44.4664 38.5406 44.6523 38.0917 44.9834 37.7606C45.3144 37.4296 45.7634 37.2436 46.2316 37.2436C46.6997 37.2436 47.1487 37.4296 47.4797 37.7606C47.8108 38.0917 47.9967 38.5406 47.9967 39.0088V59.8913C47.9135 62.7556 45.7986 65.087 43.1341 65.087Z" fill="url(#paint3_linear_2776_2444)"/>
<path d="M28.8296 57.5598C28.3626 57.5563 27.9156 57.3693 27.5853 57.039C27.255 56.7087 27.0679 56.2617 27.0645 55.7946V43.7048C27.0645 43.2366 27.2504 42.7876 27.5815 42.4566C27.9125 42.1255 28.3615 41.9396 28.8296 41.9396C29.2978 41.9396 29.7468 42.1255 30.0778 42.4566C30.4089 42.7876 30.5948 43.2366 30.5948 43.7048V55.7946C30.5989 56.0276 30.556 56.2589 30.4687 56.4749C30.3815 56.6909 30.2516 56.8871 30.0869 57.0519C29.9221 57.2166 29.7259 57.3465 29.5099 57.4337C29.2939 57.521 29.0626 57.5639 28.8296 57.5598Z" fill="url(#paint4_linear_2776_2444)"/>
<path d="M23.7007 54.1295C23.2337 54.126 22.7867 53.9389 22.4564 53.6086C22.1261 53.2783 21.939 52.8314 21.9355 52.3643V47.1686C21.9355 46.7005 22.1215 46.2515 22.4526 45.9205C22.7836 45.5894 23.2326 45.4034 23.7007 45.4034C24.1689 45.4034 24.6179 45.5894 24.9489 45.9205C25.28 46.2515 25.4659 46.7005 25.4659 47.1686V52.3643C25.4574 52.8298 25.2687 53.2738 24.9395 53.603C24.6103 53.9322 24.1662 54.1209 23.7007 54.1295Z" fill="url(#paint5_linear_2776_2444)"/>
<path d="M51.3443 57.5598C50.8772 57.5563 50.4303 57.3693 50.1 57.039C49.7697 56.7087 49.5826 56.2617 49.5791 55.7946V43.7048C49.5791 43.2366 49.7651 42.7876 50.0961 42.4566C50.4272 42.1255 50.8761 41.9396 51.3443 41.9396C51.8124 41.9396 52.2614 42.1255 52.5925 42.4566C52.9235 42.7876 53.1095 43.2366 53.1095 43.7048V55.7946C53.106 56.2617 52.9189 56.7087 52.5886 57.039C52.2583 57.3693 51.8114 57.5563 51.3443 57.5598Z" fill="url(#paint6_linear_2776_2444)"/>
<path d="M56.5064 54.1295C56.0393 54.126 55.5924 53.9389 55.2621 53.6086C54.9318 53.2783 54.7447 52.8314 54.7412 52.3643V47.1686C54.7412 46.7005 54.9272 46.2515 55.2582 45.9205C55.5893 45.5894 56.0382 45.4034 56.5064 45.4034C56.9746 45.4034 57.4235 45.5894 57.7546 45.9205C58.0856 46.2515 58.2716 46.7005 58.2716 47.1686V52.3643C58.2681 52.8314 58.081 53.2783 57.7507 53.6086C57.4204 53.9389 56.9735 54.126 56.5064 54.1295Z" fill="url(#paint7_linear_2776_2444)"/>
<defs>
<linearGradient id="paint0_linear_2776_2444" x1="16.0067" y1="65.783" x2="50.3846" y2="19.1787" gradientUnits="userSpaceOnUse">
<stop stop-color="#461894"/>
<stop offset="1" stop-color="#B841E2"/>
</linearGradient>
<linearGradient id="paint1_linear_2776_2444" x1="65.8365" y1="62.9592" x2="8.28576" y2="56.4938" gradientUnits="userSpaceOnUse">
<stop stop-color="#461894"/>
<stop offset="1" stop-color="#B841E2"/>
</linearGradient>
<linearGradient id="paint2_linear_2776_2444" x1="38.3889" y1="21.2404" x2="61.5679" y2="74.3151" gradientUnits="userSpaceOnUse">
<stop stop-color="#461894"/>
<stop offset="1" stop-color="#B841E2"/>
</linearGradient>
<linearGradient id="paint3_linear_2776_2444" x1="20.0468" y1="68.4308" x2="60.05" y2="31.605" gradientUnits="userSpaceOnUse">
<stop stop-color="#461894"/>
<stop offset="1" stop-color="#B841E2"/>
</linearGradient>
<linearGradient id="paint4_linear_2776_2444" x1="14.7714" y1="62.7022" x2="54.7746" y2="25.8763" gradientUnits="userSpaceOnUse">
<stop stop-color="#461894"/>
<stop offset="1" stop-color="#B841E2"/>
</linearGradient>
<linearGradient id="paint5_linear_2776_2444" x1="12.4202" y1="60.1444" x2="52.4234" y2="23.3186" gradientUnits="userSpaceOnUse">
<stop stop-color="#461894"/>
<stop offset="1" stop-color="#B841E2"/>
</linearGradient>
<linearGradient id="paint6_linear_2776_2444" x1="25.0929" y1="73.9161" x2="65.0994" y2="37.0869" gradientUnits="userSpaceOnUse">
<stop stop-color="#461894"/>
<stop offset="1" stop-color="#B841E2"/>
</linearGradient>
<linearGradient id="paint7_linear_2776_2444" x1="27.4674" y1="76.4974" x2="67.4739" y2="39.6715" gradientUnits="userSpaceOnUse">
<stop stop-color="#461894"/>
<stop offset="1" stop-color="#B841E2"/>
</linearGradient>
</defs>
</svg>
