<svg width="100" height="100" viewBox="0 0 100 100" fill="none" xmlns="http://www.w3.org/2000/svg">
<path d="M87.1806 48.6668V51.3334C87.1802 53.5706 86.4019 55.7379 84.9788 57.4641C83.5557 59.1903 81.5766 60.3677 79.3806 60.7948C79.5725 59.5309 79.6688 58.2544 79.6686 56.9761V43.0321C79.6694 41.7519 79.5722 40.4735 79.3779 39.2081C81.5742 39.634 83.5539 40.8107 84.9775 42.5365C86.4011 44.2623 87.18 46.4296 87.1806 48.6668Z" fill="url(#paint0_linear_3055_9707)"/>
<path d="M7.57598 56.9733C7.57604 58.2563 7.67411 59.5373 7.86932 60.8053C5.65853 60.3927 3.66165 59.22 2.22449 57.4901C0.787339 55.7603 0.000413689 53.5823 0 51.3333V48.6667C0.00104658 46.4175 0.788536 44.2395 2.22613 42.5097C3.66373 40.7799 5.66094 39.6072 7.87198 39.1947C7.67677 40.4645 7.57871 41.7473 7.57865 43.032L7.57598 56.9733Z" fill="url(#paint1_linear_3055_9707)"/>
<path d="M31.896 71.9919H32.9387C33.5467 71.9919 33.992 72.6399 33.848 73.3119L31.9814 81.9999H30.1707C17.4934 81.9999 7.21875 70.2879 7.21875 55.8372V44.1626C7.21075 29.712 17.4854 18 30.1627 18H41.896C25.7014 18 16.7894 29.752 16.7894 44.4933V54.7759C16.7921 64.2826 23.5547 71.9919 31.896 71.9919Z" fill="url(#paint2_linear_3055_9707)"/>
<path d="M70.4562 55.4827C70.4562 70.224 63.1096 81.9999 49.7443 81.9999H31.9736L42.3576 72.576C42.7384 72.2103 43.2431 72.0017 43.7709 71.992H58.0056C64.7122 71.992 70.1869 64.6666 70.4562 55.4827Z" fill="url(#paint3_linear_3055_9707)"/>
<path d="M79.9443 44.1626V55.8426C79.9443 70.2879 69.6697 81.9999 57.0111 81.9999H45.2777C61.4697 81.9999 70.3737 70.2239 70.3737 55.4826C70.3737 55.2479 70.3737 55.0133 70.3737 54.7759V44.4933C70.3737 34.984 63.611 27.272 55.2671 27.272H31.8964C23.5551 27.272 16.7925 34.984 16.7925 44.4933C16.7925 29.752 25.7045 18 41.8991 18H56.9977C69.6697 18 79.9443 29.712 79.9443 44.1626Z" fill="url(#paint4_linear_3055_9707)"/>
<path d="M44.3787 35.7546C51.0237 35.7546 56.4106 32.1192 56.4106 27.6346C56.4106 23.1501 51.0237 19.5146 44.3787 19.5146C37.7336 19.5146 32.3467 23.1501 32.3467 27.6346C32.3467 32.1192 37.7336 35.7546 44.3787 35.7546Z" fill="url(#paint5_linear_3055_9707)"/>
<path d="M62.8056 48.0266C62.0394 48.038 61.2909 47.7952 60.6773 47.3361C60.0637 46.8771 59.6195 46.2276 59.4141 45.4893C59.2088 44.751 59.2538 43.9655 59.5422 43.2555C59.8307 42.5455 60.3462 41.9511 61.0083 41.5652C60.8087 41.5273 60.6061 41.5067 60.403 41.5039C57.9016 41.5039 55.8696 44.1946 55.8696 47.5092C55.8696 50.8239 57.899 53.5145 60.403 53.5145C62.9069 53.5145 64.9363 50.8266 64.9363 47.5092C64.9363 47.4372 64.9363 47.3652 64.9363 47.2932C64.3275 47.7681 63.5777 48.0262 62.8056 48.0266Z" fill="#39B54A"/>
<path d="M28.5897 44.5412C28.5916 43.9536 28.7429 43.3761 29.0293 42.863C29.3157 42.3499 29.7278 41.918 30.227 41.6079C29.9812 41.5507 29.73 41.5203 29.4777 41.5172C26.9763 41.5172 24.9443 44.2079 24.9443 47.5225C24.9443 50.8372 26.9737 53.5279 29.4777 53.5279C31.9817 53.5279 34.011 50.8399 34.011 47.5225C34.011 47.5012 34.011 47.4799 34.011 47.4585C33.4856 47.807 32.8757 48.0066 32.246 48.036C31.6162 48.0655 30.9903 47.9237 30.4347 47.6258C29.8792 47.3279 29.4147 46.885 29.0908 46.3442C28.7668 45.8034 28.5955 45.1849 28.595 44.5545L28.5897 44.5412Z" fill="#39B54A"/>
<path d="M43.2474 65.6612C46.7141 65.6612 49.5407 63.1705 49.5407 60.0985H36.9541C36.9541 63.1705 39.7728 65.6612 43.2474 65.6612Z" fill="#39B54A"/>
<defs>
<linearGradient id="paint0_linear_3055_9707" x1="4.31141" y1="54.9068" x2="59.2846" y2="51.3148" gradientUnits="userSpaceOnUse">
<stop stop-color="#39B54A"/>
<stop offset="1" stop-color="#30D158"/>
</linearGradient>
<linearGradient id="paint1_linear_3055_9707" x1="-2.94933" y1="79.4799" x2="11.4213" y2="26.4827" gradientUnits="userSpaceOnUse">
<stop stop-color="#39B54A"/>
<stop offset="1" stop-color="#30D158"/>
</linearGradient>
<linearGradient id="paint2_linear_3055_9707" x1="13.1067" y1="85.0105" x2="27.3387" y2="32.5253" gradientUnits="userSpaceOnUse">
<stop stop-color="#39B54A"/>
<stop offset="1" stop-color="#30D158"/>
</linearGradient>
<linearGradient id="paint3_linear_3055_9707" x1="60.8109" y1="68.7493" x2="36.539" y2="72.2186" gradientUnits="userSpaceOnUse">
<stop stop-color="#39B54A"/>
<stop offset="1" stop-color="#30D158"/>
</linearGradient>
<linearGradient id="paint4_linear_3055_9707" x1="25.9205" y1="51.9226" x2="67.827" y2="48.4639" gradientUnits="userSpaceOnUse">
<stop stop-color="#39B54A"/>
<stop offset="1" stop-color="#30D158"/>
</linearGradient>
<linearGradient id="paint5_linear_3055_9707" x1="24.056" y1="29.312" x2="65.9599" y2="25.856" gradientUnits="userSpaceOnUse">
<stop stop-color="#39B54A"/>
<stop offset="1" stop-color="#30D158"/>
</linearGradient>
</defs>
</svg>
