<svg width="100" height="100" viewBox="0 0 100 100" fill="none" xmlns="http://www.w3.org/2000/svg">
<path d="M23.8336 31.667C23.9341 31.6002 24.0346 31.5333 24.1686 31.4665C24.4702 31.2993 24.7717 31.0988 25.0397 30.9317C25.2407 30.798 25.4417 30.6977 25.6428 30.564C26.2458 30.2298 26.8489 29.8621 27.4519 29.5279C27.6529 29.4276 27.854 29.3273 28.055 29.1936C28.3565 29.0265 28.658 28.8928 28.9595 28.7257C29.1941 28.592 29.4621 28.4583 29.6966 28.3581C29.9981 28.1909 30.2997 28.0572 30.6012 27.9235C30.8692 27.7898 31.1372 27.6561 31.3717 27.5559C31.6733 27.4222 31.9748 27.2551 32.2763 27.1214C32.5443 26.9877 32.8124 26.8874 33.1139 26.7537C33.4154 26.62 33.7169 26.4863 34.0185 26.3526C34.32 26.2189 34.6215 26.0852 34.923 25.985C35.2246 25.8513 35.4926 25.751 35.7941 25.6173C36.3637 25.3833 36.9332 25.1828 37.5027 24.9488C37.7708 24.8485 38.0723 24.7483 38.3403 24.648C38.6753 24.5143 39.0439 24.3806 39.3789 24.2803C39.6804 24.1801 39.9819 24.0798 40.2835 23.9795C40.6185 23.8793 40.987 23.7456 41.3221 23.6453C41.6236 23.545 41.9251 23.4447 42.2266 23.3779C42.5952 23.2776 42.9637 23.1774 43.3322 23.0771C43.6337 22.9768 43.9353 22.91 44.2368 22.8431C44.6388 22.7428 45.0409 22.6426 45.4764 22.5089C45.7444 22.442 46.0124 22.3752 46.2805 22.3083C46.9505 22.1412 47.6206 22.0075 48.2906 21.8404C48.4916 21.807 48.6592 21.7736 48.8602 21.7401C49.3627 21.6399 49.8987 21.5396 50.4013 21.4393C50.6693 21.3725 50.9373 21.339 51.2054 21.3056C51.6409 21.2388 52.1099 21.1385 52.5455 21.0717C52.847 21.0382 53.115 20.9714 53.4165 20.938C53.8521 20.8711 54.3211 20.8043 54.7566 20.7374C55.0582 20.704 55.3262 20.6706 55.6277 20.6371C56.1303 20.5703 56.6328 20.5369 57.1353 20.47C57.3699 20.4366 57.6379 20.4032 57.8724 20.4032C58.6095 20.3363 59.38 20.2695 60.1506 20.2361L44.4043 11.1782C41.6571 9.60727 38.2398 9.60727 35.4926 11.1782L8.45587 26.7537C5.70864 28.3246 4 31.2659 4 34.4412V47.3428C4 47.5433 4.067 47.7439 4.20101 47.911C5.57463 40.7583 13.1797 34.742 23.8336 31.667Z" fill="url(#paint0_linear_2776_2426)"/>
<path d="M57.1691 20.4033C56.6665 20.4701 56.164 20.5035 55.6615 20.5704C55.3599 20.6038 55.0919 20.6372 54.7904 20.6707C54.3214 20.7375 53.8858 20.8044 53.4503 20.8712C53.1488 20.9046 52.8807 20.9715 52.5792 21.0049C52.1437 21.0718 51.6746 21.1386 51.2391 21.2389C50.9711 21.2723 50.7031 21.3391 50.435 21.3726C49.899 21.4728 49.3965 21.5731 48.8939 21.6734C48.6929 21.7068 48.5254 21.7402 48.3244 21.7737C47.6543 21.9074 46.9843 22.0745 46.3142 22.2416C46.0462 22.3084 45.7782 22.3753 45.5101 22.4421C45.1081 22.5424 44.6726 22.6427 44.2705 22.7764C43.969 22.8432 43.6675 22.9435 43.366 23.0103C42.9974 23.1106 42.6289 23.2109 42.2604 23.3112C41.9588 23.4114 41.6573 23.5117 41.3558 23.5785C41.0208 23.6788 40.6522 23.8125 40.3172 23.9128C40.0157 24.0131 39.7142 24.1133 39.4126 24.2136C39.0441 24.3473 38.7091 24.4476 38.3741 24.5813C38.106 24.6815 37.8045 24.7818 37.5365 24.8821C36.9669 25.0826 36.3974 25.3166 35.8278 25.5506C35.5263 25.6842 35.2583 25.7845 34.9568 25.9182C34.6553 26.0519 34.3537 26.1856 34.0522 26.2859C33.7507 26.4196 33.4492 26.5533 33.1476 26.687C32.8796 26.8207 32.5781 26.9209 32.3101 27.0546C32.0085 27.1883 31.707 27.322 31.4055 27.4891C31.1375 27.6228 30.8694 27.7565 30.6349 27.8568C30.3334 27.9905 30.0319 28.1576 29.7304 28.2913C29.4958 28.425 29.2278 28.5587 28.9933 28.659C28.6918 28.8261 28.3902 28.9598 28.0887 29.1269C27.8877 29.2272 27.6867 29.3274 27.4857 29.4611C26.8826 29.7954 26.2796 30.1296 25.6765 30.4973C25.4755 30.631 25.2745 30.7312 25.0735 30.8649C24.772 31.0321 24.4704 31.2326 24.2024 31.3997C24.1019 31.4666 24.0014 31.5334 23.9009 31.6003C28.7588 30.1965 34.2532 29.3943 40.0492 29.3943C58.6097 29.3943 73.887 37.416 75.7966 47.744C75.9306 47.5769 75.9976 47.4098 75.9976 47.1758V34.3744C75.9976 31.1992 74.289 28.2579 71.5418 26.687L60.1843 20.1693C59.4138 20.2027 58.6432 20.2696 57.9062 20.3364C57.6716 20.3699 57.4371 20.4033 57.1691 20.4033Z" fill="url(#paint1_linear_2776_2426)"/>
<path d="M60.1844 20.1693C59.4139 20.2027 58.6433 20.2696 57.9062 20.3364C58.6768 20.2696 59.4474 20.2027 60.1844 20.1693Z" fill="url(#paint2_linear_2776_2426)"/>
<path d="M60.1844 20.1693C59.4139 20.2027 58.6433 20.2696 57.9062 20.3364C58.6768 20.2696 59.4474 20.2027 60.1844 20.1693Z" fill="url(#paint3_linear_2776_2426)"/>
<path d="M27.4521 29.5614C27.6532 29.4611 27.8542 29.3609 28.0552 29.2272C27.8542 29.3274 27.6532 29.4277 27.4521 29.5614Z" fill="url(#paint4_linear_2776_2426)"/>
<path d="M27.4521 29.5614C27.6532 29.4611 27.8542 29.3609 28.0552 29.2272C27.8542 29.3274 27.6532 29.4277 27.4521 29.5614Z" fill="url(#paint5_linear_2776_2426)"/>
<path d="M48.8599 21.7067C49.3624 21.6064 49.8984 21.5062 50.401 21.4059C49.8984 21.4727 49.3624 21.573 48.8599 21.7067Z" fill="url(#paint6_linear_2776_2426)"/>
<path d="M48.8599 21.7067C49.3624 21.6064 49.8984 21.5062 50.401 21.4059C49.8984 21.4727 49.3624 21.573 48.8599 21.7067Z" fill="url(#paint7_linear_2776_2426)"/>
<path d="M44.2705 22.7761C44.6725 22.6759 45.0746 22.5756 45.5101 22.4419C45.1081 22.5756 44.6725 22.6759 44.2705 22.7761Z" fill="url(#paint8_linear_2776_2426)"/>
<path d="M44.2705 22.7761C44.6725 22.6759 45.0746 22.5756 45.5101 22.4419C45.1081 22.5756 44.6725 22.6759 44.2705 22.7761Z" fill="url(#paint9_linear_2776_2426)"/>
<path d="M40.3501 23.9796C40.6851 23.8794 41.0537 23.7457 41.3887 23.6454C41.0537 23.7457 40.6851 23.8459 40.3501 23.9796Z" fill="url(#paint10_linear_2776_2426)"/>
<path d="M40.3501 23.9796C40.6851 23.8794 41.0537 23.7457 41.3887 23.6454C41.0537 23.7457 40.6851 23.8459 40.3501 23.9796Z" fill="url(#paint11_linear_2776_2426)"/>
<path d="M46.3145 22.2748C46.9845 22.1077 47.6546 21.974 48.3246 21.8069C47.6211 21.9406 46.951 22.1077 46.3145 22.2748Z" fill="url(#paint12_linear_2776_2426)"/>
<path d="M46.3145 22.2748C46.9845 22.1077 47.6546 21.974 48.3246 21.8069C47.6211 21.9406 46.951 22.1077 46.3145 22.2748Z" fill="url(#paint13_linear_2776_2426)"/>
<path d="M53.4492 20.8711C53.8848 20.8042 54.3538 20.7374 54.7893 20.6705C54.3538 20.7374 53.9183 20.8042 53.4492 20.8711Z" fill="url(#paint14_linear_2776_2426)"/>
<path d="M53.4492 20.8711C53.8848 20.8042 54.3538 20.7374 54.7893 20.6705C54.3538 20.7374 53.9183 20.8042 53.4492 20.8711Z" fill="url(#paint15_linear_2776_2426)"/>
<path d="M32.3091 27.1214C32.5771 26.9878 32.8451 26.8875 33.1467 26.7538C32.8786 26.8541 32.5771 26.9878 32.3091 27.1214Z" fill="url(#paint16_linear_2776_2426)"/>
<path d="M32.3091 27.1214C32.5771 26.9878 32.8451 26.8875 33.1467 26.7538C32.8786 26.8541 32.5771 26.9878 32.3091 27.1214Z" fill="url(#paint17_linear_2776_2426)"/>
<path d="M24.169 31.4663C24.0685 31.5332 23.968 31.6 23.834 31.6669C23.9345 31.6 24.0685 31.5332 24.169 31.4663Z" fill="url(#paint18_linear_2776_2426)"/>
<path d="M24.169 31.4663C24.0685 31.5332 23.968 31.6 23.834 31.6669C23.9345 31.6 24.0685 31.5332 24.169 31.4663Z" fill="url(#paint19_linear_2776_2426)"/>
<path d="M35.8604 25.6173C36.4299 25.3834 36.9994 25.1828 37.569 24.9489C36.9994 25.1494 36.4299 25.3834 35.8604 25.6173Z" fill="url(#paint20_linear_2776_2426)"/>
<path d="M35.8604 25.6173C36.4299 25.3834 36.9994 25.1828 37.569 24.9489C36.9994 25.1494 36.4299 25.3834 35.8604 25.6173Z" fill="url(#paint21_linear_2776_2426)"/>
<path d="M75.7624 52.1893C74.4558 59.2752 66.8507 65.2915 56.1968 68.3665C56.0963 68.4333 55.9958 68.5002 55.8618 68.567C55.5603 68.7341 55.2588 68.9347 54.9907 69.1018C54.7897 69.2355 54.5887 69.3358 54.3877 69.4695C53.7847 69.8037 53.1816 70.1714 52.5451 70.5056C52.344 70.6059 52.1765 70.7061 51.9755 70.8064C51.674 70.9735 51.3724 71.1407 51.0709 71.2744C50.8364 71.408 50.5684 71.5417 50.3339 71.642C50.0323 71.8091 49.7308 71.9428 49.4293 72.0765C49.1613 72.2102 48.8933 72.3439 48.6587 72.4442C48.3572 72.5779 48.0557 72.745 47.7542 72.8787C47.4861 73.0124 47.2181 73.1127 46.9166 73.2464C46.6151 73.3801 46.3135 73.5137 46.012 73.6474C45.7105 73.7811 45.409 73.9148 45.1074 74.0151C44.8059 74.1488 44.5379 74.2491 44.2364 74.3828C43.6668 74.6167 43.0973 74.8173 42.5277 75.0512C42.2597 75.1515 41.9582 75.2518 41.6902 75.3521C41.3551 75.4858 40.9866 75.6194 40.6516 75.7197C40.3501 75.82 40.0485 75.9203 39.747 76.0205C39.412 76.1208 39.0434 76.2545 38.7084 76.3548C38.4069 76.455 38.1054 76.5553 37.8038 76.6222C37.4353 76.7224 37.0668 76.8227 36.6982 76.923C36.3967 77.0233 36.0952 77.0901 35.7937 77.1569C35.3917 77.2572 34.9896 77.3575 34.5541 77.4912C34.2861 77.558 34.018 77.6249 33.75 77.6917C33.08 77.8588 32.4099 77.9925 31.7398 78.1597C31.5388 78.1931 31.3713 78.2265 31.1703 78.2599C30.6678 78.3602 30.1317 78.4605 29.6292 78.5607C29.3611 78.6276 29.0931 78.661 28.8251 78.6944C28.3896 78.7613 27.9205 78.8616 27.485 78.9284C27.1835 78.9618 26.9154 79.0287 26.6139 79.0621C26.1784 79.129 25.7094 79.1958 25.2738 79.2626C24.9723 79.2961 24.7043 79.3295 24.4028 79.3629C23.9002 79.4298 23.3977 79.4632 22.8951 79.53C22.6606 79.5635 22.3926 79.5969 22.1581 79.5969C21.421 79.6637 20.6504 79.7306 19.8799 79.764L35.6262 88.8219C38.3734 90.3928 41.7907 90.3928 44.5379 88.8219L71.5746 73.2464C74.3218 71.6754 76.0305 68.7341 76.0305 65.5589V52.6573C75.9635 52.557 75.8965 52.3565 75.7624 52.1893Z" fill="url(#paint22_linear_2776_2426)"/>
<path d="M22.862 79.6302C23.3646 79.5633 23.8671 79.5299 24.3697 79.463C24.6712 79.4296 24.9392 79.3962 25.2407 79.3628C25.7098 79.2959 26.1453 79.2291 26.5808 79.1622C26.8824 79.1288 27.1504 79.062 27.4519 79.0285C27.8874 78.9617 28.3565 78.8948 28.792 78.7946C29.06 78.7611 29.3281 78.6943 29.5961 78.6609C30.1321 78.5606 30.6347 78.4603 31.1372 78.3601C31.3382 78.3266 31.5057 78.2932 31.7068 78.2598C32.3768 78.1261 33.0469 77.959 33.7169 77.7919C33.985 77.725 34.253 77.6582 34.521 77.5913C34.923 77.491 35.3586 77.3908 35.7606 77.2571C36.0621 77.1902 36.3636 77.09 36.6652 77.0231C37.0337 76.9228 37.4022 76.8226 37.7708 76.7223C38.0723 76.622 38.3738 76.5217 38.6753 76.4549C39.0104 76.3546 39.3789 76.2209 39.7139 76.1207C40.0154 76.0204 40.317 75.9201 40.6185 75.8198C40.987 75.6861 41.3221 75.5859 41.6571 75.4522C41.9251 75.3519 42.2266 75.2516 42.4947 75.1514C43.0642 74.9508 43.6337 74.7169 44.2033 74.4829C44.5048 74.3492 44.7728 74.2489 45.0744 74.1152C45.3759 73.9815 45.6774 73.8478 45.9789 73.7476C46.2805 73.6139 46.582 73.4802 46.8835 73.3465C47.1515 73.2128 47.453 73.1125 47.7211 72.9788C48.0226 72.8451 48.3241 72.7114 48.6256 72.5443C48.8937 72.4106 49.1617 72.3103 49.3962 72.1766C49.6977 72.043 49.9993 71.8758 50.3008 71.7421C50.5353 71.6084 50.8033 71.4747 51.0378 71.3745C51.3394 71.2074 51.6409 71.0737 51.9424 70.9065C52.1434 70.8063 52.311 70.706 52.512 70.6057C53.115 70.2715 53.7516 69.9372 54.3546 69.5696C54.5556 69.4359 54.7566 69.3356 54.9577 69.2019C55.2592 69.0348 55.5607 68.8343 55.8287 68.6671C55.9292 68.6003 56.0298 68.5334 56.1303 68.4666C51.2724 69.8704 45.7779 70.6726 39.9484 70.6726C21.3879 70.6726 6.11067 62.6508 4.20101 52.3229C4.067 52.49 4 52.6571 4 52.8911V65.7593C4 68.9345 5.70864 71.8758 8.45587 73.4468L19.7798 79.9644C20.5504 79.931 21.2874 79.8641 22.058 79.7973C22.3595 79.6636 22.594 79.6302 22.862 79.6302Z" fill="url(#paint23_linear_2776_2426)"/>
<path d="M33.7167 77.7584C33.0467 77.9255 32.3766 78.0592 31.7065 78.2264C32.4101 78.0927 33.0802 77.9255 33.7167 77.7584Z" fill="url(#paint24_linear_2776_2426)"/>
<path d="M33.7167 77.7584C33.0467 77.9255 32.3766 78.0592 31.7065 78.2264C32.4101 78.0927 33.0802 77.9255 33.7167 77.7584Z" fill="url(#paint25_linear_2776_2426)"/>
<path d="M24.3357 79.463C23.8332 79.5299 23.3307 79.5633 22.8281 79.6301C23.3642 79.5633 23.8667 79.5299 24.3357 79.463Z" fill="url(#paint26_linear_2776_2426)"/>
<path d="M24.3357 79.463C23.8332 79.5299 23.3307 79.5633 22.8281 79.6301C23.3642 79.5633 23.8667 79.5299 24.3357 79.463Z" fill="url(#paint27_linear_2776_2426)"/>
<path d="M26.5813 79.1624C26.1458 79.2292 25.6767 79.2961 25.2412 79.3629C25.6767 79.2961 26.1123 79.2292 26.5813 79.1624Z" fill="url(#paint28_linear_2776_2426)"/>
<path d="M26.5813 79.1624C26.1458 79.2292 25.6767 79.2961 25.2412 79.3629C25.6767 79.2961 26.1123 79.2292 26.5813 79.1624Z" fill="url(#paint29_linear_2776_2426)"/>
<path d="M47.7218 72.912C47.4538 73.0457 47.1858 73.146 46.8843 73.2797C47.1523 73.1794 47.4538 73.0457 47.7218 72.912Z" fill="url(#paint30_linear_2776_2426)"/>
<path d="M47.7218 72.912C47.4538 73.0457 47.1858 73.146 46.8843 73.2797C47.1523 73.1794 47.4538 73.0457 47.7218 72.912Z" fill="url(#paint31_linear_2776_2426)"/>
<path d="M44.1701 74.416C43.6005 74.65 43.031 74.8505 42.4614 75.0845C43.031 74.8839 43.6005 74.65 44.1701 74.416Z" fill="url(#paint32_linear_2776_2426)"/>
<path d="M44.1701 74.416C43.6005 74.65 43.031 74.8505 42.4614 75.0845C43.031 74.8839 43.6005 74.65 44.1701 74.416Z" fill="url(#paint33_linear_2776_2426)"/>
<path d="M39.6807 76.054C39.3456 76.1542 38.9771 76.2879 38.6421 76.3882C38.9771 76.2879 39.3456 76.1877 39.6807 76.054Z" fill="url(#paint34_linear_2776_2426)"/>
<path d="M39.6807 76.054C39.3456 76.1542 38.9771 76.2879 38.6421 76.3882C38.9771 76.2879 39.3456 76.1877 39.6807 76.054Z" fill="url(#paint35_linear_2776_2426)"/>
<path d="M35.7611 77.257C35.3591 77.3572 34.957 77.4575 34.5215 77.5912C34.9235 77.4575 35.3256 77.3572 35.7611 77.257Z" fill="url(#paint36_linear_2776_2426)"/>
<path d="M35.7611 77.257C35.3591 77.3572 34.957 77.4575 34.5215 77.5912C34.9235 77.4575 35.3256 77.3572 35.7611 77.257Z" fill="url(#paint37_linear_2776_2426)"/>
<path d="M31.171 78.3269C30.6685 78.4272 30.1324 78.5275 29.6299 78.6277C30.1324 78.5609 30.635 78.4606 31.171 78.3269Z" fill="url(#paint38_linear_2776_2426)"/>
<path d="M31.171 78.3269C30.6685 78.4272 30.1324 78.5275 29.6299 78.6277C30.1324 78.5609 30.635 78.4606 31.171 78.3269Z" fill="url(#paint39_linear_2776_2426)"/>
<path d="M19.8125 79.8641C20.5831 79.8307 21.3201 79.7639 22.0907 79.697C21.3536 79.7639 20.5831 79.8307 19.8125 79.8641Z" fill="url(#paint40_linear_2776_2426)"/>
<path d="M19.8125 79.8641C20.5831 79.8307 21.3201 79.7639 22.0907 79.697C21.3536 79.7639 20.5831 79.8307 19.8125 79.8641Z" fill="url(#paint41_linear_2776_2426)"/>
<path d="M40.015 64.6565C48.1227 64.6565 54.6892 58.1054 54.6892 50.0168C54.6892 41.9283 48.1227 35.3772 40.015 35.3772C31.9074 35.3772 25.3408 41.9283 25.3408 50.0168C25.3408 58.1054 31.9074 64.6565 40.015 64.6565ZM40.015 40.725C45.1744 40.725 49.3288 44.903 49.3288 50.0168C49.3288 55.1307 45.1409 59.3087 40.015 59.3087C34.8556 59.3087 30.7013 55.1307 30.7013 50.0168C30.7013 44.8696 34.8556 40.725 40.015 40.725Z" fill="url(#paint42_linear_2776_2426)"/>
<path d="M40.0151 57.136C43.9684 57.136 47.1512 53.9608 47.1512 50.0167C47.1512 46.0727 43.9684 42.8975 40.0151 42.8975C39.3115 42.8975 38.6415 42.9977 38.0049 43.1983C39.345 43.7665 40.2496 45.07 40.2496 46.6075C40.2496 48.6464 38.5745 50.3176 36.5308 50.3176C34.9897 50.3176 33.6831 49.3817 33.1135 48.0782C32.9125 48.7132 32.812 49.3817 32.812 50.0836C32.879 53.9608 36.0618 57.136 40.0151 57.136Z" fill="url(#paint43_linear_2776_2426)"/>
<defs>
<linearGradient id="paint0_linear_2776_2426" x1="7.13271" y1="35.7755" x2="49.1228" y2="14.9406" gradientUnits="userSpaceOnUse">
<stop stop-color="#3634A3"/>
<stop offset="1" stop-color="#0A84FF"/>
</linearGradient>
<linearGradient id="paint1_linear_2776_2426" x1="38.0747" y1="23.9251" x2="64.5266" y2="37.2879" gradientUnits="userSpaceOnUse">
<stop stop-color="#3634A3"/>
<stop offset="1" stop-color="#0A84FF"/>
</linearGradient>
<linearGradient id="paint2_linear_2776_2426" x1="11.1659" y1="43.9032" x2="53.156" y2="23.0683" gradientUnits="userSpaceOnUse">
<stop stop-color="#3634A3"/>
<stop offset="1" stop-color="#0A84FF"/>
</linearGradient>
<linearGradient id="paint3_linear_2776_2426" x1="43.8067" y1="12.5789" x2="70.2585" y2="25.9417" gradientUnits="userSpaceOnUse">
<stop stop-color="#3634A3"/>
<stop offset="1" stop-color="#0A84FF"/>
</linearGradient>
<linearGradient id="paint4_linear_2776_2426" x1="8.6468" y1="38.827" x2="50.6372" y2="17.9917" gradientUnits="userSpaceOnUse">
<stop stop-color="#3634A3"/>
<stop offset="1" stop-color="#0A84FF"/>
</linearGradient>
<linearGradient id="paint5_linear_2776_2426" x1="33.7841" y1="32.4185" x2="60.2361" y2="45.7816" gradientUnits="userSpaceOnUse">
<stop stop-color="#3634A3"/>
<stop offset="1" stop-color="#0A84FF"/>
</linearGradient>
<linearGradient id="paint6_linear_2776_2426" x1="9.82499" y1="41.2016" x2="51.8149" y2="20.3668" gradientUnits="userSpaceOnUse">
<stop stop-color="#3634A3"/>
<stop offset="1" stop-color="#0A84FF"/>
</linearGradient>
<linearGradient id="paint7_linear_2776_2426" x1="41.3779" y1="17.3854" x2="67.8297" y2="30.7481" gradientUnits="userSpaceOnUse">
<stop stop-color="#3634A3"/>
<stop offset="1" stop-color="#0A84FF"/>
</linearGradient>
<linearGradient id="paint8_linear_2776_2426" x1="9.32583" y1="40.1952" x2="51.316" y2="19.3601" gradientUnits="userSpaceOnUse">
<stop stop-color="#3634A3"/>
<stop offset="1" stop-color="#0A84FF"/>
</linearGradient>
<linearGradient id="paint9_linear_2776_2426" x1="39.9778" y1="20.1577" x2="66.4297" y2="33.5206" gradientUnits="userSpaceOnUse">
<stop stop-color="#3634A3"/>
<stop offset="1" stop-color="#0A84FF"/>
</linearGradient>
<linearGradient id="paint10_linear_2776_2426" x1="9.00052" y1="39.5408" x2="50.9907" y2="18.7058" gradientUnits="userSpaceOnUse">
<stop stop-color="#3634A3"/>
<stop offset="1" stop-color="#0A84FF"/>
</linearGradient>
<linearGradient id="paint11_linear_2776_2426" x1="38.6884" y1="22.709" x2="65.1403" y2="36.0719" gradientUnits="userSpaceOnUse">
<stop stop-color="#3634A3"/>
<stop offset="1" stop-color="#0A84FF"/>
</linearGradient>
<linearGradient id="paint12_linear_2776_2426" x1="9.56406" y1="40.6745" x2="51.5542" y2="19.8396" gradientUnits="userSpaceOnUse">
<stop stop-color="#3634A3"/>
<stop offset="1" stop-color="#0A84FF"/>
</linearGradient>
<linearGradient id="paint13_linear_2776_2426" x1="40.7034" y1="18.7217" x2="67.1554" y2="32.0846" gradientUnits="userSpaceOnUse">
<stop stop-color="#3634A3"/>
<stop offset="1" stop-color="#0A84FF"/>
</linearGradient>
<linearGradient id="paint14_linear_2776_2426" x1="10.4074" y1="42.3769" x2="52.3975" y2="21.5419" gradientUnits="userSpaceOnUse">
<stop stop-color="#3634A3"/>
<stop offset="1" stop-color="#0A84FF"/>
</linearGradient>
<linearGradient id="paint15_linear_2776_2426" x1="42.5919" y1="14.981" x2="69.0438" y2="28.3439" gradientUnits="userSpaceOnUse">
<stop stop-color="#3634A3"/>
<stop offset="1" stop-color="#0A84FF"/>
</linearGradient>
<linearGradient id="paint16_linear_2776_2426" x1="8.64462" y1="38.8241" x2="50.6347" y2="17.9892" gradientUnits="userSpaceOnUse">
<stop stop-color="#3634A3"/>
<stop offset="1" stop-color="#0A84FF"/>
</linearGradient>
<linearGradient id="paint17_linear_2776_2426" x1="35.7795" y1="28.4666" x2="62.2313" y2="41.8294" gradientUnits="userSpaceOnUse">
<stop stop-color="#3634A3"/>
<stop offset="1" stop-color="#0A84FF"/>
</linearGradient>
<linearGradient id="paint18_linear_2776_2426" x1="8.77417" y1="39.0828" x2="50.7643" y2="18.2479" gradientUnits="userSpaceOnUse">
<stop stop-color="#3634A3"/>
<stop offset="1" stop-color="#0A84FF"/>
</linearGradient>
<linearGradient id="paint19_linear_2776_2426" x1="32.1456" y1="35.6618" x2="58.5975" y2="49.0247" gradientUnits="userSpaceOnUse">
<stop stop-color="#3634A3"/>
<stop offset="1" stop-color="#0A84FF"/>
</linearGradient>
<linearGradient id="paint20_linear_2776_2426" x1="8.76588" y1="39.0686" x2="50.756" y2="18.2337" gradientUnits="userSpaceOnUse">
<stop stop-color="#3634A3"/>
<stop offset="1" stop-color="#0A84FF"/>
</linearGradient>
<linearGradient id="paint21_linear_2776_2426" x1="37.2545" y1="25.5467" x2="63.7064" y2="38.9096" gradientUnits="userSpaceOnUse">
<stop stop-color="#3634A3"/>
<stop offset="1" stop-color="#0A84FF"/>
</linearGradient>
<linearGradient id="paint22_linear_2776_2426" x1="72.8952" y1="64.2596" x2="30.9051" y2="85.0978" gradientUnits="userSpaceOnUse">
<stop stop-color="#3634A3"/>
<stop offset="1" stop-color="#0A84FF"/>
</linearGradient>
<linearGradient id="paint23_linear_2776_2426" x1="41.9524" y1="76.1096" x2="15.5006" y2="62.7467" gradientUnits="userSpaceOnUse">
<stop stop-color="#3634A3"/>
<stop offset="1" stop-color="#0A84FF"/>
</linearGradient>
<linearGradient id="paint24_linear_2776_2426" x1="70.4624" y1="59.3566" x2="28.4723" y2="80.1949" gradientUnits="userSpaceOnUse">
<stop stop-color="#3634A3"/>
<stop offset="1" stop-color="#0A84FF"/>
</linearGradient>
<linearGradient id="paint25_linear_2776_2426" x1="39.3243" y1="81.3115" x2="12.8725" y2="67.9486" gradientUnits="userSpaceOnUse">
<stop stop-color="#3634A3"/>
<stop offset="1" stop-color="#0A84FF"/>
</linearGradient>
<linearGradient id="paint26_linear_2776_2426" x1="69.2801" y1="56.9745" x2="27.29" y2="77.8128" gradientUnits="userSpaceOnUse">
<stop stop-color="#3634A3"/>
<stop offset="1" stop-color="#0A84FF"/>
</linearGradient>
<linearGradient id="paint27_linear_2776_2426" x1="36.8551" y1="86.1989" x2="10.4033" y2="72.836" gradientUnits="userSpaceOnUse">
<stop stop-color="#3634A3"/>
<stop offset="1" stop-color="#0A84FF"/>
</linearGradient>
<linearGradient id="paint28_linear_2776_2426" x1="69.618" y1="57.6537" x2="27.6276" y2="78.4918" gradientUnits="userSpaceOnUse">
<stop stop-color="#3634A3"/>
<stop offset="1" stop-color="#0A84FF"/>
</linearGradient>
<linearGradient id="paint29_linear_2776_2426" x1="37.4353" y1="85.0524" x2="10.9833" y2="71.6897" gradientUnits="userSpaceOnUse">
<stop stop-color="#3634A3"/>
<stop offset="1" stop-color="#0A84FF"/>
</linearGradient>
<linearGradient id="paint30_linear_2776_2426" x1="71.3821" y1="61.2079" x2="29.3918" y2="82.046" gradientUnits="userSpaceOnUse">
<stop stop-color="#3634A3"/>
<stop offset="1" stop-color="#0A84FF"/>
</linearGradient>
<linearGradient id="paint31_linear_2776_2426" x1="44.2481" y1="71.5668" x2="17.7963" y2="58.204" gradientUnits="userSpaceOnUse">
<stop stop-color="#3634A3"/>
<stop offset="1" stop-color="#0A84FF"/>
</linearGradient>
<linearGradient id="paint32_linear_2776_2426" x1="71.2601" y1="60.9631" x2="29.2699" y2="81.8013" gradientUnits="userSpaceOnUse">
<stop stop-color="#3634A3"/>
<stop offset="1" stop-color="#0A84FF"/>
</linearGradient>
<linearGradient id="paint33_linear_2776_2426" x1="42.7726" y1="74.4867" x2="16.3208" y2="61.1238" gradientUnits="userSpaceOnUse">
<stop stop-color="#3634A3"/>
<stop offset="1" stop-color="#0A84FF"/>
</linearGradient>
<linearGradient id="paint34_linear_2776_2426" x1="71.0254" y1="60.4908" x2="29.0354" y2="81.3287" gradientUnits="userSpaceOnUse">
<stop stop-color="#3634A3"/>
<stop offset="1" stop-color="#0A84FF"/>
</linearGradient>
<linearGradient id="paint35_linear_2776_2426" x1="41.3389" y1="77.3246" x2="14.8872" y2="63.9619" gradientUnits="userSpaceOnUse">
<stop stop-color="#3634A3"/>
<stop offset="1" stop-color="#0A84FF"/>
</linearGradient>
<linearGradient id="paint36_linear_2776_2426" x1="70.7011" y1="59.8357" x2="28.7108" y2="80.6741" gradientUnits="userSpaceOnUse">
<stop stop-color="#3634A3"/>
<stop offset="1" stop-color="#0A84FF"/>
</linearGradient>
<linearGradient id="paint37_linear_2776_2426" x1="40.0506" y1="79.8753" x2="13.5987" y2="66.5124" gradientUnits="userSpaceOnUse">
<stop stop-color="#3634A3"/>
<stop offset="1" stop-color="#0A84FF"/>
</linearGradient>
<linearGradient id="paint38_linear_2776_2426" x1="70.2012" y1="58.8295" x2="28.2108" y2="79.6676" gradientUnits="userSpaceOnUse">
<stop stop-color="#3634A3"/>
<stop offset="1" stop-color="#0A84FF"/>
</linearGradient>
<linearGradient id="paint39_linear_2776_2426" x1="38.6497" y1="82.6483" x2="12.1978" y2="69.2855" gradientUnits="userSpaceOnUse">
<stop stop-color="#3634A3"/>
<stop offset="1" stop-color="#0A84FF"/>
</linearGradient>
<linearGradient id="paint40_linear_2776_2426" x1="68.8592" y1="56.1276" x2="26.8691" y2="76.9657" gradientUnits="userSpaceOnUse">
<stop stop-color="#3634A3"/>
<stop offset="1" stop-color="#0A84FF"/>
</linearGradient>
<linearGradient id="paint41_linear_2776_2426" x1="36.2205" y1="87.4544" x2="9.76867" y2="74.0916" gradientUnits="userSpaceOnUse">
<stop stop-color="#3634A3"/>
<stop offset="1" stop-color="#0A84FF"/>
</linearGradient>
<linearGradient id="paint42_linear_2776_2426" x1="25.3308" y1="50.0168" x2="54.6993" y2="50.0168" gradientUnits="userSpaceOnUse">
<stop stop-color="#3634A3"/>
<stop offset="1" stop-color="#0A84FF"/>
</linearGradient>
<linearGradient id="paint43_linear_2776_2426" x1="32.869" y1="50.0167" x2="47.1612" y2="50.0167" gradientUnits="userSpaceOnUse">
<stop stop-color="#3634A3"/>
<stop offset="1" stop-color="#0A84FF"/>
</linearGradient>
</defs>
</svg>
