<svg width="32" height="32" viewBox="0 0 32 32" fill="none" xmlns="http://www.w3.org/2000/svg">
<path opacity="0.2" fill-rule="evenodd" clip-rule="evenodd" d="M0 16C0 7.16344 7.16344 0 16 0C24.8366 0 32 7.16344 32 16C32 24.8366 24.8366 32 16 32C7.16344 32 0 24.8366 0 16Z" fill="white"/>
<g clip-path="url(#clip0_2738_1338)">
<path d="M22.1339 12.5107C21.3349 12.5107 20.5977 12.2461 20.0057 11.7995C19.3268 11.2877 18.839 10.5368 18.6667 9.67137C18.6241 9.45754 18.6011 9.23687 18.5989 9.01074H16.3165V15.2473L16.3138 18.6634C16.3138 19.5766 15.7191 20.351 14.8947 20.6234C14.6554 20.7024 14.397 20.7398 14.1279 20.7251C13.7845 20.7062 13.4627 20.6026 13.1829 20.4352C12.5877 20.0792 12.1841 19.4334 12.1731 18.6945C12.1559 17.5398 13.0894 16.5984 14.2433 16.5984C14.4711 16.5984 14.6898 16.6355 14.8947 16.7031V14.9985V14.3857C14.6786 14.3537 14.4588 14.337 14.2365 14.337C12.9735 14.337 11.7922 14.862 10.9479 15.8079C10.3097 16.5226 9.92684 17.4345 9.86778 18.3907C9.79039 19.6469 10.25 20.841 11.1414 21.722C11.2724 21.8514 11.41 21.9714 11.5538 22.0821C12.3181 22.6703 13.2524 22.9891 14.2365 22.9891C14.4588 22.9891 14.6786 22.9727 14.8947 22.9407C15.8139 22.8046 16.6622 22.3837 17.3315 21.722C18.154 20.9091 18.6085 19.8298 18.6134 18.6811L18.6016 13.5799C18.994 13.8826 19.4231 14.133 19.8835 14.3275C20.5997 14.6296 21.359 14.7827 22.1405 14.7825V13.1252V12.5102C22.141 12.5107 22.1345 12.5107 22.1339 12.5107Z" fill="white"/>
</g>
<defs>
<clipPath id="clip0_2738_1338">
<rect width="14" height="14" fill="white" transform="translate(9 9)"/>
</clipPath>
</defs>
</svg>
