<svg width="100" height="100" viewBox="0 0 100 100" fill="none" xmlns="http://www.w3.org/2000/svg">
<path d="M29.6355 88.0472L12.5721 71.1271C9.75871 68.3337 9.40871 63.8104 11.9487 60.767C12.621 59.9563 13.4547 59.2944 14.3968 58.8235C15.3389 58.3525 16.3687 58.083 17.4207 58.0318C18.4727 57.9807 19.5238 58.1492 20.5071 58.5266C21.4904 58.904 22.3844 59.4819 23.1321 60.2237L34.3788 71.3738L59.379 46.6036C60.075 45.8514 60.9162 45.248 61.8518 44.8297C62.7874 44.4114 63.7981 44.1869 64.8228 44.1698C65.8475 44.1526 66.8651 44.3432 67.8142 44.73C68.7632 45.1167 69.6241 45.6917 70.345 46.4202C71.0658 47.1487 71.6317 48.0157 72.0084 48.9688C72.3851 49.9219 72.5649 50.9414 72.5369 51.9659C72.509 52.9904 72.2738 53.9986 71.8457 54.9297C71.4175 55.8608 70.8052 56.6956 70.0457 57.3837L39.1055 88.0505C37.8449 89.2977 36.1431 89.9969 34.3698 89.9963C32.5965 89.9957 30.8952 89.2952 29.6355 88.0472Z" fill="url(#paint0_linear_2776_2461)"/>
<path d="M52.3062 74.9138C44.2861 82.9372 34.3794 71.3738 34.3794 71.3738L23.136 60.2237C22.3883 59.482 21.4943 58.904 20.511 58.5266C19.5277 58.1493 18.4766 57.9808 17.4246 58.0319C16.3726 58.083 15.3428 58.3526 14.4007 58.8235C13.4586 59.2944 12.6249 59.9563 11.9526 60.7671C9.41262 63.8104 9.76262 68.3338 12.576 71.1271L29.6394 88.0505C30.9002 89.2994 32.6031 90 34.3777 90C36.1524 90 37.8552 89.2994 39.1161 88.0505L53.0462 74.2305C52.8162 74.4305 52.5662 74.6672 52.3062 74.9138Z" fill="url(#paint1_linear_2776_2461)"/>
<path d="M37.9723 54.0741C42.8556 52.4468 45.4952 47.1689 43.8679 42.2856C42.2405 37.4023 36.9627 34.7627 32.0793 36.3901C27.196 38.0174 24.5565 43.2953 26.1838 48.1786C27.8111 53.0619 33.089 55.7014 37.9723 54.0741Z" fill="url(#paint2_linear_2776_2461)"/>
<path d="M69.1225 37.6068C69.175 37.8278 69.1702 38.0585 69.1085 38.2771C69.0468 38.4957 68.9303 38.6949 68.77 38.8558C68.6098 39.0168 68.411 39.1341 68.1927 39.1967C67.9744 39.2593 67.7437 39.2651 67.5225 39.2135C65.18 38.6959 62.7399 38.8367 60.4725 39.6201C60.2965 39.6811 60.1097 39.7045 59.9242 39.6889C59.7386 39.6733 59.5584 39.619 59.3951 39.5295C59.2318 39.44 59.0891 39.3173 58.9761 39.1693C58.8631 39.0213 58.7824 38.8513 58.7391 38.6701C57.8943 35.4825 56.4171 32.4974 54.3955 29.8921C52.3738 27.2869 49.8489 25.1147 46.9709 23.5049C44.0929 21.895 40.9206 20.8803 37.6425 20.5211C34.3645 20.1619 31.0477 20.4655 27.8894 21.4139C24.731 22.3622 21.7957 23.936 19.2578 26.0416C16.7199 28.1472 14.6313 30.7416 13.1162 33.6706C11.6011 36.5996 10.6904 39.8034 10.4384 43.0914C10.1863 46.3794 10.598 49.6845 11.6489 52.8102C11.7467 53.1047 11.7402 53.4239 11.6303 53.7141C11.5204 54.0043 11.3139 54.2478 11.0455 54.4036C9.87367 55.108 8.81878 55.9908 7.91885 57.0202C7.10346 57.9521 6.42958 58.9989 5.91884 60.1269C5.81726 60.3655 5.64831 60.5693 5.43268 60.7133C5.21705 60.8574 4.9641 60.9354 4.7048 60.9379C4.4455 60.9403 4.19111 60.8672 3.97277 60.7273C3.75443 60.5874 3.58162 60.3869 3.4755 60.1503C0.967868 54.9646 -0.215198 49.2383 0.0321465 43.4835C0.778817 25.2601 16.7389 10 34.9823 10C42.9709 10.0074 50.716 12.7511 56.9278 17.7742C63.1396 22.7973 67.4434 29.7966 69.1225 37.6068Z" fill="url(#paint3_linear_2776_2461)"/>
<path d="M35.0251 27.7333C34.5574 27.7333 34.1089 27.5475 33.7782 27.2168C33.4475 26.8861 33.2617 26.4376 33.2617 25.9699V17.5999C33.2626 17.5669 33.2763 17.5355 33.3 17.5125C33.3236 17.4894 33.3554 17.4766 33.3884 17.4766H36.6651C36.6978 17.4766 36.7292 17.4896 36.7523 17.5127C36.7754 17.5358 36.7884 17.5672 36.7884 17.5999V25.9699C36.7884 26.4376 36.6026 26.8861 36.2719 27.2168C35.9412 27.5475 35.4927 27.7333 35.0251 27.7333Z" fill="url(#paint4_linear_2776_2461)"/>
<path d="M17.539 45.2236C17.539 45.6913 17.3532 46.1398 17.0225 46.4705C16.6918 46.8011 16.2433 46.9869 15.7756 46.9869H7.40561C7.38913 46.9869 7.37281 46.9836 7.35762 46.9772C7.34244 46.9708 7.32869 46.9614 7.3172 46.9496C7.3057 46.9378 7.29669 46.9238 7.29069 46.9085C7.28469 46.8931 7.28183 46.8767 7.28227 46.8603V43.5836C7.28183 43.5671 7.28469 43.5507 7.29069 43.5354C7.29669 43.52 7.3057 43.506 7.3172 43.4942C7.32869 43.4824 7.34244 43.473 7.35762 43.4666C7.37281 43.4602 7.38913 43.4569 7.40561 43.4569H15.7756C16.0075 43.4569 16.2371 43.5026 16.4512 43.5915C16.6654 43.6803 16.8599 43.8105 17.0237 43.9746C17.1875 44.1387 17.3173 44.3334 17.4057 44.5478C17.4941 44.7621 17.5394 44.9917 17.539 45.2236Z" fill="url(#paint5_linear_2776_2461)"/>
<defs>
<linearGradient id="paint0_linear_2776_2461" x1="29.3955" y1="70.5704" x2="61.4723" y2="38.9469" gradientUnits="userSpaceOnUse">
<stop stop-color="#3634A3"/>
<stop offset="1" stop-color="#0A84FF"/>
</linearGradient>
<linearGradient id="paint1_linear_2776_2461" x1="14.6993" y1="55.6604" x2="41.9028" y2="81.6705" gradientUnits="userSpaceOnUse">
<stop stop-color="#3634A3"/>
<stop offset="1" stop-color="#0A84FF"/>
</linearGradient>
<linearGradient id="paint2_linear_2776_2461" x1="17.5381" y1="61.2265" x2="39.4987" y2="41.5894" gradientUnits="userSpaceOnUse">
<stop stop-color="#3634A3"/>
<stop offset="1" stop-color="#0A84FF"/>
</linearGradient>
<linearGradient id="paint3_linear_2776_2461" x1="-1.5312" y1="42.4568" x2="59.2325" y2="20.8634" gradientUnits="userSpaceOnUse">
<stop stop-color="#3634A3"/>
<stop offset="1" stop-color="#0A84FF"/>
</linearGradient>
<linearGradient id="paint4_linear_2776_2461" x1="-3.7718" y1="36.1533" x2="56.9918" y2="14.5599" gradientUnits="userSpaceOnUse">
<stop stop-color="#3634A3"/>
<stop offset="1" stop-color="#0A84FF"/>
</linearGradient>
<linearGradient id="paint5_linear_2776_2461" x1="0.828906" y1="49.0969" x2="61.5925" y2="27.5035" gradientUnits="userSpaceOnUse">
<stop stop-color="#3634A3"/>
<stop offset="1" stop-color="#0A84FF"/>
</linearGradient>
</defs>
</svg>
