<svg width="452" height="83" viewBox="0 0 452 83" fill="none" xmlns="http://www.w3.org/2000/svg">
<path d="M451.989 0.000488281V65.3749C451.989 73.4435 444.076 77.4136 437.915 75.2039H436.081C437.099 75.2039 437.915 74.3787 437.915 73.3701V10.4164C437.915 4.6583 442.582 0.000488281 448.331 0.000488281H451.989Z" fill="url(#paint0_linear_3170_21105)"/>
<path fill-rule="evenodd" clip-rule="evenodd" d="M403.385 54.2345C404.944 61.267 398.819 67.3918 391.786 65.8331C388.247 65.0446 385.387 62.1839 384.598 58.6447C383.039 51.6121 389.173 45.4873 396.197 47.046C399.745 47.8345 402.606 50.6952 403.385 54.2345Z" fill="url(#paint1_linear_3170_21105)"/>
<path d="M392.236 20.0253C392.236 20.0253 394.088 15.8076 394.978 13.7904C397.206 8.71082 404.385 8.67414 406.677 13.717L403.266 6.2077C401.854 3.10861 399.076 0.752195 395.72 0.156215C391.09 -0.659818 386.625 1.78829 384.745 5.93263L350.068 82.5114H357.954C362.08 82.5114 365.821 80.0725 367.489 76.2857L392.236 20.0253Z" fill="url(#paint2_linear_3170_21105)"/>
<path d="M451.999 65.3748V68.4464C451.999 72.334 450.422 75.8549 447.873 78.3947C445.334 80.9436 441.813 82.5207 437.925 82.5207V82.5115C428.866 82.5115 420.669 77.166 417.02 68.8682L395.565 20.0895C394.923 18.65 392.906 18.6317 392.236 20.0253C393.172 17.8982 394.088 15.8076 394.978 13.7905C397.206 8.7109 404.385 8.67423 406.677 13.7171L420.403 43.9379L425.593 55.3623L432.094 69.6842C432.112 69.73 432.13 69.7759 432.158 69.8126C433.46 72.5907 435.559 74.3512 437.925 75.2039C444.087 77.4136 451.999 73.4435 451.999 65.3748Z" fill="url(#paint3_linear_3170_21105)"/>
<path d="M186.093 62.9174V82.5205H189.742C195.491 82.5205 200.158 77.8535 200.158 72.1046V56.5083H192.502C188.963 56.5083 186.093 59.3782 186.093 62.9174Z" fill="url(#paint4_linear_3170_21105)"/>
<path d="M206.494 0.000488281H196.509C190.76 0.000488281 186.093 4.66747 186.093 10.4164V12.5894V28.2591H189.669C195.418 28.2591 200.085 23.5921 200.085 17.8432V12.5894V6.40956C200.085 2.87036 202.954 0.000488281 206.494 0.000488281Z" fill="url(#paint5_linear_3170_21105)"/>
<path d="M243.821 7.72988C237.668 2.60446 229.169 0.000488281 218.56 0.000488281H206.485C202.946 0.000488281 200.076 2.87036 200.076 6.40956V12.5894H218.212C225.089 12.5894 230.379 14.0473 233.918 16.908C237.421 19.7503 239.126 22.8403 239.126 28.2499C239.126 33.6504 237.421 36.7495 233.918 39.5827C230.379 42.4526 225.089 43.9013 218.212 43.9013H196.5C190.751 43.9013 186.084 48.5682 186.084 54.3171V62.8993C186.084 59.36 188.954 56.4902 192.493 56.4902H218.56C229.169 56.4902 237.668 53.8862 243.821 48.7608C250.037 43.5803 253.2 37.2813 253.2 28.2408C253.2 19.2185 250.046 12.9103 243.821 7.72988Z" fill="url(#paint6_linear_3170_21105)"/>
<path d="M44.8002 59.8093C44.1583 61.2672 42.0862 61.2672 41.4443 59.8002L44.5068 66.7777C46.744 71.894 54.0057 71.894 56.243 66.7777L85.5285 0.000488281H78.0008C73.8748 0.000488281 70.1431 2.43025 68.4743 6.20785L44.8002 59.8093Z" fill="url(#paint7_linear_3170_21105)"/>
<path d="M44.4967 66.7869L41.4343 59.8093L17.9619 6.23535C16.3023 2.44859 12.5614 0.000488281 8.42624 0.000488281H0L33.5674 76.2859C34.9427 79.4125 37.7301 81.7872 41.1043 82.3649C45.7162 83.1534 50.1448 80.6869 51.9602 76.5426L56.2421 66.7869C53.9957 71.9031 46.7431 71.9031 44.4967 66.7869Z" fill="url(#paint8_linear_3170_21105)"/>
<path d="M118.352 17.5863L106.671 3.07192C105.259 1.32066 103.196 0.128702 100.949 0.0186753C96.5301 -0.210548 92.8809 3.30115 92.8809 7.66555V82.5206H96.5392C102.288 82.5206 106.955 77.8536 106.955 72.1047V25.4166V21.6023C106.955 15.56 114.565 12.8735 118.352 17.5863Z" fill="url(#paint9_linear_3170_21105)"/>
<path d="M152.818 60.4238L150.15 57.1138L118.352 17.5958C114.556 12.883 106.946 15.5695 106.946 21.6118V25.4261L150.59 79.6693C152.039 81.4756 154.24 82.5301 156.559 82.5301C160.786 82.5301 164.215 79.1009 164.215 74.874V56.417C164.224 62.4501 156.614 65.1366 152.818 60.4238Z" fill="url(#paint10_linear_3170_21105)"/>
<path d="M150.15 57.1045L152.819 60.4145C156.614 65.1273 164.225 62.45 164.225 56.3985V0.000488281H160.566C154.817 0.000488281 150.15 4.66747 150.15 10.4164V57.1045Z" fill="url(#paint11_linear_3170_21105)"/>
<path d="M288.775 0.000488281C292.315 0.000488281 295.184 2.87036 295.184 6.40956V12.5894H322.563V10.4164C322.563 4.66747 317.896 0.000488281 312.147 0.000488281H288.775Z" fill="url(#paint12_linear_3170_21105)"/>
<path d="M288.775 0.000488281H264.331H253.851V2.17352C253.851 7.92243 258.518 12.5894 264.266 12.5894H281.229V82.5207H284.768C290.517 82.5207 295.184 77.8538 295.184 72.1048V12.5894V6.40956C295.184 2.87036 292.314 0.000488281 288.775 0.000488281Z" fill="url(#paint13_linear_3170_21105)"/>
<defs>
<linearGradient id="paint0_linear_3170_21105" x1="444.039" y1="0.00360571" x2="444.039" y2="75.812" gradientUnits="userSpaceOnUse">
<stop stop-color="#3EDBFF"/>
<stop offset="1" stop-color="#04BBF4"/>
</linearGradient>
<linearGradient id="paint1_linear_3170_21105" x1="384.354" y1="56.4443" x2="403.632" y2="56.4443" gradientUnits="userSpaceOnUse">
<stop stop-color="#3EDBFF"/>
<stop offset="1" stop-color="#04BBF4"/>
</linearGradient>
<linearGradient id="paint2_linear_3170_21105" x1="396.63" y1="7.82446" x2="362.352" y2="82.1709" gradientUnits="userSpaceOnUse">
<stop stop-color="#3EDBFF"/>
<stop offset="1" stop-color="#04BBF4"/>
</linearGradient>
<linearGradient id="paint3_linear_3170_21105" x1="440.277" y1="79.2119" x2="406.574" y2="11.4584" gradientUnits="userSpaceOnUse">
<stop stop-color="#3EDBFF"/>
<stop offset="1" stop-color="#04BBF4"/>
</linearGradient>
<linearGradient id="paint4_linear_3170_21105" x1="193.121" y1="81.9784" x2="193.121" y2="56.9126" gradientUnits="userSpaceOnUse">
<stop stop-color="#278EFF"/>
<stop offset="1" stop-color="#0667E1"/>
</linearGradient>
<linearGradient id="paint5_linear_3170_21105" x1="196.289" y1="3.54088" x2="196.289" y2="27.3471" gradientUnits="userSpaceOnUse">
<stop stop-color="#278EFF"/>
<stop offset="1" stop-color="#0667E1"/>
</linearGradient>
<linearGradient id="paint6_linear_3170_21105" x1="220.986" y1="41.8139" x2="199.444" y2="17.7237" gradientUnits="userSpaceOnUse">
<stop stop-color="#278EFF"/>
<stop offset="1" stop-color="#0667E1"/>
</linearGradient>
<linearGradient id="paint7_linear_3170_21105" x1="74.3588" y1="5.79442" x2="49.6895" y2="61.387" gradientUnits="userSpaceOnUse">
<stop stop-color="#278EFF"/>
<stop offset="1" stop-color="#0667E1"/>
</linearGradient>
<linearGradient id="paint8_linear_3170_21105" x1="47.1996" y1="78.2537" x2="14.5389" y2="1.46651" gradientUnits="userSpaceOnUse">
<stop stop-color="#278EFF"/>
<stop offset="1" stop-color="#0667E1"/>
</linearGradient>
<linearGradient id="paint9_linear_3170_21105" x1="105.62" y1="8.28464" x2="105.62" y2="81.9482" gradientUnits="userSpaceOnUse">
<stop stop-color="#278EFF"/>
<stop offset="1" stop-color="#0667E1"/>
</linearGradient>
<linearGradient id="paint10_linear_3170_21105" x1="162.41" y1="73.9706" x2="115.388" y2="18.1463" gradientUnits="userSpaceOnUse">
<stop stop-color="#278EFF"/>
<stop offset="1" stop-color="#0667E1"/>
</linearGradient>
<linearGradient id="paint11_linear_3170_21105" x1="157.187" y1="1.56736" x2="157.187" y2="56.0019" gradientUnits="userSpaceOnUse">
<stop stop-color="#278EFF"/>
<stop offset="1" stop-color="#0667E1"/>
</linearGradient>
<linearGradient id="paint12_linear_3170_21105" x1="315.462" y1="1.33402" x2="292.499" y2="12.9687" gradientUnits="userSpaceOnUse">
<stop stop-color="#278EFF"/>
<stop offset="1" stop-color="#0667E1"/>
</linearGradient>
<linearGradient id="paint13_linear_3170_21105" x1="288.364" y1="7.69449" x2="261.958" y2="63.982" gradientUnits="userSpaceOnUse">
<stop stop-color="#278EFF"/>
<stop offset="1" stop-color="#0667E1"/>
</linearGradient>
</defs>
</svg>
