<svg width="400" height="106" viewBox="0 0 400 106" fill="none" xmlns="http://www.w3.org/2000/svg">
<path d="M57.4679 34.2157C57.1925 31.5378 55.9327 29.1528 54.0575 27.43C51.9948 25.5256 50.8697 22.8066 50.8697 20.0056V19.7653C50.8697 17.3745 51.7663 15.1009 53.243 13.214C54.3212 11.8311 54.9658 10.0907 54.9658 8.19794C54.9658 3.66827 51.3034 0.00585986 46.7737 0C42.244 0.00585986 38.5816 3.66827 38.5816 8.19794C38.5816 10.0907 39.2262 11.8311 40.3044 13.214C41.7811 15.1009 42.6777 17.3745 42.6777 19.7653V20.0056C42.6777 22.8066 41.5526 25.5256 39.4899 27.43C37.6147 29.1528 36.3549 31.5378 36.0794 34.2157C36.0736 34.2626 36.0677 34.3036 36.0677 34.3505C36.0619 34.3681 36.0619 34.3857 36.0619 34.4091C36.056 34.4208 36.056 34.4325 36.056 34.4501C36.0443 34.5556 36.0384 34.6611 36.0326 34.7724C36.0267 34.9599 36.0209 35.1416 36.0209 35.3291C36.0209 35.4522 36.0209 35.5752 36.0267 35.6983C36.0267 35.7217 36.0267 35.7452 36.0326 35.7744C36.0326 35.8389 36.0384 35.9034 36.0384 35.9678C36.0443 35.9971 36.0443 36.0206 36.0443 36.044C36.0501 36.1671 36.0619 36.2843 36.0736 36.4015C36.0736 36.419 36.0794 36.4366 36.0794 36.4483C36.1205 36.8234 36.1791 37.1867 36.2611 37.55C36.2611 37.5617 36.267 37.5734 36.267 37.5851C36.308 37.7609 36.3431 37.9426 36.39 38.1125C36.4252 38.2356 36.4603 38.3528 36.4955 38.47C36.5131 38.5286 36.5307 38.5872 36.5541 38.6399C36.5893 38.763 36.6303 38.8802 36.6772 38.9974C36.683 39.0267 36.6947 39.0501 36.7006 39.0794C36.7123 39.1087 36.7182 39.1322 36.7299 39.1614C36.7533 39.2142 36.7709 39.2611 36.7944 39.3138C36.8237 39.3841 36.8471 39.4486 36.8764 39.513C36.8998 39.5658 36.9174 39.6244 36.9408 39.6771C36.9701 39.7416 36.9994 39.8002 37.0287 39.8646C37.0698 39.9701 37.1225 40.0756 37.1752 40.1811C37.2221 40.2748 37.269 40.3686 37.3217 40.4565C37.3686 40.5444 37.4214 40.6381 37.4741 40.726C37.4917 40.7671 37.5151 40.8022 37.5386 40.8374C37.5444 40.8491 37.5561 40.8667 37.562 40.8784C37.562 40.8843 37.562 40.8842 37.562 40.8901C38.6168 42.8473 38.6578 45.2967 37.4624 47.3653C36.267 49.4396 34.1281 50.6233 31.9014 50.6937C32.042 50.6995 32.1768 50.7054 32.3116 50.7112C32.4463 50.7171 32.5811 50.7288 32.7159 50.7464C32.9737 50.7698 33.2316 50.805 33.4894 50.846C33.6652 50.8753 33.841 50.9105 34.0226 50.9515C34.2512 51.0042 34.4856 51.0628 34.7141 51.1273C34.843 51.1683 34.9719 51.2035 35.1009 51.2503C35.2298 51.2914 35.3587 51.3382 35.4876 51.3851C35.6107 51.432 35.7396 51.4847 35.8626 51.5375C36.6186 51.848 37.3335 52.2524 38.0015 52.7329C39.0445 51.9887 39.9587 51.0452 40.6912 49.926C40.8025 49.7619 40.908 49.5861 41.0076 49.4162C41.1072 49.2404 41.2068 49.0646 41.2947 48.883C41.8983 47.6875 42.2557 46.4277 42.3788 45.1502C42.3788 45.1444 42.3788 45.1444 42.3788 45.1385C42.3847 45.1385 42.3905 45.1444 42.3964 45.1444C42.4315 44.7811 42.4491 44.4236 42.4491 44.0603C42.4491 43.8318 42.4433 43.6032 42.4257 43.3806C42.414 43.1696 42.3964 42.9586 42.3671 42.7535C42.3671 42.7242 42.3612 42.6949 42.3554 42.6656C42.3319 42.4488 42.2968 42.2379 42.2557 42.0269C42.2206 41.8277 42.1737 41.6343 42.1268 41.4409C42.1151 41.3999 42.1092 41.3648 42.0975 41.3237C42.0448 41.1186 41.9862 40.9135 41.9159 40.7085C41.8456 40.4975 41.7694 40.2807 41.6873 40.0697C41.6053 39.8588 41.5115 39.6537 41.4178 39.4486C41.3182 39.2435 41.2185 39.0384 41.1072 38.8392C41.1014 38.8216 41.0896 38.8099 41.0838 38.7923C41.0603 38.7571 41.0428 38.7161 41.0193 38.6751C41.0076 38.6575 40.9959 38.6399 40.99 38.6223C40.4333 37.6496 40.1169 36.5245 40.1169 35.3291C40.1169 33.3953 40.9373 31.655 42.2499 30.442C45.1564 27.7523 46.7737 23.961 46.7737 19.9997C46.7737 18.3414 46.5276 16.683 46.0119 15.1243C45.4962 13.5597 44.711 12.0948 43.6387 10.829C43.041 10.1141 42.6777 9.19412 42.6777 8.19209C42.6777 5.92432 44.5118 4.09604 46.7737 4.09604C49.0356 4.09604 50.8697 5.92432 50.8697 8.19209C50.8697 9.19412 50.5064 10.1141 49.9087 10.829C48.8364 12.0948 48.0511 13.5597 47.5355 15.1243C47.0198 16.683 46.7737 18.3414 46.7737 19.9997C46.7737 23.961 48.391 27.7523 51.2975 30.442C52.6101 31.655 53.4305 33.3953 53.4305 35.3291C53.4305 36.5245 53.1141 37.6496 52.5574 38.6223C52.6511 38.4641 52.7449 38.3118 52.8445 38.1653C52.868 38.1243 52.8914 38.0832 52.9207 38.0481C52.9734 37.9719 53.0262 37.8957 53.0848 37.8254C53.1844 37.673 53.2957 37.5266 53.4188 37.3801C53.4481 37.3332 53.4832 37.2922 53.5184 37.2511C53.6122 37.1339 53.7118 37.0167 53.8172 36.8995C53.8231 36.8937 53.8348 36.882 53.8407 36.8702C53.8465 36.8585 53.8583 36.8468 53.87 36.8351C53.8876 36.8175 53.9051 36.7999 53.9227 36.7765C53.9286 36.7706 53.9345 36.7648 53.9403 36.7589C53.993 36.7003 54.0458 36.6417 54.1044 36.589C54.1395 36.548 54.1747 36.5069 54.2157 36.4659L54.2333 36.4483C54.2685 36.4073 54.3036 36.3722 54.3388 36.3487C54.3622 36.3194 54.3974 36.2843 54.4325 36.2608C54.4618 36.2257 54.4911 36.2022 54.5204 36.1729C54.5497 36.1436 54.579 36.1202 54.6083 36.0909C54.6552 36.044 54.7021 36.003 54.749 35.9678C54.7724 35.9502 54.7959 35.9268 54.8193 35.9034C54.8779 35.8565 54.9423 35.8037 55.0068 35.751C55.0361 35.7159 55.0713 35.6924 55.1064 35.6631C55.1181 35.6573 55.124 35.6514 55.1357 35.6397C55.1826 35.5987 55.2295 35.5635 55.2705 35.5342C55.2764 35.5283 55.2881 35.5225 55.2939 35.5166C55.3115 35.499 55.3291 35.4815 55.3525 35.4697C55.3877 35.4346 55.4287 35.4111 55.4639 35.3877C55.5401 35.3232 55.6162 35.2705 55.6924 35.2236C55.7393 35.1826 55.7862 35.1533 55.833 35.124C55.8623 35.1006 55.8858 35.083 55.9151 35.0713C56.0967 34.9482 56.2843 34.831 56.4776 34.7197C56.6183 34.6318 56.7706 34.5556 56.9171 34.4794C57.0988 34.3857 57.2804 34.2978 57.4679 34.2157Z" fill="url(#paint0_linear_3170_21257)"/>
<path d="M36.0734 34.2158C33.6181 33.1141 30.9225 33.0145 28.4907 33.7763C25.8127 34.6084 22.8945 34.2275 20.4686 32.827L20.2576 32.7039C18.1891 31.5085 16.6655 29.5982 15.7689 27.3714C15.1126 25.7483 13.9231 24.3185 12.2882 23.3692C8.3738 21.1073 3.36948 22.4492 1.10171 26.3694C-1.1602 30.2955 0.181711 35.2998 4.10196 37.5617C5.74272 38.5052 7.571 38.8216 9.30552 38.5755C11.6788 38.2415 14.093 38.5989 16.1674 39.7944L16.3784 39.9116C18.8043 41.3121 20.5975 43.6443 21.2128 46.3808C21.7694 48.8654 23.2051 51.1508 25.385 52.7271C25.4201 52.7564 25.4553 52.7798 25.4963 52.8032C25.508 52.815 25.5256 52.8267 25.5432 52.8384C25.5491 52.8501 25.5608 52.856 25.5784 52.8618C25.6662 52.9263 25.7541 52.9849 25.8479 53.0435C26.0061 53.1431 26.1643 53.2369 26.3226 53.3306C26.428 53.3892 26.5335 53.4537 26.6448 53.5123C26.6624 53.524 26.6859 53.5357 26.7152 53.5474C26.7738 53.5767 26.8324 53.6061 26.8851 53.6412C26.9144 53.6529 26.932 53.6646 26.9554 53.6764C27.0668 53.735 27.1722 53.7818 27.2777 53.8287C27.2953 53.8404 27.3129 53.8404 27.3187 53.8463C27.6645 53.9987 28.0102 54.1276 28.3618 54.2389C28.3735 54.2448 28.3852 54.2448 28.3969 54.2506C28.5669 54.3034 28.7427 54.362 28.9126 54.4089C29.0357 54.4381 29.1529 54.4674 29.2759 54.4967C29.3345 54.5085 29.3931 54.526 29.4517 54.5319C29.5748 54.5612 29.6978 54.5846 29.8209 54.6022C29.8502 54.6139 29.8736 54.6139 29.9029 54.6257C29.9322 54.6315 29.9557 54.6374 29.9908 54.6432C30.0494 54.6491 30.0963 54.655 30.1549 54.6608C30.2311 54.6725 30.2955 54.6843 30.3659 54.6901C30.4245 54.696 30.4831 54.7077 30.5417 54.7136C30.612 54.7194 30.6764 54.7253 30.7467 54.7311C30.8581 54.7487 30.9753 54.7546 31.0925 54.7604C31.198 54.7663 31.3034 54.7722 31.4031 54.7722C31.5027 54.778 31.6081 54.778 31.7136 54.7722C31.7605 54.778 31.8015 54.7722 31.8425 54.7722C31.8543 54.7722 31.8777 54.7722 31.8894 54.7722C31.8953 54.778 31.8953 54.778 31.9011 54.778C34.122 54.8425 36.2667 56.032 37.4563 58.1006C38.6576 60.175 38.6107 62.6185 37.5559 64.5816C37.6321 64.4644 37.7024 64.3472 37.7786 64.2358C37.8489 64.1245 37.9309 64.0132 38.013 63.9018C38.1595 63.6909 38.3235 63.4858 38.4876 63.2807C38.599 63.1459 38.722 63.0111 38.8451 62.8705C39.0033 62.7006 39.1732 62.5248 39.3432 62.3607C39.4428 62.2669 39.5365 62.1732 39.642 62.0853C39.7416 61.9915 39.8471 61.9036 39.9526 61.8157C40.0522 61.7337 40.1635 61.6458 40.269 61.5696C40.9136 61.0715 41.6227 60.6555 42.3727 60.3156C42.2497 59.0381 41.8922 57.7783 41.2886 56.5829C41.2007 56.4071 41.1011 56.2254 41.0074 56.0555C40.9077 55.8797 40.8023 55.7097 40.6909 55.5398C39.9585 54.4206 39.0443 53.483 38.0013 52.7329C37.9954 52.7329 37.9954 52.7329 37.9895 52.7271C37.9895 52.7212 38.0013 52.7212 38.0013 52.7154C37.7024 52.5044 37.4035 52.311 37.0871 52.1294C36.8879 52.0122 36.6886 51.9067 36.4894 51.8071C36.3019 51.7133 36.1085 51.6196 35.9151 51.5434C35.8917 51.5258 35.8624 51.5199 35.8331 51.5082C35.6339 51.4203 35.4346 51.3441 35.2295 51.2738C35.042 51.2035 34.8487 51.1508 34.6553 51.0922C34.6143 51.0805 34.5791 51.0687 34.5381 51.057C34.333 50.9984 34.1279 50.9457 33.9169 50.9047C33.7001 50.8578 33.4716 50.8168 33.2489 50.7816C33.0262 50.7464 32.8036 50.723 32.575 50.7054C32.3465 50.6878 32.118 50.6703 31.8894 50.6703C31.8718 50.6644 31.8543 50.6703 31.8367 50.6644C31.7957 50.6644 31.7488 50.6644 31.7078 50.6644C31.6843 50.6644 31.6667 50.6644 31.6492 50.6644C30.5299 50.6585 29.3931 50.3714 28.3618 49.7737C26.6859 48.8068 25.5901 47.2247 25.1975 45.4843C24.3185 41.6226 21.8456 38.3294 18.4176 36.3488C16.9819 35.5225 15.4232 34.9014 13.8176 34.5732C12.2061 34.2392 10.5419 34.1865 8.9129 34.4795C7.99291 34.6377 7.01431 34.497 6.14705 33.9931C4.184 32.8621 3.51597 30.3541 4.64692 28.3969C5.77788 26.4397 8.28004 25.7658 10.2431 26.8968C11.1104 27.3949 11.7256 28.1743 12.0479 29.0474C12.6105 30.6061 13.4836 32.0183 14.5794 33.2489C15.6693 34.4736 16.9819 35.5167 18.4176 36.3488C21.8456 38.3294 25.9417 38.8216 29.7213 37.6496C31.4265 37.1223 33.3427 37.2805 35.0186 38.2474C36.0558 38.8451 36.8703 39.683 37.4328 40.6499C37.345 40.4917 37.2571 40.3335 37.1809 40.1752C37.1574 40.1342 37.134 40.0932 37.1164 40.0522C37.0754 39.9702 37.0344 39.8823 37.0051 39.8002C36.923 39.6361 36.8527 39.4662 36.7883 39.2904C36.7648 39.2435 36.7472 39.1908 36.7238 39.1381C36.6711 38.9974 36.6183 38.8509 36.5714 38.7044C36.5714 38.6986 36.5656 38.681 36.5597 38.6693C36.5539 38.6575 36.548 38.64 36.5422 38.6282C36.5363 38.6048 36.5304 38.5814 36.5187 38.5521C36.5187 38.5462 36.5129 38.5345 36.5129 38.5286C36.4894 38.4524 36.466 38.3763 36.4484 38.3001C36.4308 38.2474 36.4132 38.2005 36.3957 38.1419L36.3898 38.1184C36.3722 38.0657 36.3605 38.0188 36.3546 37.9778C36.3429 37.9426 36.3253 37.8958 36.3253 37.8547C36.3078 37.8137 36.3019 37.7727 36.2902 37.7375C36.2785 37.6965 36.2726 37.6614 36.2609 37.6203C36.2433 37.5559 36.2316 37.4973 36.2257 37.4387C36.2199 37.4094 36.214 37.3801 36.2023 37.3449C36.1906 37.2688 36.1788 37.1867 36.1671 37.1047C36.1495 37.0637 36.1495 37.0168 36.1378 36.9758C36.1378 36.964 36.1378 36.9523 36.132 36.9406C36.1202 36.882 36.1144 36.8234 36.1085 36.7707C36.1085 36.7648 36.1085 36.7472 36.1027 36.7414C36.0968 36.7179 36.0909 36.6945 36.0909 36.6652C36.0792 36.6183 36.0792 36.5714 36.0734 36.5304C36.0558 36.4308 36.0499 36.337 36.0441 36.2491C36.0323 36.1905 36.0323 36.1319 36.0265 36.0792C36.0206 36.044 36.0148 36.0147 36.0206 35.9796C36.003 35.7628 35.9972 35.5401 35.9972 35.3174C35.9913 35.1533 36.003 34.9834 36.0089 34.8193C36.0382 34.6201 36.0499 34.4209 36.0734 34.2158Z" fill="url(#paint1_linear_3170_21257)"/>
<path d="M25.3791 52.7388C23.1992 54.3151 21.7636 56.6004 21.2069 59.085C20.5916 61.8216 18.7985 64.1596 16.3725 65.5601L16.1616 65.6832C14.093 66.8786 11.6729 67.2361 9.29966 66.9021C7.56514 66.6618 5.731 66.9724 4.0961 67.9158C0.175851 70.1777 -1.16606 75.182 1.09585 79.1081C3.36362 83.0284 8.36794 84.3703 12.2882 82.1025C13.9289 81.1591 15.1126 79.7293 15.7689 78.1002C16.6655 75.8794 18.1832 73.9632 20.2576 72.7678L20.4685 72.6447C22.8945 71.2442 25.8127 70.8575 28.4907 71.6954C30.9225 72.4572 33.6122 72.3576 36.0734 71.2559C36.1144 71.2384 36.1554 71.2208 36.1964 71.1973C36.214 71.1915 36.2316 71.1856 36.2492 71.1739C36.2609 71.1739 36.2726 71.168 36.2902 71.1563C36.3898 71.1153 36.4836 71.0684 36.5832 71.0157C36.7472 70.9278 36.9113 70.8399 37.0695 70.7461C37.175 70.6875 37.2805 70.6231 37.386 70.5586C37.4035 70.5469 37.427 70.5352 37.4504 70.5176C37.509 70.4883 37.5618 70.4473 37.6145 70.418C37.6379 70.4004 37.6555 70.3887 37.679 70.377C37.7844 70.3125 37.8782 70.2422 37.972 70.1719C37.9895 70.1601 38.0013 70.1484 38.0071 70.1426C38.3118 69.9199 38.599 69.6855 38.8685 69.4335C38.8802 69.4277 38.8861 69.4159 38.8978 69.4101C39.0267 69.287 39.1674 69.164 39.2904 69.0409C39.3783 68.9471 39.4604 68.8592 39.5483 68.7714C39.5893 68.7245 39.6303 68.6835 39.6655 68.6366C39.7534 68.5428 39.8354 68.4491 39.9116 68.3494C39.935 68.3319 39.9467 68.3084 39.9702 68.2908C39.9878 68.2674 40.0053 68.2498 40.0288 68.2264C40.0639 68.1795 40.0932 68.1385 40.1284 68.0916C40.1753 68.033 40.2163 67.9803 40.2573 67.9217C40.2925 67.8748 40.3335 67.8279 40.3686 67.781C40.4097 67.7224 40.4448 67.6697 40.4858 67.6111C40.5562 67.5232 40.6206 67.4236 40.6851 67.324C40.7437 67.2361 40.8023 67.1482 40.8492 67.0603C40.9019 66.9782 40.9546 66.8845 41.0074 66.7907C41.0367 66.7556 41.0542 66.7145 41.0718 66.6794C41.0777 66.6677 41.0894 66.6501 41.0953 66.6384C41.1011 66.6325 41.1011 66.6325 41.107 66.6325C42.2731 64.7398 44.3768 63.4799 46.7618 63.4799C49.1584 63.4799 51.2504 64.7398 52.4224 66.6325C52.3579 66.5094 52.2935 66.3864 52.2349 66.2692C52.1704 66.152 52.1177 66.0289 52.0649 65.9C51.9536 65.6656 51.8598 65.4254 51.7661 65.1793C51.7016 65.0152 51.6489 64.8452 51.5903 64.6636C51.52 64.4409 51.4555 64.2065 51.3969 63.978C51.3676 63.8432 51.3324 63.7143 51.309 63.5795C51.2797 63.4447 51.2563 63.31 51.2328 63.1752C51.2094 63.0463 51.1918 62.9056 51.1801 62.7767C51.0687 61.9681 51.0629 61.1477 51.1449 60.3273C49.9788 59.794 48.7072 59.4776 47.3712 59.4014C47.1719 59.3897 46.9668 59.3839 46.7735 59.3839C46.5742 59.3839 46.3691 59.3897 46.1699 59.4014C44.8339 59.4776 43.5623 59.794 42.3962 60.3273C42.3903 60.3273 42.3903 60.3273 42.3844 60.3331C42.3844 60.3273 42.3844 60.3214 42.3786 60.3156C42.0446 60.4679 41.7281 60.632 41.4117 60.8137C41.2125 60.925 41.0191 61.0481 40.8374 61.1711C40.6616 61.2883 40.4858 61.4055 40.3218 61.5344C40.2983 61.552 40.2749 61.5696 40.2514 61.5872C40.0756 61.7161 39.9116 61.8509 39.7475 61.9915C39.5951 62.1204 39.4486 62.261 39.3021 62.3958C39.2728 62.4251 39.2435 62.4486 39.2142 62.4779C39.0619 62.6244 38.9154 62.7767 38.7748 62.9408C38.6283 63.1049 38.4759 63.2807 38.3353 63.4565C38.1946 63.6323 38.0657 63.8139 37.9309 64.0014C37.802 64.1889 37.6731 64.3765 37.5559 64.5757C37.5442 64.5874 37.5383 64.605 37.5266 64.6167C37.509 64.6519 37.4797 64.6929 37.4621 64.728C37.4504 64.7456 37.4446 64.7632 37.4328 64.7808C36.8703 65.7477 36.0499 66.5856 35.0186 67.1833C33.3427 68.1502 31.4265 68.3084 29.7213 67.781C25.9417 66.6091 21.8456 67.1013 18.4176 69.0819C16.9819 69.9082 15.6693 70.9512 14.5794 72.1818C13.4836 73.4124 12.6046 74.8246 12.0479 76.3833C11.7256 77.2564 11.1104 78.0299 10.2431 78.5339C8.28004 79.6648 5.77788 78.991 4.64693 77.0338C3.51597 75.0766 4.184 72.5744 6.14705 71.4376C7.01431 70.9395 7.99291 70.793 8.9129 70.9512C10.5478 71.2442 12.2061 71.1973 13.8176 70.8575C15.4232 70.5234 16.9819 69.9082 18.4176 69.0819C21.8456 67.1013 24.3243 63.808 25.1975 59.9464C25.5901 58.206 26.6859 56.6239 28.3618 55.657C29.399 55.0593 30.5299 54.7721 31.6492 54.7663C31.4675 54.7663 31.2859 54.7604 31.1101 54.7487C31.0632 54.7487 31.0163 54.7487 30.9694 54.7428C30.8757 54.737 30.7819 54.7253 30.694 54.7135C30.5124 54.7018 30.3307 54.6784 30.1432 54.6491C30.0904 54.6491 30.0377 54.6374 29.9791 54.6256C29.8326 54.6022 29.6803 54.5729 29.5279 54.5436C29.522 54.5436 29.5045 54.5377 29.4927 54.5377C29.481 54.5377 29.4634 54.5319 29.4459 54.5319C29.4224 54.526 29.399 54.5202 29.3697 54.5143C29.3638 54.5143 29.3521 54.5084 29.3462 54.5084C29.2701 54.4909 29.1939 54.4733 29.1177 54.4498C29.065 54.4381 29.0122 54.4323 28.9536 54.4147L28.9302 54.4088C28.8775 54.3971 28.8306 54.3854 28.7896 54.3678C28.7544 54.362 28.7017 54.3502 28.6665 54.3327C28.6196 54.3268 28.5845 54.3092 28.5434 54.3034C28.5024 54.2916 28.4673 54.2799 28.4262 54.2682C28.3618 54.2506 28.3032 54.233 28.2504 54.2096C28.2211 54.1979 28.1918 54.192 28.1567 54.1803C28.0864 54.151 28.0102 54.1217 27.9282 54.0924C27.8813 54.0865 27.8461 54.0631 27.7992 54.0514C27.7875 54.0455 27.7817 54.0397 27.7641 54.0397C27.7055 54.0221 27.6527 53.9986 27.6059 53.9752C27.6 53.9752 27.5883 53.9635 27.5766 53.9635C27.5531 53.9576 27.5297 53.9518 27.5062 53.9342C27.4594 53.9225 27.4183 53.899 27.3773 53.8814C27.2836 53.8463 27.2015 53.8053 27.1195 53.7642C27.0609 53.7467 27.014 53.7174 26.9613 53.6939C26.9261 53.6822 26.8968 53.6705 26.8734 53.647C26.6741 53.5533 26.4808 53.4478 26.2874 53.3365C26.1409 53.2603 26.0003 53.1665 25.8596 53.0786C25.7131 52.9732 25.5432 52.8618 25.3791 52.7388Z" fill="url(#paint2_linear_3170_21257)"/>
<path d="M36.0791 71.2618C36.3545 73.9397 37.6144 76.3247 39.4895 78.0475C41.5522 79.952 42.6773 82.6709 42.6773 85.472V85.7122C42.6773 88.103 41.7807 90.3767 40.3041 92.2635C39.2258 93.6465 38.5813 95.3868 38.5813 97.2796C38.5813 101.809 42.2437 105.472 46.7733 105.478C51.303 105.472 54.9654 101.809 54.9654 97.2796C54.9654 95.3868 54.3209 93.6465 53.2426 92.2635C51.766 90.3767 50.8694 88.103 50.8694 85.7122V85.472C50.8694 82.6709 51.9945 79.952 54.0572 78.0475C55.9323 76.3247 57.1922 73.9397 57.4676 71.2618C57.4735 71.2149 57.4793 71.1739 57.4793 71.127C57.4852 71.1094 57.4852 71.0919 57.4852 71.0684C57.491 71.0567 57.491 71.045 57.491 71.0274C57.5028 70.9219 57.5086 70.8164 57.5145 70.7051C57.5203 70.5176 57.5262 70.3359 57.5262 70.1484C57.5262 70.0254 57.5262 69.9023 57.5203 69.7792C57.5203 69.7558 57.5203 69.7324 57.5145 69.7031C57.5145 69.6386 57.5086 69.5742 57.5086 69.5097C57.5028 69.4804 57.5028 69.4569 57.5028 69.4335C57.4969 69.3105 57.4852 69.1933 57.4735 69.0761C57.4735 69.0585 57.4676 69.0409 57.4676 69.0292C57.4266 68.6542 57.368 68.2908 57.2859 67.9275C57.2859 67.9158 57.2801 67.9041 57.2801 67.8924C57.2391 67.7166 57.2039 67.5349 57.157 67.365C57.1219 67.2419 57.0867 67.1247 57.0515 67.0075C57.034 66.9489 57.0164 66.8903 56.9929 66.8376C56.9578 66.7145 56.9168 66.5973 56.8699 66.4801C56.864 66.4508 56.8523 66.4274 56.8465 66.3981C56.8347 66.3688 56.8289 66.3454 56.8172 66.3161C56.7937 66.2633 56.7761 66.2164 56.7527 66.1637C56.7234 66.0934 56.7 66.0289 56.6707 65.9645C56.6472 65.9117 56.6296 65.8531 56.6062 65.8004C56.5769 65.7359 56.5476 65.6773 56.5183 65.6129C56.4773 65.5074 56.4245 65.4019 56.3718 65.2964C56.3249 65.2027 56.278 65.1089 56.2253 65.021C56.1784 64.9331 56.1257 64.8394 56.073 64.7515C56.0554 64.7105 56.0319 64.6753 56.0085 64.6401C56.0026 64.6284 55.9909 64.6108 55.9851 64.5991C55.9851 64.5933 55.9851 64.5933 55.9851 64.5874C54.9303 62.6302 54.8893 60.1808 56.0847 58.1123C57.2801 56.0379 59.4189 54.8542 61.6457 54.7839C61.505 54.778 61.3703 54.7721 61.2355 54.7663C61.1007 54.7604 60.9659 54.7487 60.8312 54.7311C60.5733 54.7077 60.3155 54.6725 60.0577 54.6315C59.8819 54.6022 59.7061 54.567 59.5244 54.526C59.2959 54.4733 59.0615 54.4147 58.8329 54.3502C58.704 54.3092 58.5751 54.2741 58.4462 54.2272C58.3173 54.1862 58.1884 54.1393 58.0594 54.0924C57.9364 54.0455 57.8075 53.9928 57.6844 53.94C56.9285 53.6295 56.2136 53.2251 55.5456 52.7446C54.5025 53.4888 53.5884 54.4323 52.8559 55.5515C52.7445 55.7156 52.6391 55.8914 52.5395 56.0613C52.4398 56.2371 52.3402 56.4129 52.2523 56.5946C51.6488 57.79 51.2913 59.0498 51.1682 60.3273C51.1682 60.3331 51.1682 60.3331 51.1682 60.339C51.1624 60.339 51.1565 60.3331 51.1507 60.3331C51.1155 60.6965 51.0979 61.0539 51.0979 61.4172C51.0979 61.6458 51.1038 61.8743 51.1214 62.097C51.1331 62.3079 51.1507 62.5189 51.18 62.724C51.18 62.7533 51.1858 62.7826 51.1917 62.8119C51.2151 63.0287 51.2503 63.2396 51.2913 63.4506C51.3265 63.6498 51.3733 63.8432 51.4202 64.0366C51.4319 64.0776 51.4378 64.1128 51.4495 64.1538C51.5023 64.3589 51.5609 64.564 51.6312 64.7691C51.7015 64.98 51.7777 65.1968 51.8597 65.4078C51.9417 65.6187 52.0355 65.8238 52.1293 66.0289C52.2289 66.234 52.3285 66.4391 52.4398 66.6384C52.4457 66.6559 52.4574 66.6677 52.4633 66.6852C52.4867 66.7204 52.5043 66.7614 52.5277 66.7966C52.5395 66.8142 52.5512 66.8317 52.557 66.8493C53.1137 67.8221 53.4302 68.9471 53.4302 70.1426C53.4302 72.0763 52.6098 73.8167 51.2972 75.0297C48.3907 77.7194 46.7733 81.5107 46.7733 85.472C46.7733 87.1303 47.0195 88.7886 47.5351 90.3474C48.0508 91.9119 48.836 93.3769 49.9084 94.6426C50.5061 95.3575 50.8694 96.2775 50.8694 97.2796C50.8694 99.5473 49.0353 101.376 46.7733 101.376C44.5114 101.376 42.6773 99.5473 42.6773 97.2796C42.6773 96.2775 43.0406 95.3575 43.6383 94.6426C44.7107 93.3769 45.4959 91.9119 46.0116 90.3474C46.5272 88.7886 46.7733 87.1303 46.7733 85.472C46.7733 81.5107 45.156 77.7194 42.2495 75.0297C40.9369 73.8167 40.1165 72.0763 40.1165 70.1426C40.1165 68.9471 40.433 67.8221 40.9897 66.8493C40.8959 67.0075 40.8021 67.1599 40.7025 67.3064C40.6791 67.3474 40.6557 67.3884 40.6264 67.4236C40.5736 67.4998 40.5209 67.5759 40.4623 67.6463C40.3627 67.7986 40.2513 67.9451 40.1283 68.0916C40.099 68.1385 40.0638 68.1795 40.0286 68.2205C39.9349 68.3377 39.8353 68.4549 39.7298 68.5721C39.7239 68.578 39.7122 68.5897 39.7064 68.6014C39.7005 68.6131 39.6888 68.6248 39.6771 68.6366C39.6595 68.6541 39.6419 68.6717 39.6243 68.6952C39.6185 68.701 39.6126 68.7069 39.6067 68.7127C39.554 68.7713 39.5013 68.8299 39.4427 68.8827C39.4075 68.9237 39.3723 68.9647 39.3313 69.0057L39.3137 69.0233C39.2786 69.0643 39.2434 69.0995 39.2083 69.1229C39.1848 69.1522 39.1497 69.1874 39.1145 69.2108C39.0852 69.246 39.0559 69.2694 39.0266 69.2987C38.9973 69.328 38.968 69.3515 38.9387 69.3808C38.8918 69.4277 38.845 69.4687 38.7981 69.5038C38.7746 69.5214 38.7512 69.5448 38.7278 69.5683C38.6692 69.6152 38.6047 69.6679 38.5402 69.7206C38.5109 69.7558 38.4758 69.7792 38.4406 69.8085C38.4289 69.8144 38.423 69.8203 38.4113 69.832C38.3644 69.873 38.3176 69.9082 38.2765 69.9375C38.2707 69.9433 38.259 69.9492 38.2531 69.955C38.2355 69.9726 38.218 69.9902 38.1945 70.0019C38.1594 70.0371 38.1183 70.0605 38.0832 70.084C38.007 70.1484 37.9308 70.2012 37.8546 70.248C37.8078 70.289 37.7609 70.3184 37.714 70.3477C37.6847 70.3711 37.6613 70.3887 37.632 70.4004C37.4503 70.5234 37.2628 70.6406 37.0694 70.752C36.9288 70.8399 36.7764 70.9161 36.6299 70.9922C36.4483 71.0919 36.2666 71.1798 36.0791 71.2618Z" fill="url(#paint3_linear_3170_21257)"/>
<path d="M57.4678 71.2618C59.9231 72.3635 62.6186 72.4631 65.0505 71.7013C67.7284 70.8692 70.6466 71.2501 73.0726 72.6506L73.2777 72.7736C75.3462 73.9691 76.8698 75.8794 77.7664 78.1061C78.4227 79.7293 79.6122 81.1591 81.2471 82.1084C85.1674 84.3703 90.1717 83.0343 92.4395 79.114C94.7014 75.1879 93.3595 70.1836 89.4392 67.9217C87.7985 66.9782 85.9702 66.6618 84.2357 66.9079C81.8624 67.2419 79.4481 66.8845 77.3738 65.6891L77.1628 65.566C74.7368 64.1655 72.9437 61.8333 72.3284 59.0967C71.7717 56.6121 70.3361 54.3268 68.1562 52.7505C68.121 52.7212 68.0859 52.6978 68.0449 52.6743C68.0331 52.6626 68.0156 52.6509 67.998 52.6392C67.9921 52.6274 67.9804 52.6216 67.9628 52.6157C67.8749 52.5513 67.787 52.4927 67.6933 52.4341C67.535 52.3344 67.3768 52.2407 67.2186 52.1469C67.1131 52.0883 67.0077 52.0239 66.8963 51.9653C66.8787 51.9536 66.8553 51.9418 66.826 51.9301C66.7674 51.9008 66.7088 51.8715 66.6561 51.8364C66.6268 51.8246 66.6092 51.8129 66.5858 51.8012C66.4744 51.7426 66.3689 51.6957 66.2635 51.6488C66.2459 51.6371 66.2283 51.6371 66.2224 51.6313C65.8767 51.4789 65.531 51.35 65.1794 51.2387C65.1677 51.2328 65.1559 51.2328 65.1442 51.2269C64.9743 51.1742 64.7985 51.1156 64.6286 51.0687C64.5055 51.0394 64.3883 51.0101 64.2652 50.9808C64.2066 50.9691 64.1481 50.9515 64.0895 50.9457C63.9664 50.9164 63.8433 50.8929 63.7203 50.8753C63.691 50.8636 63.6675 50.8636 63.6382 50.8519C63.6089 50.846 63.5855 50.8402 63.5503 50.8343C63.4917 50.8285 63.4449 50.8226 63.3863 50.8109C63.3101 50.7992 63.2456 50.7874 63.1753 50.7816C63.1167 50.7757 63.0581 50.764 62.9995 50.7581C62.9292 50.7523 62.8647 50.7464 62.7944 50.7406C62.6831 50.723 62.5659 50.7171 62.4487 50.7113C62.3432 50.7054 62.2377 50.6995 62.1381 50.6995C62.0385 50.6937 61.933 50.6937 61.8275 50.6995C61.7807 50.6937 61.7396 50.6995 61.6986 50.6995C61.6869 50.6995 61.6635 50.6995 61.6517 50.6995C61.6459 50.6937 61.6459 50.6937 61.64 50.6937C59.4191 50.6292 57.2744 49.4397 56.0849 47.3711C54.8836 45.2968 54.9305 42.8532 55.9853 40.8901C55.9091 41.0073 55.8388 41.1245 55.7626 41.2359C55.6923 41.3472 55.6102 41.4585 55.5282 41.5699C55.3817 41.7808 55.2176 41.9859 55.0535 42.191C54.9422 42.3258 54.8191 42.4606 54.6961 42.6012C54.5379 42.7712 54.3679 42.9469 54.198 43.111C54.0984 43.2048 54.0046 43.2985 53.8992 43.3864C53.7995 43.4802 53.6941 43.5681 53.5886 43.656C53.489 43.738 53.3776 43.8259 53.2721 43.9021C52.6276 44.4002 51.9185 44.8162 51.1685 45.1561C51.2915 46.4336 51.649 47.6934 52.2525 48.8888C52.3404 49.0646 52.44 49.2463 52.5338 49.4162C52.6334 49.592 52.7389 49.762 52.8502 49.9319C53.5827 51.0511 54.4969 51.9887 55.5399 52.7388C55.5458 52.7388 55.5458 52.7388 55.5516 52.7446C55.5458 52.7505 55.5399 52.7505 55.5399 52.7564C55.8388 52.9673 56.1376 53.1607 56.4541 53.3423C56.6533 53.4595 56.8525 53.565 57.0518 53.6646C57.2393 53.7584 57.4326 53.8521 57.626 53.9283C57.6495 53.9459 57.6788 53.9518 57.7081 53.9635C57.9073 54.0514 58.1065 54.1276 58.3116 54.1979C58.4991 54.2682 58.6925 54.3209 58.8859 54.3795C58.9269 54.3913 58.9621 54.403 59.0031 54.4147C59.2082 54.4733 59.4133 54.526 59.6242 54.5671C59.8411 54.6139 60.0696 54.655 60.2923 54.6901C60.5149 54.7253 60.7376 54.7487 60.9661 54.7663C61.1947 54.7839 61.4232 54.8014 61.6517 54.8014C61.6693 54.8073 61.6869 54.8014 61.7045 54.8073C61.7455 54.8073 61.7924 54.8073 61.8334 54.8073C61.8568 54.8073 61.8744 54.8073 61.892 54.8073C63.0112 54.8132 64.1481 55.1003 65.1794 55.698C66.8553 56.6649 67.9511 58.247 68.3437 59.9874C69.2227 63.8491 71.6955 67.1423 75.1236 69.1229C76.5592 69.9492 78.118 70.5703 79.7236 70.8985C81.335 71.2325 82.9992 71.2852 84.6283 70.9922C85.5483 70.834 86.5269 70.9747 87.3941 71.4786C89.3572 72.6096 90.0252 75.1176 88.8942 77.0748C87.7633 79.032 85.2611 79.7059 83.2981 78.5749C82.4308 78.0768 81.8155 77.2975 81.4932 76.4243C80.9307 74.8656 80.0576 73.4534 78.9618 72.2228C77.8718 70.9981 76.5592 69.955 75.1236 69.1229C71.6955 67.1423 67.5995 66.6501 63.8199 67.8221C62.1147 68.3494 60.1985 68.1912 58.5226 67.2244C57.4854 66.6266 56.6709 65.7887 56.1083 64.8218C56.1962 64.98 56.2841 65.1382 56.3603 65.2965C56.3837 65.3375 56.4072 65.3785 56.4248 65.4195C56.4658 65.5016 56.5068 65.5895 56.5361 65.6715C56.6181 65.8356 56.6884 66.0055 56.7529 66.1813C56.7763 66.2282 56.7939 66.2809 56.8174 66.3337C56.8701 66.4743 56.9228 66.6208 56.9697 66.7673C56.9697 66.7731 56.9756 66.7907 56.9814 66.8024C56.9873 66.8142 56.9932 66.8317 56.999 66.8435C57.0049 66.8669 57.0107 66.8903 57.0225 66.9196C57.0225 66.9255 57.0283 66.9372 57.0283 66.9431C57.0518 67.0193 57.0752 67.0954 57.0928 67.1716C57.1104 67.2244 57.1279 67.2712 57.1455 67.3298L57.1514 67.3533C57.169 67.406 57.1807 67.4529 57.1865 67.4939C57.1983 67.5291 57.2158 67.5759 57.2158 67.617C57.2334 67.658 57.2393 67.699 57.251 67.74C57.2627 67.781 57.2686 67.8162 57.2803 67.8572C57.2979 67.9217 57.3096 67.9803 57.3155 68.0389C57.3213 68.0682 57.3272 68.0975 57.3389 68.1326C57.3506 68.2088 57.3623 68.2908 57.3741 68.3729C57.3916 68.4139 57.3916 68.4608 57.4033 68.5018C57.4033 68.5135 57.4034 68.5252 57.4092 68.537C57.4209 68.5956 57.4268 68.6542 57.4327 68.7069C57.4327 68.7128 57.4326 68.7303 57.4385 68.7362C57.4444 68.7596 57.4502 68.7831 57.4502 68.8124C57.4619 68.8593 57.4619 68.9061 57.4678 68.9472C57.4854 69.0468 57.4912 69.1405 57.4971 69.2284C57.5088 69.287 57.5088 69.3456 57.5147 69.3984C57.5205 69.4335 57.5264 69.4628 57.5205 69.498C57.5381 69.7148 57.544 69.9375 57.544 70.1601C57.5498 70.3242 57.5381 70.4942 57.5323 70.6582C57.503 70.8575 57.4912 71.0567 57.4678 71.2618Z" fill="url(#paint4_linear_3170_21257)"/>
<path d="M68.1619 52.7387C70.3418 51.1624 71.7774 48.8771 72.3341 46.3925C72.9494 43.6559 74.7425 41.3179 77.1685 39.9174L77.3795 39.7943C79.448 38.5989 81.8681 38.2414 84.2414 38.5754C85.9759 38.8157 87.81 38.5051 89.4449 37.5617C93.3652 35.2998 94.7071 30.2955 92.4452 26.3694C90.1774 22.4491 85.1731 21.1072 81.2528 23.375C79.6121 24.3184 78.4284 25.7482 77.7721 27.3773C76.8755 29.5981 75.3578 31.5143 73.2834 32.7097L73.0725 32.8328C70.6465 34.2333 67.7283 34.62 65.0503 33.7821C62.6185 33.0203 59.9288 33.1199 57.4677 34.2216C57.4266 34.2392 57.3856 34.2567 57.3446 34.2802C57.327 34.286 57.3094 34.2919 57.2919 34.3036C57.2801 34.3036 57.2684 34.3095 57.2509 34.3212C57.1512 34.3622 57.0575 34.4091 56.9579 34.4618C56.7938 34.5497 56.6297 34.6376 56.4715 34.7314C56.366 34.79 56.2605 34.8544 56.1551 34.9189C56.1375 34.9306 56.114 34.9423 56.0906 34.9599C56.032 34.9892 55.9793 35.0302 55.9265 35.0595C55.9031 35.0771 55.8855 35.0888 55.8621 35.1006C55.7566 35.165 55.6628 35.2353 55.5691 35.3056C55.5515 35.3174 55.5398 35.3291 55.5339 35.3349C55.2292 35.5576 54.9421 35.792 54.6725 36.044C54.6608 36.0498 54.6549 36.0616 54.6432 36.0674C54.5143 36.1905 54.3737 36.3135 54.2506 36.4366C54.1627 36.5304 54.0807 36.6183 53.9928 36.7062C53.9517 36.753 53.9107 36.794 53.8756 36.8409C53.7877 36.9347 53.7056 37.0284 53.6295 37.1281C53.606 37.1456 53.5943 37.1691 53.5709 37.1867C53.5533 37.2101 53.5357 37.2277 53.5123 37.2511C53.4771 37.298 53.4478 37.339 53.4126 37.3859C53.3658 37.4445 53.3247 37.4972 53.2837 37.5558C53.2486 37.6027 53.2075 37.6496 53.1724 37.6965C53.1314 37.7551 53.0962 37.8078 53.0552 37.8664C52.9849 37.9543 52.9204 38.0539 52.856 38.1535C52.7974 38.2414 52.7388 38.3293 52.6919 38.4172C52.6391 38.4993 52.5864 38.593 52.5337 38.6868C52.5044 38.7219 52.4868 38.763 52.4692 38.7981C52.4633 38.8098 52.4516 38.8274 52.4458 38.8391C52.4399 38.845 52.4399 38.845 52.434 38.845C51.2679 40.7377 49.1642 41.9976 46.7793 41.9976C44.3826 41.9976 42.2906 40.7377 41.1187 38.845C41.1831 38.9681 41.2476 39.0911 41.3062 39.2083C41.3706 39.3255 41.4234 39.4486 41.4761 39.5775C41.5874 39.8119 41.6812 40.0521 41.775 40.2982C41.8394 40.4623 41.8922 40.6323 41.9508 40.8139C42.0211 41.0366 42.0855 41.271 42.1441 41.4995C42.1734 41.6343 42.2086 41.7632 42.232 41.898C42.2613 42.0328 42.2848 42.1675 42.3082 42.3023C42.3316 42.4312 42.3492 42.5719 42.3668 42.7008C42.4781 43.5095 42.484 44.3298 42.402 45.1502C43.5681 45.6835 44.8397 45.9999 46.1757 46.0761C46.375 46.0878 46.58 46.0937 46.7734 46.0937C46.9727 46.0937 47.1777 46.0878 47.377 46.0761C48.713 45.9999 49.9846 45.6835 51.1507 45.1502C51.1566 45.1502 51.1566 45.1502 51.1625 45.1444C51.1683 45.1502 51.1625 45.1561 51.1683 45.1619C51.5023 45.0096 51.8188 44.8455 52.1352 44.6638C52.3344 44.5525 52.5278 44.4295 52.7095 44.3064C52.8853 44.1892 53.0611 44.072 53.2251 43.9431C53.2486 43.9255 53.272 43.9079 53.2954 43.8903C53.4712 43.7614 53.6353 43.6266 53.7994 43.486C53.9517 43.3571 54.0982 43.2165 54.2447 43.0817C54.274 43.0524 54.3033 43.0289 54.3326 42.9996C54.485 42.8531 54.6315 42.7008 54.7721 42.5367C54.9186 42.3726 55.071 42.1968 55.2116 42.021C55.3523 41.8453 55.4812 41.6636 55.616 41.4761C55.7449 41.2886 55.8738 41.101 55.991 40.9018C56.0027 40.8901 56.0086 40.8725 56.0203 40.8608C56.0379 40.8256 56.0672 40.7846 56.0847 40.7495C56.0965 40.7319 56.1023 40.7143 56.114 40.6967C56.6766 39.7298 57.497 38.8919 58.5283 38.2942C60.2042 37.3273 62.1204 37.1691 63.8256 37.6965C67.6052 38.8684 71.7013 38.3762 75.1293 36.3956C76.565 35.5693 77.8776 34.5263 78.9675 33.2957C80.0633 32.0651 80.9423 30.6529 81.499 29.0942C81.8213 28.2211 82.4365 27.4476 83.3038 26.9436C85.2668 25.8127 87.769 26.4866 88.9 28.4437C90.0309 30.4009 89.3629 32.9031 87.3998 34.0399C86.5326 34.538 85.554 34.6845 84.634 34.5263C82.9991 34.2333 81.3407 34.2802 79.7293 34.62C78.1237 34.9541 76.565 35.5693 75.1293 36.3956C71.7013 38.3762 69.2225 41.6695 68.3494 45.5311C67.9568 47.2715 66.861 48.8536 65.1851 49.8205C64.1479 50.4182 63.017 50.7054 61.8977 50.7112C62.0794 50.7112 62.261 50.7171 62.4368 50.7288C62.4837 50.7288 62.5306 50.7288 62.5775 50.7347C62.6712 50.7405 62.765 50.7522 62.8529 50.764C63.0345 50.7757 63.2162 50.7991 63.4037 50.8284C63.4564 50.8284 63.5092 50.8401 63.5678 50.8519C63.7143 50.8753 63.8666 50.9046 64.019 50.9339C64.0249 50.9339 64.0424 50.9398 64.0541 50.9398C64.0659 50.9398 64.0835 50.9456 64.101 50.9456C64.1245 50.9515 64.1479 50.9573 64.1772 50.9632C64.1831 50.9632 64.1948 50.9691 64.2006 50.9691C64.2768 50.9866 64.353 51.0042 64.4292 51.0277C64.4819 51.0394 64.5347 51.0452 64.5933 51.0628L64.6167 51.0687C64.6694 51.0804 64.7163 51.0921 64.7573 51.1097C64.7925 51.1156 64.8452 51.1273 64.8804 51.1448C64.9273 51.1507 64.9624 51.1683 65.0034 51.1742C65.0445 51.1859 65.0796 51.1976 65.1206 51.2093C65.1851 51.2269 65.2437 51.2445 65.2964 51.2679C65.3257 51.2796 65.355 51.2855 65.3902 51.2972C65.4605 51.3265 65.5367 51.3558 65.6187 51.3851C65.6656 51.391 65.7008 51.4144 65.7476 51.4261C65.7594 51.432 65.7652 51.4378 65.7828 51.4378C65.8414 51.4554 65.8941 51.4789 65.941 51.5023C65.9469 51.5023 65.9586 51.514 65.9703 51.514C65.9938 51.5199 66.0172 51.5257 66.0406 51.5433C66.0875 51.555 66.1285 51.5785 66.1696 51.5961C66.2633 51.6312 66.3454 51.6722 66.4274 51.7133C66.486 51.7308 66.5329 51.7601 66.5856 51.7836C66.6208 51.7953 66.6501 51.807 66.6735 51.8305C66.8727 51.9242 67.0661 52.0297 67.2595 52.141C67.406 52.2172 67.5466 52.311 67.6873 52.3989C67.8279 52.5043 67.9978 52.6157 68.1619 52.7387Z" fill="url(#paint5_linear_3170_21257)"/>
<path d="M4.65267 28.4203C5.78362 26.4631 8.28578 25.7892 10.2488 26.9201C11.1161 27.4241 11.7314 28.1976 12.0537 29.0707C12.6104 30.6353 13.4893 32.0475 14.5851 33.2781C15.6809 34.5028 16.9935 35.5459 18.4292 36.3721C21.8572 38.3527 25.9474 38.8508 29.7329 37.6788C31.4381 37.1456 33.3543 37.3038 35.0302 38.2707C36.0674 38.8684 36.8819 39.7064 37.4445 40.6791C37.3566 40.515 37.2745 40.3568 37.1925 40.1986C37.169 40.1576 37.1456 40.1165 37.1339 40.0755C37.0929 39.9935 37.0518 39.9056 37.0225 39.8236C36.9405 39.6595 36.8643 39.4895 36.7999 39.3079C36.7764 39.261 36.7589 39.2083 36.7413 39.1555C36.6827 39.0208 36.6358 38.8743 36.5831 38.7219C36.5831 38.716 36.5772 38.6985 36.5713 38.6867C36.5655 38.675 36.5596 38.6633 36.5538 38.6457C36.5479 38.6223 36.542 38.5988 36.5303 38.5695C36.5303 38.5637 36.5245 38.5578 36.5245 38.5461C36.501 38.4699 36.4776 38.3996 36.46 38.3176C36.4424 38.2707 36.4248 38.218 36.4073 38.1594L36.4014 38.1359C36.3838 38.089 36.3721 38.0363 36.3662 37.9953C36.3545 37.9601 36.3428 37.9132 36.3369 37.8722C36.3252 37.8312 36.3194 37.7902 36.3076 37.7492C36.2959 37.714 36.2901 37.673 36.2783 37.632C36.2608 37.5675 36.249 37.5089 36.2432 37.4503C36.2373 37.421 36.2315 37.3917 36.2256 37.3566C36.2139 37.2862 36.1963 37.2042 36.1846 37.1222C36.167 37.0753 36.167 37.0343 36.1611 36.9874C36.1611 36.9757 36.1553 36.9698 36.1553 36.9522C36.1436 36.8936 36.1318 36.835 36.1318 36.7823C36.126 36.7764 36.126 36.7588 36.126 36.753C36.1201 36.7295 36.1143 36.7061 36.1143 36.6768C36.1025 36.6299 36.1025 36.5831 36.0967 36.542C36.0791 36.4424 36.0732 36.3487 36.0732 36.2608C36.0615 36.2022 36.0557 36.1436 36.0557 36.0908C36.0498 36.0557 36.0439 36.0264 36.0498 35.9912C36.0322 35.7744 36.0264 35.5517 36.0264 35.329C36.0205 35.165 36.0322 34.995 36.0381 34.831C36.0439 34.62 36.0557 34.4208 36.0791 34.2157C33.6238 33.114 30.9283 33.0144 28.4964 33.7762C25.8185 34.6141 22.9003 34.2274 20.4743 32.8269L20.2692 32.7038C18.1948 31.5084 16.6771 29.5981 15.7805 27.3772C15.1242 25.7482 13.9347 24.3242 12.2998 23.3749C8.36782 21.113 3.36936 22.4491 1.10159 26.3693C0.972674 26.592 0.861336 26.8147 0.761719 27.0432L4.65267 28.4203Z" fill="url(#paint6_linear_3170_21257)"/>
<path d="M55.1179 42.103C55.0065 42.2436 54.8835 42.3843 54.7663 42.5132C54.6256 42.6773 54.4733 42.8296 54.3268 42.9761C54.2975 43.0113 54.2682 43.0289 54.2389 43.064C54.0924 43.1988 53.9517 43.3394 53.7935 43.4684C53.6353 43.609 53.4654 43.7438 53.2896 43.8727C53.2661 43.8903 53.2486 43.9137 53.2193 43.9254C53.0552 44.0543 52.8853 44.1774 52.7095 44.2887C52.5219 44.4177 52.3286 44.5348 52.1293 44.652C51.8129 44.8337 51.4965 44.9978 51.1625 45.1501V45.1267C51.1566 45.1326 51.1566 45.1326 51.1507 45.1326C49.9846 45.6658 48.713 45.9881 47.377 46.0643C47.1777 46.076 46.9727 46.0819 46.7734 46.0819C46.5742 46.0819 46.3691 46.076 46.1699 46.0643C44.8338 45.9881 43.5622 45.6658 42.3961 45.1384C42.4781 44.318 42.4723 43.4976 42.3609 42.6831C42.3434 42.5542 42.3258 42.4136 42.3082 42.2847C42.2848 42.1499 42.2613 42.0151 42.232 41.8803C42.2027 41.7456 42.1734 41.6166 42.1441 41.4877C42.0855 41.2533 42.0152 41.0248 41.9507 40.7963C41.8922 40.6205 41.8336 40.4505 41.775 40.2864C41.6812 40.0403 41.5816 39.8001 41.4761 39.5657C41.4234 39.4368 41.3648 39.3196 41.3003 39.1965C41.2417 39.0793 41.1773 38.9563 41.1128 38.8332C42.2848 40.7259 44.3826 41.9858 46.7734 41.9858C49.1642 41.9858 51.2621 40.7259 52.434 38.8332C52.4399 38.8332 52.4399 38.8332 52.4399 38.8273C52.4516 38.8156 52.4575 38.798 52.4633 38.7863C52.4868 38.7512 52.5044 38.7101 52.5278 38.675C52.5805 38.5871 52.6333 38.4933 52.686 38.4113C52.7388 38.3175 52.7974 38.2296 52.8501 38.1417C52.8911 38.089 52.9321 38.0304 52.9732 37.9777L55.1179 42.103Z" fill="url(#paint7_linear_3170_21257)"/>
<path d="M4.6469 77.0572C3.51595 75.1 4.18398 72.5978 6.14703 71.461C7.01429 70.9629 7.99289 70.8164 8.91288 70.9747C10.5478 71.2735 12.2061 71.2208 13.8234 70.8868C15.429 70.5527 16.9936 69.9375 18.4234 69.1054C21.8515 67.1247 24.3302 63.8315 25.2092 59.9698C25.6018 58.2295 26.6976 56.6473 28.3676 55.6804C29.4048 55.0827 30.5358 54.7956 31.6609 54.7956C31.4733 54.7897 31.2976 54.7839 31.1218 54.7721C31.0749 54.7721 31.028 54.7721 30.987 54.7604C30.8932 54.7546 30.7995 54.7487 30.7116 54.7311C30.5299 54.7194 30.3424 54.7018 30.1549 54.6667C30.1021 54.6608 30.0494 54.6549 29.9908 54.6432C29.8443 54.6256 29.692 54.5963 29.5337 54.5612C29.5279 54.5553 29.5103 54.5553 29.4986 54.5553C29.4869 54.5553 29.4751 54.5553 29.4517 54.5495C29.4283 54.5436 29.4048 54.5377 29.3755 54.5319C29.3697 54.5319 29.3638 54.5319 29.3521 54.526C29.2759 54.5084 29.1997 54.4909 29.1235 54.4674C29.0767 54.4616 29.0181 54.4498 28.9595 54.4323L28.936 54.4264C28.8892 54.4205 28.8364 54.403 28.7954 54.3854C28.7602 54.3795 28.7134 54.362 28.6723 54.3502C28.6313 54.3385 28.5903 54.3268 28.5493 54.3151C28.5141 54.3092 28.4731 54.2916 28.4321 54.2799C28.3676 54.2623 28.309 54.2448 28.2563 54.2213C28.227 54.2096 28.1977 54.2037 28.1684 54.192C28.1039 54.1686 28.0219 54.1393 27.9457 54.11C27.8988 54.1041 27.8578 54.0807 27.8168 54.0631C27.8051 54.0572 27.7992 54.0572 27.7816 54.0514C27.723 54.0338 27.6703 54.0104 27.6234 53.9869C27.6176 53.9869 27.6 53.9811 27.5941 53.9752C27.5707 53.9693 27.5472 53.9635 27.5238 53.9459C27.4769 53.9342 27.4359 53.9107 27.4007 53.8932C27.307 53.858 27.2191 53.817 27.1429 53.7701C27.0843 53.7525 27.0316 53.7291 26.9847 53.6998C26.9495 53.6881 26.9202 53.6763 26.8968 53.6529C26.6976 53.5591 26.5042 53.4537 26.3108 53.3423C26.1643 53.2662 26.0237 53.1724 25.883 53.0845C25.7014 52.9732 25.5373 52.8618 25.3732 52.7388C23.1934 54.3151 21.7577 56.6004 21.201 59.085C20.5857 61.8216 18.7926 64.1538 16.3666 65.5543L16.1557 65.6715C14.0813 66.8728 11.6729 67.2302 9.29963 66.8962C7.55926 66.6501 5.73098 66.9665 4.09608 67.91C0.175831 70.1777 -1.17194 75.182 1.08997 79.1023C1.21889 79.325 1.35366 79.5359 1.50602 79.7352L4.6469 77.0572Z" fill="url(#paint8_linear_3170_21257)"/>
<path d="M41.7337 40.1986C41.7982 40.3627 41.8626 40.5444 41.9154 40.7084C41.9857 40.9135 42.0443 41.1186 42.097 41.3179C42.1146 41.3589 42.1146 41.394 42.1263 41.4351C42.1674 41.6284 42.2201 41.8218 42.2553 42.021C42.2963 42.2261 42.3314 42.443 42.3549 42.6598C42.3607 42.6891 42.3725 42.7184 42.3666 42.7477C42.3959 42.9528 42.4193 43.1637 42.4252 43.3688C42.4428 43.5973 42.4486 43.82 42.4486 44.0544C42.4486 44.4177 42.431 44.7752 42.3959 45.1385L42.3783 45.1268C42.3783 45.1326 42.3783 45.1326 42.3783 45.1385C42.2553 46.4159 41.8978 47.6758 41.3001 48.8712C41.2122 49.047 41.1126 49.2287 41.013 49.4045C40.9133 49.5744 40.8079 49.7502 40.6965 49.9201C39.964 51.0394 39.0499 51.9769 38.0069 52.727C37.3388 52.2465 36.6239 51.8422 35.8621 51.5316C35.7391 51.4847 35.6102 51.4261 35.493 51.3792C35.3641 51.3324 35.2351 51.2855 35.1062 51.2445C34.9773 51.2034 34.8484 51.1624 34.7195 51.1214C34.4851 51.0569 34.2565 51.0042 34.0222 50.9456C33.8405 50.9105 33.6647 50.8753 33.4948 50.8401C33.2369 50.7991 32.9791 50.764 32.7213 50.7405C32.5806 50.7229 32.4517 50.7112 32.3111 50.7054C32.1822 50.6995 32.0415 50.6936 31.9009 50.6878C34.1276 50.6175 36.2665 49.4338 37.4619 47.3594C38.6573 45.2908 38.6163 42.8414 37.5615 40.8842C37.5615 40.8784 37.5615 40.8784 37.5615 40.8784C37.5556 40.8608 37.5439 40.8491 37.5381 40.8374C37.5205 40.8022 37.4912 40.7612 37.4736 40.726C37.4267 40.6381 37.3681 40.5444 37.3271 40.4565C37.2744 40.3627 37.2275 40.2689 37.1748 40.181C37.1513 40.1166 37.122 40.0521 37.0927 39.9935L41.7337 40.1986Z" fill="url(#paint9_linear_3170_21257)"/>
<path d="M46.7675 101.376C44.5056 101.376 42.6714 99.5474 42.6714 97.2796C42.6714 96.2776 43.0348 95.3576 43.6325 94.6427C44.7107 93.377 45.49 91.912 46.0116 90.3474C46.5214 88.7887 46.7733 87.1303 46.7675 85.472C46.7675 81.5107 45.156 77.7253 42.2495 75.0297C40.9369 73.8226 40.1165 72.0822 40.1165 70.1485C40.1165 68.9531 40.433 67.828 40.9955 66.8552C40.8959 67.0134 40.8022 67.1658 40.7025 67.3123C40.6791 67.3533 40.6557 67.3943 40.6264 67.4236C40.5736 67.4998 40.5209 67.5819 40.4623 67.6463C40.3627 67.7987 40.2513 67.951 40.1283 68.0975C40.099 68.1385 40.0638 68.1854 40.0228 68.2264C39.9349 68.3436 39.8294 68.4608 39.7239 68.578C39.7181 68.5839 39.7064 68.5956 39.7005 68.6073C39.6946 68.619 39.6888 68.6308 39.6712 68.6425C39.6536 68.6601 39.636 68.6776 39.6185 68.7011C39.6126 68.7011 39.6126 68.7128 39.6009 68.7187C39.5481 68.7773 39.4954 68.83 39.4368 68.8886C39.4075 68.9296 39.3665 68.9706 39.3255 69.0117L39.3079 69.0292C39.2786 69.0703 39.2376 69.1054 39.2024 69.1289C39.179 69.1582 39.1438 69.1875 39.1086 69.2168C39.0794 69.2461 39.0442 69.2753 39.0149 69.3046C38.9915 69.3339 38.9563 69.3574 38.927 69.3867C38.8801 69.4336 38.8332 69.4746 38.7864 69.5097C38.7629 69.5273 38.7395 69.5508 38.716 69.5742C38.6633 69.6211 38.5988 69.6738 38.5344 69.7266C38.5051 69.7676 38.4699 69.7852 38.4289 69.8145C38.4172 69.8203 38.4172 69.8262 38.3996 69.8379C38.3527 69.8789 38.3117 69.9141 38.2648 69.9434C38.2648 69.9492 38.2473 69.961 38.2414 69.961C38.2238 69.9785 38.2062 69.9961 38.1828 70.0078C38.1476 70.043 38.1066 70.0664 38.0773 70.0899C38.0011 70.1543 37.9191 70.2071 37.8429 70.2481C37.796 70.2891 37.7492 70.3243 37.7023 70.3477C37.673 70.3711 37.6495 70.3887 37.6202 70.4004C37.4386 70.5235 37.2511 70.6407 37.0577 70.752C36.9171 70.8399 36.7647 70.9161 36.6182 70.9923C36.4307 71.0919 36.2549 71.1798 36.0674 71.2618C36.3428 73.9398 37.6027 76.3248 39.4778 78.0476C41.5405 79.9462 42.6656 82.6651 42.6656 85.4662L42.6597 85.7064C42.6597 88.1031 41.769 90.3709 40.2923 92.2577C39.2083 93.6407 38.5695 95.381 38.5695 97.2738C38.5754 101.803 42.232 105.472 46.7616 105.472C47.0195 105.472 47.2656 105.46 47.5176 105.431L46.7675 101.376Z" fill="url(#paint10_linear_3170_21257)"/>
<path d="M33.3894 50.8285C33.5652 50.8519 33.7527 50.893 33.9226 50.9281C34.1336 50.9691 34.3445 51.0219 34.5438 51.0746C34.5906 51.0805 34.6199 51.098 34.661 51.1098C34.8485 51.1684 35.0418 51.2211 35.2352 51.2914C35.4345 51.3559 35.6396 51.4379 35.8388 51.5258C35.8681 51.5375 35.8974 51.5434 35.9208 51.561C36.1142 51.6372 36.3076 51.7251 36.4892 51.8188C36.6943 51.9184 36.8936 52.0239 37.0928 52.1411C37.4092 52.3228 37.7081 52.5161 38.0069 52.7271L37.9894 52.7388C37.9952 52.7388 37.9952 52.7388 38.0011 52.7447C39.0441 53.4889 39.9583 54.4264 40.6966 55.5457C40.8079 55.7098 40.9134 55.8856 41.013 56.0613C41.1127 56.2313 41.2123 56.4129 41.3002 56.5946C41.9037 57.79 42.2612 59.0499 42.3843 60.3273C41.6342 60.6672 40.9251 61.0832 40.2747 61.5872C40.1692 61.6692 40.0579 61.7513 39.9583 61.8333C39.8528 61.9212 39.7473 62.0091 39.6477 62.1029C39.5481 62.1966 39.4485 62.2845 39.3488 62.3724C39.1731 62.5424 39.0148 62.7182 38.8449 62.8881C38.7218 63.0287 38.6046 63.1635 38.4933 63.2924C38.3292 63.4975 38.171 63.7026 38.0187 63.9136C37.9308 64.0249 37.8604 64.1304 37.7843 64.2476C37.7139 64.3589 37.6378 64.4761 37.5616 64.5933C38.6164 62.6303 38.6574 60.1867 37.462 58.1182C36.2666 56.0496 34.1277 54.8601 31.901 54.7898C31.901 54.7839 31.901 54.7839 31.8951 54.7898C31.8775 54.7839 31.8599 54.7898 31.8482 54.7898C31.8072 54.7898 31.7603 54.7898 31.7193 54.7898C31.6197 54.7898 31.5084 54.7898 31.4146 54.7839C31.3091 54.7839 31.2036 54.778 31.0982 54.778C31.0337 54.7663 30.9634 54.7605 30.8931 54.7546L33.3894 50.8285Z" fill="url(#paint11_linear_3170_21257)"/>
<path d="M88.8943 77.0572C87.7634 79.0144 85.2612 79.6882 83.2982 78.5573C82.4309 78.0533 81.8156 77.2798 81.4933 76.4067C80.9366 74.8421 80.0577 73.4299 78.9619 72.1993C77.8661 70.9746 76.5535 69.9316 75.1178 69.1053C71.6898 67.1247 67.5996 66.6266 63.8141 67.7986C62.1089 68.3318 60.1927 68.1736 58.5168 67.2067C57.4796 66.609 56.6651 65.7711 56.1025 64.7983C56.1904 64.9624 56.2725 65.1206 56.3545 65.2788C56.378 65.3199 56.4014 65.3609 56.4131 65.4019C56.4541 65.4839 56.4952 65.5718 56.5244 65.6539C56.6065 65.818 56.6827 65.9879 56.7471 66.1695C56.7706 66.2164 56.7881 66.2692 56.8057 66.3219C56.8643 66.4567 56.9112 66.6032 56.9639 66.7555C56.9639 66.7614 56.9698 66.779 56.9757 66.7907C56.9815 66.8024 56.9874 66.8141 56.9932 66.8317C56.9991 66.8552 57.005 66.8786 57.0167 66.9079C57.0167 66.9137 57.0225 66.9196 57.0225 66.9313C57.046 67.0075 57.0694 67.0778 57.087 67.1599C57.1046 67.2067 57.1222 67.2595 57.1397 67.3181L57.1456 67.3415C57.1632 67.3884 57.1749 67.4411 57.1808 67.4822C57.1925 67.5173 57.2042 67.5642 57.2101 67.6052C57.2218 67.6462 57.2276 67.6873 57.2394 67.7283C57.2511 67.7634 57.2569 67.8044 57.2687 67.8455C57.2862 67.9099 57.298 67.9685 57.3038 68.0271C57.3097 68.0564 57.3155 68.0857 57.3214 68.1209C57.3331 68.1912 57.3507 68.2732 57.3624 68.3553C57.38 68.4022 57.38 68.4432 57.3859 68.49C57.3859 68.5018 57.3917 68.5076 57.3917 68.5252C57.4034 68.5838 57.4152 68.6424 57.4152 68.6951C57.421 68.701 57.421 68.7186 57.421 68.7244C57.4269 68.7479 57.4327 68.7713 57.4327 68.8006C57.4444 68.8475 57.4444 68.8944 57.4503 68.9354C57.4679 69.035 57.4737 69.1288 57.4737 69.2167C57.4855 69.2753 57.4913 69.3339 57.4913 69.3866C57.4972 69.4218 57.503 69.4511 57.4972 69.4862C57.5148 69.703 57.5206 69.9257 57.5206 70.1484C57.5265 70.3125 57.5148 70.4824 57.5089 70.6465C57.503 70.8574 57.4913 71.0567 57.4679 71.2618C59.9232 72.3634 62.6187 72.463 65.0505 71.7013C67.7285 70.8633 70.6467 71.25 73.0727 72.6506L73.2778 72.7736C75.3522 73.969 76.8699 75.8793 77.7665 78.1002C78.4228 79.7293 79.6123 81.1532 81.2472 82.1025C85.1733 84.3644 90.1776 83.0284 92.4454 79.1081C92.5743 78.8854 92.6857 78.6628 92.7853 78.4342L88.8943 77.0572Z" fill="url(#paint12_linear_3170_21257)"/>
<path d="M38.4292 63.3744C38.5405 63.2337 38.6636 63.0931 38.7808 62.9642C38.9214 62.8001 39.0738 62.6477 39.2203 62.5012C39.2496 62.4661 39.2789 62.4485 39.3082 62.4133C39.4547 62.2786 39.5953 62.1379 39.7535 62.009C39.9117 61.8684 40.0817 61.7336 40.2575 61.6047C40.2809 61.5871 40.2985 61.5637 40.3278 61.5519C40.4919 61.423 40.6618 61.3 40.8376 61.1886C41.0251 61.0597 41.2185 60.9425 41.4177 60.8253C41.7342 60.6437 42.0506 60.4796 42.3846 60.3272V60.3507C42.3905 60.3448 42.3905 60.3448 42.3963 60.3448C43.5624 59.8116 44.834 59.4893 46.1701 59.4131C46.3693 59.4014 46.5744 59.3955 46.7736 59.3955C46.9729 59.3955 47.178 59.4014 47.3772 59.4131C48.7133 59.4893 49.9848 59.8116 51.151 60.3389C51.0689 61.1593 51.0748 61.9797 51.1861 62.7942C51.2037 62.9231 51.2213 63.0638 51.2389 63.1927C51.2623 63.3275 51.2857 63.4623 51.315 63.597C51.3443 63.7318 51.3736 63.8607 51.4029 63.9896C51.4615 64.224 51.5319 64.4526 51.5963 64.6811C51.6549 64.8569 51.7135 65.0268 51.7721 65.1909C51.8659 65.437 51.9655 65.6773 52.071 65.9117C52.1237 66.0406 52.1823 66.1578 52.2468 66.2808C52.3054 66.398 52.3698 66.5211 52.4343 66.6442C51.2623 64.7514 49.1645 63.4915 46.7736 63.4915C44.3828 63.4915 42.285 64.7514 41.113 66.6442C41.1072 66.6442 41.1072 66.6442 41.1072 66.65C41.0954 66.6617 41.0896 66.6793 41.0837 66.691C41.0603 66.7262 41.0427 66.7672 41.0193 66.8024C40.9665 66.8903 40.9138 66.984 40.861 67.0661C40.8083 67.1598 40.7497 67.2477 40.697 67.3356C40.6559 67.3884 40.6149 67.447 40.5739 67.4997L38.4292 63.3744Z" fill="url(#paint13_linear_3170_21257)"/>
<path d="M88.8943 28.4204C90.0253 30.3776 89.3573 32.8797 87.3942 34.0166C86.527 34.5146 85.5484 34.6611 84.6284 34.5029C82.9935 34.2041 81.3351 34.2568 79.7178 34.5908C78.1122 34.9248 76.5476 35.5401 75.1178 36.3722C71.6898 38.3529 69.2111 41.6461 68.3321 45.5077C67.9395 47.2481 66.8437 48.8303 65.1736 49.7972C64.1364 50.3949 63.0055 50.682 61.8804 50.682C62.0679 50.6879 62.2437 50.6937 62.4253 50.7054C62.4722 50.7054 62.5191 50.7054 62.5601 50.7172C62.6539 50.723 62.7476 50.7289 62.8355 50.7465C63.0172 50.7582 63.2047 50.7758 63.3922 50.8109C63.445 50.8168 63.4977 50.8226 63.5504 50.8344C63.6969 50.8519 63.8493 50.8812 64.0075 50.9164C64.0134 50.9164 64.0309 50.9223 64.0427 50.9223C64.0544 50.9223 64.0661 50.9223 64.0895 50.9281C64.113 50.934 64.1364 50.9398 64.1657 50.9457C64.1716 50.9457 64.1774 50.9457 64.1892 50.9516C64.2653 50.9691 64.3415 50.9867 64.4177 51.0102C64.4646 51.016 64.5232 51.0277 64.5818 51.0453L64.6052 51.0512C64.6521 51.057 64.7048 51.0746 64.7458 51.0922C64.781 51.0981 64.8279 51.1156 64.8689 51.1274C64.9099 51.1391 64.9509 51.1508 64.992 51.1625C65.0271 51.1684 65.0681 51.186 65.1092 51.1977C65.1736 51.2153 65.2322 51.2328 65.285 51.2563C65.3143 51.268 65.3435 51.2738 65.3728 51.2856C65.4373 51.309 65.5193 51.3383 65.5955 51.3676C65.6424 51.3735 65.6776 51.3969 65.7244 51.4145C65.7362 51.4203 65.742 51.4203 65.7596 51.4262C65.8182 51.4438 65.8709 51.4672 65.9178 51.4907C65.9237 51.4907 65.9413 51.4965 65.9471 51.5024C65.9706 51.5082 65.994 51.5141 66.0174 51.5317C66.0643 51.5434 66.1053 51.5668 66.1405 51.5844C66.2343 51.6196 66.3221 51.6606 66.3983 51.7075C66.4569 51.7251 66.5097 51.7485 66.5565 51.7778C66.5917 51.7895 66.621 51.8012 66.6444 51.8247C66.8437 51.9184 67.0371 52.0239 67.2304 52.1352C67.3769 52.2114 67.5176 52.3052 67.6582 52.3931C67.8399 52.5044 68.0039 52.6158 68.168 52.7388C70.3479 51.1625 71.7835 48.8772 72.3402 46.3926C72.9555 43.656 74.7486 41.3238 77.1746 39.9233L77.3856 39.8061C79.46 38.6048 81.8684 38.2474 84.2416 38.5814C85.982 38.8275 87.8103 38.5111 89.4452 37.5676C93.3654 35.2999 94.7132 30.2955 92.4513 26.3753C92.3224 26.1526 92.1876 25.9417 92.0352 25.7424L88.8943 28.4204Z" fill="url(#paint14_linear_3170_21257)"/>
<path d="M51.8072 65.2789C51.7427 65.1148 51.6783 64.9331 51.6255 64.7691C51.5552 64.564 51.4966 64.3589 51.4439 64.1596C51.4263 64.1186 51.4263 64.0835 51.4146 64.0424C51.3736 63.8491 51.3208 63.6557 51.2857 63.4565C51.2446 63.2514 51.2095 63.0345 51.186 62.8177C51.1802 62.7884 51.1685 62.7591 51.1743 62.7298C51.145 62.5247 51.1216 62.3138 51.1157 62.1087C51.0981 61.8802 51.0923 61.6575 51.0923 61.4231C51.0923 61.0598 51.1099 60.7023 51.145 60.339L51.1626 60.3507C51.1626 60.3449 51.1626 60.3449 51.1626 60.339C51.2857 59.0616 51.6431 57.8017 52.2408 56.6063C52.3287 56.4305 52.4283 56.2488 52.5279 56.073C52.6276 55.9031 52.733 55.7273 52.8444 55.5574C53.5769 54.4381 54.491 53.5006 55.5341 52.7505C56.2021 53.231 56.917 53.6353 57.6788 53.9459C57.8018 53.9928 57.9307 54.0514 58.0479 54.0983C58.1769 54.1451 58.3058 54.192 58.4347 54.233C58.5636 54.2741 58.6925 54.3151 58.8214 54.3561C59.0558 54.4206 59.2844 54.4733 59.5188 54.5319C59.7004 54.567 59.8762 54.6022 60.0462 54.6374C60.304 54.6784 60.5618 54.7135 60.8197 54.737C60.9603 54.7546 61.0892 54.7663 61.2298 54.7721C61.3588 54.778 61.4994 54.7839 61.64 54.7897C59.4133 54.86 57.2744 56.0437 56.079 58.1181C54.8836 60.1867 54.9246 62.6361 55.9794 64.5933C55.9794 64.5991 55.9794 64.5991 55.9794 64.5991C55.9853 64.6167 55.997 64.6284 56.0028 64.6401C56.0204 64.6753 56.0497 64.7163 56.0673 64.7515C56.1142 64.8394 56.1728 64.9331 56.2138 65.021C56.2665 65.1148 56.3134 65.2086 56.3662 65.2965C56.3896 65.3609 56.4248 65.4254 56.4482 65.484L51.8072 65.2789Z" fill="url(#paint15_linear_3170_21257)"/>
<path d="M46.7735 4.1019C49.0354 4.1019 50.8695 5.93018 50.8695 8.19795C50.8695 9.19998 50.5062 10.12 49.9085 10.8349C48.8303 12.1006 48.051 13.5656 47.5294 15.1302C47.0196 16.6889 46.7676 18.3472 46.7735 20.0056C46.7735 23.9668 48.385 27.7523 51.2915 30.4478C52.6041 31.655 53.4244 33.3954 53.4303 35.3291C53.4303 36.5245 53.1139 37.6496 52.5513 38.6223C52.6509 38.4641 52.7447 38.3118 52.8443 38.1653C52.8678 38.1243 52.8912 38.0832 52.9205 38.0539C52.9732 37.9778 53.026 37.8957 53.0846 37.8313C53.1842 37.6789 53.2955 37.5266 53.4186 37.3801C53.4479 37.339 53.483 37.2922 53.5241 37.2511C53.612 37.1339 53.7174 37.0167 53.8229 36.8995C53.8288 36.8937 53.8405 36.882 53.8464 36.8702C53.8522 36.8585 53.8581 36.8468 53.8757 36.8351C53.8932 36.8175 53.9108 36.7999 53.9284 36.7765C53.9343 36.7706 53.9343 36.7648 53.946 36.7589C53.9987 36.7003 54.0514 36.6476 54.11 36.589C54.1393 36.548 54.1804 36.5069 54.2214 36.4659L54.239 36.4483C54.2683 36.4073 54.3093 36.3722 54.3444 36.3487C54.3679 36.3194 54.403 36.2901 54.4382 36.2608C54.4675 36.2315 54.5027 36.2022 54.532 36.1729C54.5554 36.1436 54.5906 36.1202 54.6199 36.0909C54.6667 36.044 54.7136 36.003 54.7605 35.9678C54.7839 35.9502 54.8074 35.9268 54.8308 35.9034C54.8835 35.8565 54.948 35.8038 55.0125 35.751C55.0418 35.71 55.0769 35.6924 55.1179 35.6631C55.1297 35.6573 55.1297 35.6514 55.1472 35.6397C55.1941 35.5987 55.2351 35.5635 55.282 35.5342C55.282 35.5283 55.2996 35.5166 55.3055 35.5166C55.323 35.499 55.3406 35.4815 55.3641 35.4697C55.3992 35.4346 55.4402 35.4111 55.4695 35.3877C55.5457 35.3232 55.6278 35.2705 55.7039 35.2295C55.7508 35.1885 55.7977 35.1533 55.8446 35.1299C55.8739 35.1064 55.8973 35.0889 55.9266 35.0771C56.1083 34.9541 56.2958 34.8369 56.4892 34.7255C56.6298 34.6376 56.7821 34.5615 56.9286 34.4853C57.1162 34.3857 57.292 34.2978 57.4795 34.2157C57.2041 31.5378 55.9442 29.1528 54.069 27.43C52.0064 25.5314 50.8813 22.8124 50.8813 20.0114L50.8871 19.7712C50.8871 17.3745 51.7778 15.1067 53.2545 13.2198C54.3386 11.8369 54.9773 10.0965 54.9773 8.20381C54.9597 3.66827 51.3032 0.00585986 46.7735 0C46.5157 0 46.2696 0.0117197 46.0176 0.041019L46.7735 4.1019Z" fill="url(#paint16_linear_3170_21257)"/>
<path d="M60.1516 54.6491C59.9758 54.6257 59.7883 54.5846 59.6184 54.5495C59.4074 54.5085 59.1965 54.4557 58.9972 54.403C58.9504 54.3971 58.9211 54.3795 58.88 54.3678C58.6925 54.3092 58.4991 54.2565 58.3058 54.1862C58.1065 54.1217 57.9014 54.0397 57.7022 53.9518C57.6729 53.94 57.6436 53.9342 57.6202 53.9166C57.4268 53.8404 57.2334 53.7525 57.0518 53.6588C56.8467 53.5592 56.6474 53.4537 56.4482 53.3365C56.1318 53.1548 55.8329 52.9615 55.5341 52.7505L55.5516 52.7388C55.5458 52.7388 55.5458 52.7388 55.5399 52.7329C54.4969 51.9887 53.5827 51.0511 52.8444 49.9319C52.733 49.7678 52.6276 49.592 52.5279 49.4162C52.4283 49.2463 52.3287 49.0646 52.2408 48.883C51.6372 47.6876 51.2798 46.4277 51.1567 45.1503C51.9068 44.8104 52.6158 44.3943 53.2663 43.8904C53.3718 43.8084 53.4831 43.7263 53.5827 43.6443C53.6882 43.5564 53.7937 43.4685 53.8933 43.3747C53.9929 43.281 54.0925 43.1931 54.1921 43.1052C54.3679 42.9352 54.5262 42.7594 54.6961 42.5895C54.8191 42.4489 54.9363 42.3141 55.0477 42.1852C55.2118 41.9801 55.37 41.775 55.5223 41.564C55.6102 41.4527 55.6806 41.3472 55.7567 41.23C55.827 41.1187 55.9032 41.0015 55.9794 40.8843C54.9246 42.8473 54.8836 45.2909 56.079 47.3594C57.2744 49.428 59.4133 50.6175 61.64 50.6878C61.64 50.6937 61.64 50.6937 61.6459 50.6878C61.6635 50.6937 61.681 50.6878 61.6928 50.6878C61.7338 50.6878 61.7807 50.6878 61.8217 50.6878C61.9213 50.6878 62.0326 50.6878 62.1264 50.6937C62.2319 50.6937 62.3374 50.6995 62.4428 50.6995C62.5073 50.7113 62.5776 50.7171 62.6479 50.723L60.1516 54.6491Z" fill="url(#paint17_linear_3170_21257)"/>
<path d="M23.9433 13.2023C27.1253 11.3623 31.1979 12.4522 33.0379 15.64C34.8779 18.8219 33.7879 22.8945 30.6002 24.7345C27.4182 26.5745 23.3456 25.4845 21.5056 22.2968C19.6715 19.109 20.7614 15.0423 23.9433 13.2023Z" fill="url(#paint18_linear_3170_21257)"/>
<path d="M7.77008 59.3955C11.4465 59.3955 14.4269 56.4152 14.4269 52.7387C14.4269 49.0623 11.4465 46.0819 7.77008 46.0819C4.09363 46.0819 1.11328 49.0623 1.11328 52.7387C1.11328 56.4152 4.09363 59.3955 7.77008 59.3955Z" fill="url(#paint19_linear_3170_21257)"/>
<path d="M27.272 93.1718C30.9485 93.1718 33.9288 90.1914 33.9288 86.515C33.9288 82.8385 30.9485 79.8582 27.272 79.8582C23.5956 79.8582 20.6152 82.8385 20.6152 86.515C20.6152 90.1914 23.5956 93.1718 27.272 93.1718Z" fill="url(#paint20_linear_3170_21257)"/>
<path d="M69.5977 92.2753C66.4158 94.1153 62.3432 93.0253 60.5032 89.8376C58.6632 86.6557 59.7531 82.583 62.9409 80.743C66.1228 78.9031 70.1954 79.993 72.0354 83.1808C73.8695 86.3685 72.7796 90.4411 69.5977 92.2753Z" fill="url(#paint21_linear_3170_21257)"/>
<path d="M85.7711 59.3955C89.4475 59.3955 92.4279 56.4152 92.4279 52.7387C92.4279 49.0623 89.4475 46.0819 85.7711 46.0819C82.0946 46.0819 79.1143 49.0623 79.1143 52.7387C79.1143 56.4152 82.0946 59.3955 85.7711 59.3955Z" fill="url(#paint22_linear_3170_21257)"/>
<path d="M69.5977 13.2023C72.7796 15.0423 73.8696 19.109 72.0354 22.2968C70.1954 25.4787 66.1287 26.5686 62.9409 24.7345C59.759 22.8945 58.6691 18.8277 60.5032 15.64C62.3432 12.4522 66.4158 11.3623 69.5977 13.2023Z" fill="url(#paint23_linear_3170_21257)"/>
<path d="M399.995 8.78979V50.5706C399.995 55.7273 394.938 58.2646 391 56.8524H389.828C390.479 56.8524 391 56.325 391 55.6804V15.4466C391 11.7666 393.983 8.78979 397.657 8.78979H399.995Z" fill="url(#paint24_linear_3170_21257)"/>
<path fill-rule="evenodd" clip-rule="evenodd" d="M368.932 43.4509C369.928 47.9454 366.013 51.8598 361.519 50.8636C359.257 50.3596 357.429 48.5314 356.925 46.2695C355.929 41.7749 359.849 37.8606 364.338 38.8567C366.605 39.3607 368.434 41.189 368.932 43.4509Z" fill="url(#paint25_linear_3170_21257)"/>
<path d="M361.806 21.5877C361.806 21.5877 362.99 18.8922 363.558 17.603C364.982 14.3566 369.57 14.3332 371.035 17.5561L368.855 12.7569C367.953 10.7763 366.177 9.27028 364.033 8.88939C361.073 8.36786 358.22 9.93244 357.018 12.5811L334.856 61.5227H339.896C342.533 61.5227 344.924 59.9639 345.99 57.5438L361.806 21.5877Z" fill="url(#paint26_linear_3170_21257)"/>
<path d="M400 50.5706V52.5337C400 55.0183 398.992 57.2685 397.363 58.8916C395.74 60.5207 393.49 61.5286 391.005 61.5286V61.5227C385.216 61.5227 379.977 58.1064 377.645 52.8032L363.933 21.6288C363.523 20.7088 362.233 20.6971 361.806 21.5878C362.403 20.2283 362.989 18.8922 363.558 17.6031C364.982 14.3567 369.57 14.3333 371.035 17.5562L379.807 36.8703L383.124 44.1717L387.278 53.3248C387.29 53.3541 387.302 53.3834 387.319 53.4068C388.152 55.1823 389.494 56.3074 391.005 56.8524C394.943 58.2646 400 55.7273 400 50.5706Z" fill="url(#paint27_linear_3170_21257)"/>
<path d="M230.059 49.0002V61.5286H232.391C236.065 61.5286 239.048 58.5459 239.048 54.8718V44.9042H234.155C231.893 44.9042 230.059 46.7383 230.059 49.0002Z" fill="url(#paint28_linear_3170_21257)"/>
<path d="M243.097 8.78979H236.715C233.041 8.78979 230.059 11.7725 230.059 15.4466V16.8354V26.8499H232.344C236.018 26.8499 239.001 23.8672 239.001 20.1931V16.8354V12.8858C239.001 10.6239 240.835 8.78979 243.097 8.78979Z" fill="url(#paint29_linear_3170_21257)"/>
<path d="M266.952 13.7297C263.02 10.454 257.588 8.78979 250.808 8.78979H243.091C240.829 8.78979 238.995 10.6239 238.995 12.8858V16.8354H250.586C254.981 16.8354 258.362 17.7671 260.624 19.5954C262.862 21.4119 263.952 23.3867 263.952 26.844C263.952 30.2955 262.862 32.2761 260.624 34.0868C258.362 35.921 254.981 36.8468 250.586 36.8468H236.71C233.035 36.8468 230.053 39.8295 230.053 43.5036V48.9884C230.053 46.7265 231.887 44.8924 234.149 44.8924H250.808C257.588 44.8924 263.02 43.2282 266.952 39.9525C270.925 36.6417 272.947 32.616 272.947 26.8382C272.947 21.0721 270.931 17.0405 266.952 13.7297Z" fill="url(#paint30_linear_3170_21257)"/>
<path d="M139.758 47.0137C139.347 47.9454 138.023 47.9454 137.613 47.0078L139.57 51.4672C141 54.737 145.641 54.737 147.071 51.4672L165.787 8.78979H160.976C158.339 8.78979 155.954 10.3427 154.888 12.7569L139.758 47.0137Z" fill="url(#paint31_linear_3170_21257)"/>
<path d="M139.564 51.4729L137.607 47.0135L122.606 12.7744C121.545 10.3543 119.154 8.78967 116.512 8.78967H111.126L132.579 57.5437C133.458 59.5419 135.24 61.0596 137.396 61.4288C140.344 61.9328 143.174 60.3564 144.334 57.7078L147.071 51.4729C145.635 54.7427 141 54.7427 139.564 51.4729Z" fill="url(#paint32_linear_3170_21257)"/>
<path d="M186.766 20.0291L179.3 10.7529C178.398 9.63369 177.079 8.8719 175.643 8.80159C172.819 8.65509 170.487 10.8994 170.487 13.6887V61.5286H172.825C176.499 61.5286 179.482 58.5459 179.482 54.8718V25.0334V22.5957C179.482 18.7341 184.345 17.0171 186.766 20.0291Z" fill="url(#paint33_linear_3170_21257)"/>
<path d="M208.793 47.4064L207.088 45.2909L186.766 20.0349C184.34 17.023 179.476 18.7399 179.476 22.6016V25.0393L207.369 59.7062C208.295 60.8606 209.701 61.5345 211.184 61.5345C213.885 61.5345 216.077 59.3429 216.077 56.6415V44.8397C216.083 48.7014 211.219 50.4183 208.793 47.4064Z" fill="url(#paint34_linear_3170_21257)"/>
<path d="M207.087 45.285L208.793 47.4004C211.219 50.4124 216.082 48.7013 216.082 44.8338V8.78979H213.744C210.07 8.78979 207.087 11.7725 207.087 15.4466V45.285Z" fill="url(#paint35_linear_3170_21257)"/>
<path d="M295.683 8.78979C297.945 8.78979 299.779 10.6239 299.779 12.8858V16.8354H317.276V15.4466C317.276 11.7725 314.294 8.78979 310.619 8.78979H295.683Z" fill="url(#paint36_linear_3170_21257)"/>
<path d="M295.683 8.78979H280.06H273.362V10.1786C273.362 13.8527 276.345 16.8354 280.019 16.8354H290.86V61.5285H293.122C296.796 61.5285 299.779 58.5459 299.779 54.8717V16.8354V12.8858C299.779 10.6239 297.944 8.78979 295.683 8.78979Z" fill="url(#paint37_linear_3170_21257)"/>
<path d="M130.388 96.4006H124.792V79.1082H130.569C132.263 79.1082 133.722 79.4539 134.935 80.1454C136.154 80.8368 137.085 81.8213 137.736 83.1104C138.386 84.3996 138.709 85.9408 138.709 87.7339C138.709 89.5328 138.381 91.0857 137.724 92.3749C137.068 93.6699 136.119 94.6661 134.882 95.3575C133.646 96.0549 132.146 96.4006 130.388 96.4006ZM127.399 94.1211H130.247C131.566 94.1211 132.661 93.875 133.534 93.3711C134.408 92.873 135.058 92.1522 135.492 91.2029C135.925 90.2536 136.142 89.0934 136.142 87.728C136.142 86.3744 135.925 85.22 135.497 84.2766C135.07 83.3331 134.425 82.6123 133.575 82.126C132.726 81.6338 131.671 81.3935 130.411 81.3935H127.405V94.1211H127.399Z" fill="#0667E1"/>
<path d="M144.557 96.4006V79.1082H155.397V81.3525H147.164V86.6205H154.829V88.859H147.164V94.1504H155.497V96.3947H144.557V96.4006Z" fill="#0667E1"/>
<path d="M231.084 81.3525V79.1082H244.468V81.3525H239.071V96.4006H236.469V81.3525H231.084Z" fill="#0667E1"/>
<path d="M294.405 96.4006V79.1082H305.129V81.3525H297.013V86.6205H304.361V88.859H297.013V96.4006H294.405Z" fill="#0667E1"/>
<path d="M389.054 96.4006V79.1082H399.894V81.3525H391.661V86.6205H399.326V88.859H391.661V94.1504H399.994V96.3947H389.054V96.4006Z" fill="#0667E1"/>
<path d="M161.603 96.4006V79.1082H172.327V81.3525H164.211V86.6205H171.559V88.859H164.211V96.4006H161.603Z" fill="#0667E1"/>
<path d="M181.04 79.1082V96.4006H178.433V79.1082H181.04Z" fill="#0667E1"/>
<path d="M201.099 79.1082V96.4006H198.702L189.912 83.7199H189.754V96.4006H187.146V79.1082H189.561L198.356 91.8065H198.515V79.1082H201.099Z" fill="#0667E1"/>
<path d="M207.199 96.4006V79.1082H218.039V81.3525H209.806V86.6205H217.471V88.859H209.806V94.1504H218.139V96.3947H207.199V96.4006Z" fill="#0667E1"/>
<path d="M250.567 96.4006V79.1082H253.175V86.6205H261.795V79.1082H264.414V96.4006H261.795V88.859H253.175V96.4006H250.567Z" fill="#0667E1"/>
<path d="M270.521 96.4006V79.1082H281.361V81.3525H273.128V86.6205H280.793V88.859H273.128V94.1504H281.461V96.3947H270.521V96.4006Z" fill="#0667E1"/>
<path d="M322.351 79.1082H324.97V90.4821C324.97 91.6951 324.689 92.7616 324.114 93.6933C323.546 94.6251 322.749 95.3575 321.718 95.8908C320.686 96.424 319.479 96.6877 318.096 96.6877C316.719 96.6877 315.512 96.424 314.481 95.8908C313.449 95.3575 312.652 94.6251 312.084 93.6933C311.516 92.7616 311.229 91.6893 311.229 90.4821V79.1082H313.836V90.2712C313.836 91.0564 314.006 91.7479 314.358 92.3573C314.703 92.9667 315.196 93.4414 315.828 93.7871C316.461 94.1328 317.217 94.3086 318.09 94.3086C318.969 94.3086 319.725 94.1328 320.364 93.7871C321.003 93.4414 321.495 92.9667 321.835 92.3573C322.175 91.7479 322.345 91.0564 322.345 90.2712V79.1082H322.351Z" fill="#0667E1"/>
<path d="M331.07 81.3525V79.1082H344.454V81.3525H339.057V96.4006H336.456V81.3525H331.07Z" fill="#0667E1"/>
<path d="M361.677 79.1082H364.296V90.4821C364.296 91.6951 364.015 92.7616 363.446 93.6933C362.878 94.6251 362.081 95.3575 361.05 95.8908C360.018 96.424 358.811 96.6877 357.428 96.6877C356.051 96.6877 354.844 96.424 353.813 95.8908C352.781 95.3575 351.985 94.6251 351.416 93.6933C350.848 92.7616 350.561 91.6893 350.561 90.4821V79.1082H353.168V90.2712C353.168 91.0564 353.338 91.7479 353.69 92.3573C354.035 92.9667 354.528 93.4414 355.161 93.7871C355.799 94.1328 356.549 94.3086 357.422 94.3086C358.301 94.3086 359.057 94.1328 359.696 93.7871C360.335 93.4414 360.827 92.9667 361.167 92.3573C361.507 91.7479 361.677 91.0564 361.677 90.2712V79.1082Z" fill="#0667E1"/>
<path d="M370.396 96.4006V79.1082H376.56C377.902 79.1082 379.015 79.3367 379.9 79.7996C380.785 80.2625 381.447 80.9013 381.887 81.7099C382.326 82.5245 382.543 83.462 382.543 84.5285C382.543 85.5892 382.32 86.515 381.881 87.3178C381.441 88.1206 380.773 88.7418 379.888 89.1871C379.004 89.6325 377.89 89.8551 376.548 89.8551H371.878V87.6108H376.308C377.152 87.6108 377.838 87.4878 378.371 87.2475C378.904 87.0072 379.291 86.6557 379.543 86.1927C379.789 85.7298 379.912 85.179 379.912 84.5285C379.912 83.8781 379.789 83.3097 379.537 82.8292C379.285 82.3487 378.898 81.9853 378.365 81.7275C377.832 81.4697 377.134 81.3408 376.273 81.3408H372.997V96.3947H370.396V96.4006ZM378.933 88.6011L383.205 96.4006H380.234L376.044 88.6011H378.933Z" fill="#0667E1"/>
<defs>
<linearGradient id="paint0_linear_3170_21257" x1="28.4293" y1="4.75053" x2="82.3097" y2="89.1236" gradientUnits="userSpaceOnUse">
<stop stop-color="#278EFF"/>
<stop offset="1" stop-color="#0667E1"/>
</linearGradient>
<linearGradient id="paint1_linear_3170_21257" x1="7.99038" y1="17.8026" x2="61.8708" y2="102.176" gradientUnits="userSpaceOnUse">
<stop stop-color="#278EFF"/>
<stop offset="1" stop-color="#0667E1"/>
</linearGradient>
<linearGradient id="paint2_linear_3170_21257" x1="-2.68452" y1="24.6194" x2="51.1961" y2="108.993" gradientUnits="userSpaceOnUse">
<stop stop-color="#278EFF"/>
<stop offset="1" stop-color="#0667E1"/>
</linearGradient>
<linearGradient id="paint3_linear_3170_21257" x1="10.9508" y1="15.9119" x2="64.8313" y2="100.285" gradientUnits="userSpaceOnUse">
<stop stop-color="#278EFF"/>
<stop offset="1" stop-color="#0667E1"/>
</linearGradient>
<linearGradient id="paint4_linear_3170_21257" x1="31.3897" y1="2.85994" x2="85.2701" y2="87.2329" gradientUnits="userSpaceOnUse">
<stop stop-color="#278EFF"/>
<stop offset="1" stop-color="#0667E1"/>
</linearGradient>
<linearGradient id="paint5_linear_3170_21257" x1="42.0644" y1="-3.95695" x2="95.9449" y2="80.4161" gradientUnits="userSpaceOnUse">
<stop stop-color="#278EFF"/>
<stop offset="1" stop-color="#0667E1"/>
</linearGradient>
<linearGradient id="paint6_linear_3170_21257" x1="38.4859" y1="33.3065" x2="26.644" y2="31.9003" gradientUnits="userSpaceOnUse">
<stop stop-color="#26235F" stop-opacity="0.6"/>
<stop offset="0.1375" stop-color="#252864" stop-opacity="0.5175"/>
<stop offset="0.2959" stop-color="#223671" stop-opacity="0.4225"/>
<stop offset="0.4647" stop-color="#1C4D88" stop-opacity="0.3212"/>
<stop offset="0.6407" stop-color="#156DA7" stop-opacity="0.2156"/>
<stop offset="0.8205" stop-color="#0B96CF" stop-opacity="0.1077"/>
<stop offset="1" stop-color="#00C7FF" stop-opacity="0"/>
</linearGradient>
<linearGradient id="paint7_linear_3170_21257" x1="40.4857" y1="41.9682" x2="51.2914" y2="42.0422" gradientUnits="userSpaceOnUse">
<stop stop-color="#26235F" stop-opacity="0.6"/>
<stop offset="0.1375" stop-color="#252864" stop-opacity="0.5175"/>
<stop offset="0.2959" stop-color="#223671" stop-opacity="0.4225"/>
<stop offset="0.4647" stop-color="#1C4D88" stop-opacity="0.3212"/>
<stop offset="0.6407" stop-color="#156DA7" stop-opacity="0.2156"/>
<stop offset="0.8205" stop-color="#0B96CF" stop-opacity="0.1077"/>
<stop offset="1" stop-color="#00C7FF" stop-opacity="0"/>
</linearGradient>
<linearGradient id="paint8_linear_3170_21257" x1="25.8002" y1="50.198" x2="18.6613" y2="59.7501" gradientUnits="userSpaceOnUse">
<stop stop-color="#26235F" stop-opacity="0.6"/>
<stop offset="0.1375" stop-color="#252864" stop-opacity="0.5175"/>
<stop offset="0.2959" stop-color="#223671" stop-opacity="0.4225"/>
<stop offset="0.4647" stop-color="#1C4D88" stop-opacity="0.3212"/>
<stop offset="0.6407" stop-color="#156DA7" stop-opacity="0.2156"/>
<stop offset="0.8205" stop-color="#0B96CF" stop-opacity="0.1077"/>
<stop offset="1" stop-color="#00C7FF" stop-opacity="0"/>
</linearGradient>
<linearGradient id="paint9_linear_3170_21257" x1="34.3007" y1="52.7969" x2="39.7678" y2="43.4759" gradientUnits="userSpaceOnUse">
<stop stop-color="#26235F" stop-opacity="0.6"/>
<stop offset="0.1375" stop-color="#252864" stop-opacity="0.5175"/>
<stop offset="0.2959" stop-color="#223671" stop-opacity="0.4225"/>
<stop offset="0.4647" stop-color="#1C4D88" stop-opacity="0.3212"/>
<stop offset="0.6407" stop-color="#156DA7" stop-opacity="0.2156"/>
<stop offset="0.8205" stop-color="#0B96CF" stop-opacity="0.1077"/>
<stop offset="1" stop-color="#00C7FF" stop-opacity="0"/>
</linearGradient>
<linearGradient id="paint10_linear_3170_21257" x1="34.085" y1="69.6303" x2="38.7882" y2="80.5886" gradientUnits="userSpaceOnUse">
<stop stop-color="#26235F" stop-opacity="0.6"/>
<stop offset="0.1375" stop-color="#252864" stop-opacity="0.5175"/>
<stop offset="0.2959" stop-color="#223671" stop-opacity="0.4225"/>
<stop offset="0.4647" stop-color="#1C4D88" stop-opacity="0.3212"/>
<stop offset="0.6407" stop-color="#156DA7" stop-opacity="0.2156"/>
<stop offset="0.8205" stop-color="#0B96CF" stop-opacity="0.1077"/>
<stop offset="1" stop-color="#00C7FF" stop-opacity="0"/>
</linearGradient>
<linearGradient id="paint11_linear_3170_21257" x1="40.5864" y1="63.5673" x2="35.2477" y2="54.1725" gradientUnits="userSpaceOnUse">
<stop stop-color="#26235F" stop-opacity="0.6"/>
<stop offset="0.1375" stop-color="#252864" stop-opacity="0.5175"/>
<stop offset="0.2959" stop-color="#223671" stop-opacity="0.4225"/>
<stop offset="0.4647" stop-color="#1C4D88" stop-opacity="0.3212"/>
<stop offset="0.6407" stop-color="#156DA7" stop-opacity="0.2156"/>
<stop offset="0.8205" stop-color="#0B96CF" stop-opacity="0.1077"/>
<stop offset="1" stop-color="#00C7FF" stop-opacity="0"/>
</linearGradient>
<linearGradient id="paint12_linear_3170_21257" x1="55.0567" y1="72.1709" x2="66.8986" y2="73.577" gradientUnits="userSpaceOnUse">
<stop stop-color="#26235F" stop-opacity="0.6"/>
<stop offset="0.1375" stop-color="#252864" stop-opacity="0.5175"/>
<stop offset="0.2959" stop-color="#223671" stop-opacity="0.4225"/>
<stop offset="0.4647" stop-color="#1C4D88" stop-opacity="0.3212"/>
<stop offset="0.6407" stop-color="#156DA7" stop-opacity="0.2156"/>
<stop offset="0.8205" stop-color="#0B96CF" stop-opacity="0.1077"/>
<stop offset="1" stop-color="#00C7FF" stop-opacity="0"/>
</linearGradient>
<linearGradient id="paint13_linear_3170_21257" x1="53.057" y1="63.5091" x2="42.2512" y2="63.4351" gradientUnits="userSpaceOnUse">
<stop stop-color="#26235F" stop-opacity="0.6"/>
<stop offset="0.1375" stop-color="#252864" stop-opacity="0.5175"/>
<stop offset="0.2959" stop-color="#223671" stop-opacity="0.4225"/>
<stop offset="0.4647" stop-color="#1C4D88" stop-opacity="0.3212"/>
<stop offset="0.6407" stop-color="#156DA7" stop-opacity="0.2156"/>
<stop offset="0.8205" stop-color="#0B96CF" stop-opacity="0.1077"/>
<stop offset="1" stop-color="#00C7FF" stop-opacity="0"/>
</linearGradient>
<linearGradient id="paint14_linear_3170_21257" x1="67.7426" y1="55.2796" x2="74.8816" y2="45.7274" gradientUnits="userSpaceOnUse">
<stop stop-color="#26235F" stop-opacity="0.6"/>
<stop offset="0.1375" stop-color="#252864" stop-opacity="0.5175"/>
<stop offset="0.2959" stop-color="#223671" stop-opacity="0.4225"/>
<stop offset="0.4647" stop-color="#1C4D88" stop-opacity="0.3212"/>
<stop offset="0.6407" stop-color="#156DA7" stop-opacity="0.2156"/>
<stop offset="0.8205" stop-color="#0B96CF" stop-opacity="0.1077"/>
<stop offset="1" stop-color="#00C7FF" stop-opacity="0"/>
</linearGradient>
<linearGradient id="paint15_linear_3170_21257" x1="59.2417" y1="52.6806" x2="53.7747" y2="62.0015" gradientUnits="userSpaceOnUse">
<stop stop-color="#26235F" stop-opacity="0.6"/>
<stop offset="0.1375" stop-color="#252864" stop-opacity="0.5175"/>
<stop offset="0.2959" stop-color="#223671" stop-opacity="0.4225"/>
<stop offset="0.4647" stop-color="#1C4D88" stop-opacity="0.3212"/>
<stop offset="0.6407" stop-color="#156DA7" stop-opacity="0.2156"/>
<stop offset="0.8205" stop-color="#0B96CF" stop-opacity="0.1077"/>
<stop offset="1" stop-color="#00C7FF" stop-opacity="0"/>
</linearGradient>
<linearGradient id="paint16_linear_3170_21257" x1="59.4577" y1="35.8472" x2="54.7544" y2="24.8889" gradientUnits="userSpaceOnUse">
<stop stop-color="#26235F" stop-opacity="0.6"/>
<stop offset="0.1375" stop-color="#252864" stop-opacity="0.5175"/>
<stop offset="0.2959" stop-color="#223671" stop-opacity="0.4225"/>
<stop offset="0.4647" stop-color="#1C4D88" stop-opacity="0.3212"/>
<stop offset="0.6407" stop-color="#156DA7" stop-opacity="0.2156"/>
<stop offset="0.8205" stop-color="#0B96CF" stop-opacity="0.1077"/>
<stop offset="1" stop-color="#00C7FF" stop-opacity="0"/>
</linearGradient>
<linearGradient id="paint17_linear_3170_21257" x1="52.9561" y1="41.9102" x2="58.2949" y2="51.3051" gradientUnits="userSpaceOnUse">
<stop stop-color="#26235F" stop-opacity="0.6"/>
<stop offset="0.1375" stop-color="#252864" stop-opacity="0.5175"/>
<stop offset="0.2959" stop-color="#223671" stop-opacity="0.4225"/>
<stop offset="0.4647" stop-color="#1C4D88" stop-opacity="0.3212"/>
<stop offset="0.6407" stop-color="#156DA7" stop-opacity="0.2156"/>
<stop offset="0.8205" stop-color="#0B96CF" stop-opacity="0.1077"/>
<stop offset="1" stop-color="#00C7FF" stop-opacity="0"/>
</linearGradient>
<linearGradient id="paint18_linear_3170_21257" x1="17.1768" y1="7.94809" x2="82.0109" y2="78.7031" gradientUnits="userSpaceOnUse">
<stop stop-color="#3EDBFF"/>
<stop offset="1" stop-color="#04BBF4"/>
</linearGradient>
<linearGradient id="paint19_linear_3170_21257" x1="-10.2451" y1="33.0752" x2="54.5889" y2="103.83" gradientUnits="userSpaceOnUse">
<stop stop-color="#3EDBFF"/>
<stop offset="1" stop-color="#04BBF4"/>
</linearGradient>
<linearGradient id="paint20_linear_3170_21257" x1="-16.4677" y1="38.7774" x2="48.3664" y2="109.532" gradientUnits="userSpaceOnUse">
<stop stop-color="#3EDBFF"/>
<stop offset="1" stop-color="#04BBF4"/>
</linearGradient>
<linearGradient id="paint21_linear_3170_21257" x1="4.73101" y1="19.3527" x2="69.5651" y2="90.1076" gradientUnits="userSpaceOnUse">
<stop stop-color="#3EDBFF"/>
<stop offset="1" stop-color="#04BBF4"/>
</linearGradient>
<linearGradient id="paint22_linear_3170_21257" x1="32.1529" y1="-5.77458" x2="96.987" y2="64.9805" gradientUnits="userSpaceOnUse">
<stop stop-color="#3EDBFF"/>
<stop offset="1" stop-color="#04BBF4"/>
</linearGradient>
<linearGradient id="paint23_linear_3170_21257" x1="38.3758" y1="-11.4767" x2="103.21" y2="59.2782" gradientUnits="userSpaceOnUse">
<stop stop-color="#3EDBFF"/>
<stop offset="1" stop-color="#04BBF4"/>
</linearGradient>
<linearGradient id="paint24_linear_3170_21257" x1="394.914" y1="8.79179" x2="394.914" y2="57.241" gradientUnits="userSpaceOnUse">
<stop stop-color="#3EDBFF"/>
<stop offset="1" stop-color="#04BBF4"/>
</linearGradient>
<linearGradient id="paint25_linear_3170_21257" x1="356.769" y1="44.8632" x2="369.089" y2="44.8632" gradientUnits="userSpaceOnUse">
<stop stop-color="#3EDBFF"/>
<stop offset="1" stop-color="#04BBF4"/>
</linearGradient>
<linearGradient id="paint26_linear_3170_21257" x1="364.614" y1="13.7902" x2="342.707" y2="61.305" gradientUnits="userSpaceOnUse">
<stop stop-color="#3EDBFF"/>
<stop offset="1" stop-color="#04BBF4"/>
</linearGradient>
<linearGradient id="paint27_linear_3170_21257" x1="392.508" y1="59.4139" x2="370.969" y2="16.1127" gradientUnits="userSpaceOnUse">
<stop stop-color="#3EDBFF"/>
<stop offset="1" stop-color="#04BBF4"/>
</linearGradient>
<linearGradient id="paint28_linear_3170_21257" x1="234.55" y1="61.1821" x2="234.55" y2="45.1627" gradientUnits="userSpaceOnUse">
<stop stop-color="#278EFF"/>
<stop offset="1" stop-color="#0667E1"/>
</linearGradient>
<linearGradient id="paint29_linear_3170_21257" x1="236.575" y1="11.0525" x2="236.575" y2="26.2671" gradientUnits="userSpaceOnUse">
<stop stop-color="#278EFF"/>
<stop offset="1" stop-color="#0667E1"/>
</linearGradient>
<linearGradient id="paint30_linear_3170_21257" x1="252.359" y1="35.5128" x2="238.591" y2="20.1167" gradientUnits="userSpaceOnUse">
<stop stop-color="#278EFF"/>
<stop offset="1" stop-color="#0667E1"/>
</linearGradient>
<linearGradient id="paint31_linear_3170_21257" x1="158.648" y1="12.4927" x2="142.882" y2="48.022" gradientUnits="userSpaceOnUse">
<stop stop-color="#278EFF"/>
<stop offset="1" stop-color="#0667E1"/>
</linearGradient>
<linearGradient id="paint32_linear_3170_21257" x1="141.292" y1="58.8014" x2="120.418" y2="9.72661" gradientUnits="userSpaceOnUse">
<stop stop-color="#278EFF"/>
<stop offset="1" stop-color="#0667E1"/>
</linearGradient>
<linearGradient id="paint33_linear_3170_21257" x1="178.628" y1="14.0844" x2="178.628" y2="61.1628" gradientUnits="userSpaceOnUse">
<stop stop-color="#278EFF"/>
<stop offset="1" stop-color="#0667E1"/>
</linearGradient>
<linearGradient id="paint34_linear_3170_21257" x1="214.923" y1="56.0642" x2="184.871" y2="20.3868" gradientUnits="userSpaceOnUse">
<stop stop-color="#278EFF"/>
<stop offset="1" stop-color="#0667E1"/>
</linearGradient>
<linearGradient id="paint35_linear_3170_21257" x1="211.584" y1="9.79119" x2="211.584" y2="44.5804" gradientUnits="userSpaceOnUse">
<stop stop-color="#278EFF"/>
<stop offset="1" stop-color="#0667E1"/>
</linearGradient>
<linearGradient id="paint36_linear_3170_21257" x1="312.738" y1="9.64205" x2="298.062" y2="17.0778" gradientUnits="userSpaceOnUse">
<stop stop-color="#278EFF"/>
<stop offset="1" stop-color="#0667E1"/>
</linearGradient>
<linearGradient id="paint37_linear_3170_21257" x1="295.42" y1="13.707" x2="278.544" y2="49.6804" gradientUnits="userSpaceOnUse">
<stop stop-color="#278EFF"/>
<stop offset="1" stop-color="#0667E1"/>
</linearGradient>
</defs>
</svg>
