<svg width="100" height="100" viewBox="0 0 100 100" fill="none" xmlns="http://www.w3.org/2000/svg">
<path d="M43.5033 23.9342V23.9381H43.4994L41.1758 22.0537L43.5033 23.9342Z" fill="url(#paint0_linear_3296_53475)"/>
<path d="M62.3527 55.636L20.865 89.1989C20.3323 89.6274 19.6894 89.8967 19.0104 89.9757C18.3313 90.0547 17.6438 89.9402 17.027 89.6454C16.4102 89.3506 15.8892 88.8875 15.5242 88.3095C15.1592 87.7314 14.9649 87.062 14.9639 86.3784V59.6301C14.9648 58.5508 15.2069 57.4855 15.6724 56.5118C16.1379 55.5381 16.8151 54.6808 17.6544 54.0023L22.5953 50.0016L38.9884 36.7391C39.8244 36.0637 40.4997 35.2107 40.9651 34.242C41.4306 33.2732 41.6745 32.213 41.6793 31.1383C41.6841 30.0635 41.4496 29.0012 40.9928 28.0283C40.536 27.0554 39.8684 26.1965 39.0384 25.5137L41.9956 27.9041L45.8797 31.058H45.8963L45.9463 31.0947L48.6368 33.2685L51.5907 35.6656L54.3679 37.9127L56.795 39.8697L59.5755 42.1234L62.3361 44.3572C63.1775 45.036 63.8565 45.8944 64.3235 46.8694C64.7905 47.8444 65.0337 48.9115 65.0353 49.9926C65.0369 51.0737 64.7969 52.1415 64.3327 53.1179C63.8686 54.0943 63.1921 54.9546 62.3527 55.636Z" fill="url(#paint1_linear_3296_53475)"/>
<path d="M48.9072 35.2851C48.909 36.4735 48.6443 37.6472 48.1325 38.7199C47.6207 39.7925 46.8749 40.7366 45.95 41.4829L28.7601 55.3888L27.1532 56.6691L26.2363 55.5555L27.83 54.2586L45.0132 40.3594C45.691 39.8143 46.2529 39.1391 46.6659 38.3735C47.0788 37.608 47.3345 36.7676 47.4177 35.9018C47.501 35.0359 47.4102 34.1622 47.1507 33.332C46.8912 32.5018 46.4682 31.7319 45.9067 31.0676L45.9567 31.1043L48.6472 33.278C48.8185 33.9334 48.9058 34.6078 48.9072 35.2851Z" fill="white"/>
<path d="M28.0661 57.8124C27.7299 58.0824 27.3213 58.2466 26.8918 58.2843C26.4623 58.3221 26.0313 58.2316 25.6532 58.0245C25.2751 57.8173 24.9669 57.5027 24.7676 57.1204C24.5682 56.7381 24.4867 56.3053 24.5333 55.8767C24.5799 55.4481 24.7525 55.0429 25.0293 54.7123C25.3061 54.3818 25.6747 54.1408 26.0885 54.0197C26.5023 53.8986 26.9427 53.9029 27.354 54.032C27.7653 54.1611 28.1292 54.4093 28.3995 54.7452C28.5792 54.9684 28.7131 55.2248 28.7935 55.4999C28.874 55.7749 28.8995 56.063 28.8686 56.3479C28.8376 56.6328 28.7508 56.9087 28.6131 57.16C28.4754 57.4113 28.2895 57.633 28.0661 57.8124Z" fill="white"/>
<path d="M54.635 39.9299C54.6364 41.119 54.3709 42.2932 53.8579 43.3659C53.3449 44.4386 52.5976 45.3824 51.6711 46.1277L28.7501 64.6712L27.1532 65.9614L26.2363 64.8412L27.83 63.5443L50.7676 45.0009C51.4483 44.4515 52.0113 43.7705 52.4229 42.9986C52.8346 42.2267 53.0863 41.3797 53.1632 40.5083C53.2401 39.6369 53.1405 38.759 52.8703 37.9269C52.6002 37.0949 52.1651 36.3258 51.5911 35.6658L54.3683 37.9129C54.5475 38.5701 54.6373 39.2486 54.635 39.9299Z" fill="white"/>
<path d="M28.0661 67.0982C27.7299 67.3681 27.3213 67.5323 26.8918 67.5701C26.4623 67.6078 26.0313 67.5174 25.6532 67.3102C25.2751 67.1031 24.9669 66.7884 24.7676 66.4062C24.5682 66.0239 24.4867 65.5911 24.5333 65.1624C24.5799 64.7338 24.7525 64.3287 25.0293 63.9981C25.3061 63.6676 25.6747 63.4265 26.0885 63.3054C26.5023 63.1843 26.9427 63.1886 27.354 63.3178C27.7653 63.4469 28.1292 63.6951 28.3995 64.0309C28.5796 64.254 28.7138 64.5104 28.7946 64.7855C28.8753 65.0605 28.9009 65.3488 28.8699 65.6338C28.839 65.9188 28.752 66.1949 28.6141 66.4462C28.4761 66.6975 28.2899 66.919 28.0661 67.0982Z" fill="white"/>
<path d="M59.8626 44.1499C59.8647 45.3314 59.6051 46.4988 59.1024 47.5681C58.5998 48.6374 57.8666 49.5821 56.9554 50.3343L28.7501 73.5387L27.1532 74.8523L26.2363 73.7254L27.8233 72.4218L56.0286 49.2008C56.7032 48.6461 57.2597 47.9618 57.6652 47.1883C58.0708 46.4148 58.317 45.5678 58.3894 44.6974C58.4619 43.827 58.359 42.951 58.0869 42.1211C57.8148 41.2912 57.3791 40.5243 56.8054 39.8657L59.5859 42.1195C59.762 42.7822 59.855 43.4642 59.8626 44.1499Z" fill="white"/>
<path d="M28.0833 75.9662C27.7505 76.2407 27.3438 76.4102 26.9146 76.4535C26.4854 76.4967 26.053 76.4117 25.6722 76.2091C25.2913 76.0065 24.9791 75.6956 24.775 75.3155C24.571 74.9355 24.4842 74.5035 24.5258 74.0741C24.5673 73.6447 24.7353 73.2373 25.0084 72.9035C25.2815 72.5696 25.6475 72.3242 26.0602 72.1984C26.4728 72.0726 26.9134 72.072 27.3264 72.1967C27.7393 72.3214 28.106 72.5658 28.38 72.899C28.747 73.3452 28.9219 73.9189 28.8663 74.494C28.8107 75.0691 28.529 75.5986 28.0833 75.9662Z" fill="white"/>
<path d="M38.9884 36.7389L22.5953 50.0014L17.6544 46.0007C16.8135 45.3222 16.1353 44.4639 15.6697 43.4888C15.2041 42.5138 14.9629 41.4468 14.9639 40.3663V13.6246C14.9638 12.9401 15.1575 12.2696 15.5227 11.6906C15.8878 11.1117 16.4095 10.648 17.0273 10.3532C17.6451 10.0585 18.3337 9.94469 19.0135 10.0251C19.6932 10.1055 20.3363 10.3767 20.8683 10.8074L38.9884 25.4768L39.0384 25.5202C39.8672 26.203 40.5338 27.0616 40.9898 28.0339C41.4459 29.0061 41.68 30.0676 41.6752 31.1414C41.6704 32.2153 41.4269 33.2747 40.9622 34.2428C40.4975 35.2109 39.8232 36.0635 38.9884 36.7389Z" fill="url(#paint2_linear_3296_53475)"/>
<defs>
<linearGradient id="paint0_linear_3296_53475" x1="42.47" y1="22.8675" x2="42.215" y2="23.1185" gradientUnits="userSpaceOnUse">
<stop stop-color="#5174F2"/>
<stop offset="1" stop-color="#1239C6"/>
</linearGradient>
<linearGradient id="paint1_linear_3296_53475" x1="12.1867" y1="77.4434" x2="53.6978" y2="37.7193" gradientUnits="userSpaceOnUse">
<stop stop-color="#3634A3"/>
<stop offset="1" stop-color="#0A84FF"/>
</linearGradient>
<linearGradient id="paint2_linear_3296_53475" x1="38.0682" y1="37.2257" x2="15.0272" y2="27.4939" gradientUnits="userSpaceOnUse">
<stop stop-color="#3634A3"/>
<stop offset="1" stop-color="#0A84FF"/>
</linearGradient>
</defs>
</svg>
