<svg width="100" height="100" viewBox="0 0 100 100" fill="none" xmlns="http://www.w3.org/2000/svg">
<path d="M69.9559 47.2904C69.9559 39.5292 66.8728 32.0858 61.3848 26.5978C55.8967 21.1098 48.4534 18.0266 40.6921 18.0266C32.9309 18.0266 25.4875 21.1098 19.9995 26.5978C14.5114 32.0858 11.4283 39.5292 11.4283 47.2904C11.4208 45.6522 12.0643 44.0782 13.2174 42.9145C14.3704 41.7508 15.9385 41.0928 17.5767 41.0853C19.2149 41.0778 20.789 41.7214 21.9527 42.8744C23.1163 44.0275 23.7743 45.5956 23.7818 47.2338C23.7818 42.7489 25.5634 38.4477 28.7347 35.2764C31.906 32.1051 36.2072 30.3235 40.6921 30.3235C45.177 30.3235 49.4782 32.1051 52.6495 35.2764C55.8208 38.4477 57.6024 42.7489 57.6024 47.2338C57.6024 47.2338 57.6024 47.2704 57.6024 47.2904C57.6024 47.3104 57.6024 47.3271 57.6024 47.3471C57.6099 48.9853 58.2679 50.5534 59.4316 51.7064C60.5952 52.8595 62.1693 53.503 63.8075 53.4955C65.4457 53.488 67.0138 52.83 68.1668 51.6664C69.3199 50.5027 69.9634 48.9286 69.9559 47.2904Z" fill="url(#paint0_linear_2776_2477)"/>
<path d="M69.9559 47.2905C69.9634 48.9287 69.3199 50.5027 68.1668 51.6664C67.0138 52.8301 65.4457 53.4881 63.8075 53.4956C62.1693 53.5031 60.5952 52.8596 59.4316 51.7065C58.2679 50.5534 57.6099 48.9853 57.6024 47.3472C57.6024 51.832 55.8208 56.1332 52.6495 59.3045C49.4782 62.4758 45.177 64.2574 40.6921 64.2574C36.2072 64.2574 31.906 62.4758 28.7347 59.3045C25.5634 56.1332 23.7818 51.832 23.7818 47.3472C23.7818 47.3272 23.7818 47.3072 23.7818 47.2905C23.7818 47.2738 23.7818 47.2505 23.7818 47.2338C23.7743 45.5956 23.1163 44.0275 21.9527 42.8745C20.789 41.7214 19.2149 41.0779 17.5767 41.0854C15.9385 41.0929 14.3704 41.7509 13.2174 42.9146C12.0643 44.0782 11.4208 45.6523 11.4283 47.2905C11.4283 55.0517 14.5114 62.4951 19.9995 67.9831C25.4875 73.4712 32.9309 76.5543 40.6921 76.5543C48.4534 76.5543 55.8967 73.4712 61.3848 67.9831C66.8728 62.4951 69.9559 55.0517 69.9559 47.2905Z" fill="url(#paint1_linear_2776_2477)"/>
<path d="M47.6525 10C42.0202 9.9954 36.4656 11.3136 31.436 13.8484C26.4063 16.3831 22.0423 20.0637 18.6953 24.5936C22.223 21.1694 26.501 18.6154 31.189 17.1348C35.8771 15.6541 40.8459 15.2876 45.7004 16.0643C50.555 16.841 55.1614 18.7396 59.1534 21.6091C63.1454 24.4785 66.4129 28.2398 68.6961 32.5937C68.8355 32.86 69.0273 33.0954 69.2602 33.2854C69.493 33.4755 69.762 33.6164 70.0508 33.6996C70.3396 33.7828 70.6423 33.8065 70.9406 33.7694C71.2389 33.7323 71.5265 33.6351 71.7862 33.4837L77.5096 30.127C77.7666 29.9754 77.9906 29.7737 78.1683 29.534C78.3459 29.2943 78.4737 29.0213 78.5439 28.7313C78.6141 28.4413 78.6255 28.1401 78.5772 27.8456C78.529 27.5512 78.4221 27.2694 78.263 27.017C75.0311 21.8094 70.5233 17.5132 65.1665 14.5353C59.8097 11.5573 53.7813 9.99629 47.6525 10Z" fill="url(#paint2_linear_2776_2477)"/>
<path d="M4.83142 59.8442C7.64392 64.7232 11.5625 68.8737 16.2718 71.9619C20.9811 75.0501 26.3495 76.9897 31.9452 77.6245C27.2165 76.2787 22.8669 73.8484 19.2421 70.5268C15.6174 67.2052 12.8173 63.0839 11.0646 58.4905C9.3119 53.897 8.6548 48.958 9.14554 44.0661C9.63629 39.1742 11.2614 34.4641 13.8916 30.3104C14.0508 30.0568 14.157 29.7736 14.2038 29.4779C14.2505 29.1821 14.2369 28.88 14.1637 28.5896C14.0905 28.2993 13.9592 28.0268 13.7778 27.7886C13.5964 27.5504 13.3686 27.3514 13.1082 27.2037L7.33813 23.9236C7.07828 23.7769 6.79162 23.6838 6.49513 23.6498C6.19865 23.6159 5.89836 23.6418 5.61208 23.7261C5.32579 23.8103 5.05932 23.9511 4.82846 24.1402C4.5976 24.3293 4.40705 24.5629 4.26808 24.827C1.37355 30.2291 -0.093925 36.2808 0.00465874 42.4087C0.103242 48.5366 1.76462 54.538 4.83142 59.8442Z" fill="url(#paint3_linear_2776_2477)"/>
<path d="M69.4093 72.0009C72.2293 67.1256 73.865 61.6562 74.1846 56.0331C74.5042 50.4101 73.4988 44.7905 71.2493 39.6271C72.4499 44.3953 72.5214 49.3779 71.458 54.1786C70.3947 58.9793 68.2258 63.4657 65.1239 67.2809C62.022 71.0962 58.0727 74.135 53.59 76.1557C49.1074 78.1764 44.215 79.1233 39.3021 78.9211C39.0032 78.9103 38.7053 78.96 38.4261 79.0674C38.147 79.1748 37.8925 79.3376 37.6779 79.546C37.4633 79.7543 37.2931 80.0039 37.1775 80.2798C37.062 80.5556 37.0034 80.852 37.0054 81.1511L37.0488 87.7879C37.052 88.0877 37.1156 88.3837 37.2356 88.6585C37.3556 88.9332 37.5296 89.1811 37.7472 89.3872C37.9649 89.5934 38.2218 89.7537 38.5027 89.8586C38.7835 89.9635 39.0826 90.0109 39.3821 89.9979C45.5049 89.8007 51.4761 88.0443 56.7305 84.895C61.985 81.7457 66.3489 77.3077 69.4093 72.0009Z" fill="url(#paint4_linear_2776_2477)"/>
<path d="M17.2272 20.9914C17.5563 18.9634 16.1792 17.0526 14.1512 16.7234C12.1232 16.3942 10.2123 17.7713 9.88316 19.7993C9.55397 21.8273 10.9311 23.7382 12.9591 24.0674C14.9871 24.3966 16.898 23.0194 17.2272 20.9914Z" fill="#6338CE"/>
<path d="M33.8071 86.4281C35.0561 84.7969 34.7462 82.4619 33.115 81.2129C31.4837 79.9639 29.1487 80.2738 27.8997 81.9051C26.6507 83.5364 26.9606 85.8713 28.5919 87.1203C30.2232 88.3693 32.5581 88.0594 33.8071 86.4281Z" fill="#6338CE"/>
<path d="M75.5655 40.5206C74.9285 40.1527 74.4149 39.6042 74.0896 38.9444C73.7643 38.2846 73.6419 37.5432 73.7379 36.8138C73.8339 36.0845 74.144 35.4 74.6289 34.8468C75.1139 34.2937 75.7519 33.8968 76.4625 33.7062C77.173 33.5156 77.9241 33.54 78.6207 33.7763C79.3174 34.0125 79.9284 34.45 80.3765 35.0334C80.8245 35.6168 81.0896 36.32 81.1381 37.054C81.1866 37.788 81.0164 38.52 80.649 39.1573C80.1553 40.0118 79.3426 40.6354 78.3894 40.891C77.4362 41.1467 76.4206 41.0135 75.5655 40.5206Z" fill="#6338CE"/>
<defs>
<linearGradient id="paint0_linear_2776_2477" x1="11.4283" y1="35.7469" x2="69.9559" y2="35.7469" gradientUnits="userSpaceOnUse">
<stop stop-color="#6338CE"/>
<stop offset="1" stop-color="#2DD4E1"/>
</linearGradient>
<linearGradient id="paint1_linear_2776_2477" x1="11.4283" y1="58.834" x2="69.9559" y2="58.834" gradientUnits="userSpaceOnUse">
<stop stop-color="#2DD4E1"/>
<stop offset="1" stop-color="#6338CE"/>
</linearGradient>
<linearGradient id="paint2_linear_2776_2477" x1="18.6953" y1="21.8969" x2="78.5996" y2="21.8969" gradientUnits="userSpaceOnUse">
<stop stop-color="#2DD4E1"/>
<stop offset="1" stop-color="#6338CE"/>
</linearGradient>
<linearGradient id="paint3_linear_2776_2477" x1="15.9716" y1="75.6978" x2="15.9716" y2="29.4237" gradientUnits="userSpaceOnUse">
<stop stop-color="#2DD4E1"/>
<stop offset="1" stop-color="#6338CE"/>
</linearGradient>
<linearGradient id="paint4_linear_2776_2477" x1="78.2561" y1="47.0939" x2="43.0655" y2="87.9779" gradientUnits="userSpaceOnUse">
<stop stop-color="#2DD4E1"/>
<stop offset="1" stop-color="#6338CE"/>
</linearGradient>
</defs>
</svg>
